<svg xmlns="http://www.w3.org/2000/svg" width="900" height="268" viewBox="0 0 900 268">
  <rect width="900" height="268" fill="#ffffff" rx="6" ry="6" />
  <!-- title -->
  <text x="450" y="20" text-anchor="middle"
        font-family="-apple-system, BlinkMacSystemFont, &quot;Segoe UI&quot;, Helvetica, Arial, sans-serif" font-size="14" font-weight="600" fill="#24292e"
        >Event Listings — Record Growth</text>
  <!-- legend -->
  <circle cx="365" cy="31" r="4" fill="#3b82f6" />
  <text x="373" y="34" font-family="-apple-system, BlinkMacSystemFont, &quot;Segoe UI&quot;, Helvetica, Arial, sans-serif" font-size="11" fill="#586069">Total Records</text>
  <circle cx="455" cy="31" r="4" fill="#22c55e" />
  <text x="463" y="34" font-family="-apple-system, BlinkMacSystemFont, &quot;Segoe UI&quot;, Helvetica, Arial, sans-serif" font-size="11" fill="#586069">Added</text>
  <!-- grid lines -->
  <line x1="58" y1="52" x2="848" y2="52"
           stroke="#e1e4e8" stroke-width="1" stroke-dasharray="4,3" />
  <line x1="58" y1="145" x2="848" y2="145"
           stroke="#e1e4e8" stroke-width="1" stroke-dasharray="4,3" />
  <line x1="58" y1="236" x2="848" y2="236"
           stroke="#e1e4e8" stroke-width="1" stroke-dasharray="4,3" />
  <!-- bars (Added, right axis) -->
  <rect x="59" y="134" width="30" height="106"
          rx="1" fill="#22c55eb3" />
  <rect x="91" y="93" width="30" height="147"
          rx="1" fill="#22c55eb3" />
  <rect x="123" y="95" width="30" height="145"
          rx="1" fill="#22c55eb3" />
  <rect x="155" y="89" width="30" height="151"
          rx="1" fill="#22c55eb3" />
  <rect x="187" y="152" width="30" height="88"
          rx="1" fill="#22c55eb3" />
  <rect x="219" y="154" width="30" height="86"
          rx="1" fill="#22c55eb3" />
  <rect x="251" y="146" width="30" height="94"
          rx="1" fill="#22c55eb3" />
  <rect x="283" y="145" width="30" height="95"
          rx="1" fill="#22c55eb3" />
  <rect x="315" y="136" width="30" height="104"
          rx="1" fill="#22c55eb3" />
  <rect x="347" y="149" width="30" height="91"
          rx="1" fill="#22c55eb3" />
  <rect x="379" y="144" width="30" height="96"
          rx="1" fill="#22c55eb3" />
  <rect x="411" y="156" width="30" height="84"
          rx="1" fill="#22c55eb3" />
  <rect x="443" y="164" width="30" height="76"
          rx="1" fill="#22c55eb3" />
  <rect x="475" y="164" width="30" height="76"
          rx="1" fill="#22c55eb3" />
  <rect x="507" y="133" width="30" height="107"
          rx="1" fill="#22c55eb3" />
  <rect x="539" y="138" width="30" height="102"
          rx="1" fill="#22c55eb3" />
  <rect x="571" y="147" width="30" height="93"
          rx="1" fill="#22c55eb3" />
  <rect x="603" y="134" width="30" height="106"
          rx="1" fill="#22c55eb3" />
  <rect x="635" y="90" width="30" height="150"
          rx="1" fill="#22c55eb3" />
  <rect x="667" y="85" width="30" height="155"
          rx="1" fill="#22c55eb3" />
  <rect x="699" y="73" width="30" height="167"
          rx="1" fill="#22c55eb3" />
  <rect x="731" y="90" width="30" height="150"
          rx="1" fill="#22c55eb3" />
  <rect x="763" y="73" width="30" height="167"
          rx="1" fill="#22c55eb3" />
  <rect x="795" y="152" width="30" height="88"
          rx="1" fill="#22c55eb3" />
  <!-- line (Total, left axis) -->
  <polyline points="74,240 106,229 138,219 170,208 202,201 234,195 266,188 298,181 330,174 362,167 394,160 426,154 458,149 490,143 522,135 554,128 586,121 618,114 650,103 682,91 714,79 746,68 778,56 810,50" fill="none" stroke="#3b82f6" stroke-width="2" stroke-linejoin="round" stroke-linecap="round" />
  <!-- left y-axis labels (Total) -->
  <text x="52" y="56" text-anchor="end"
           font-family="-apple-system, BlinkMacSystemFont, &quot;Segoe UI&quot;, Helvetica, Arial, sans-serif" font-size="10" fill="#586069"
           >101M</text>
  <text x="52" y="149" text-anchor="end"
           font-family="-apple-system, BlinkMacSystemFont, &quot;Segoe UI&quot;, Helvetica, Arial, sans-serif" font-size="10" fill="#586069"
           >56M</text>
  <text x="52" y="240" text-anchor="end"
           font-family="-apple-system, BlinkMacSystemFont, &quot;Segoe UI&quot;, Helvetica, Arial, sans-serif" font-size="10" fill="#586069"
           >11M</text>
  <!-- right y-axis labels (Added) -->
  <text x="854" y="56" text-anchor="start"
           font-family="-apple-system, BlinkMacSystemFont, &quot;Segoe UI&quot;, Helvetica, Arial, sans-serif" font-size="10" fill="#22c55e"
           >6M</text>
  <text x="854" y="149" text-anchor="start"
           font-family="-apple-system, BlinkMacSystemFont, &quot;Segoe UI&quot;, Helvetica, Arial, sans-serif" font-size="10" fill="#22c55e"
           >3M</text>
  <text x="854" y="240" text-anchor="start"
           font-family="-apple-system, BlinkMacSystemFont, &quot;Segoe UI&quot;, Helvetica, Arial, sans-serif" font-size="10" fill="#22c55e"
           >0</text>
  <!-- axes -->
  <line x1="58" y1="50" x2="58" y2="240"
        stroke="#e1e4e8" stroke-width="1" />
  <line x1="58" y1="240" x2="848" y2="240"
        stroke="#e1e4e8" stroke-width="1" />
  <line x1="848" y1="50" x2="848" y2="240"
           stroke="#e1e4e8" stroke-width="1" />
  <!-- x-axis labels -->
  <text x="74" y="256" text-anchor="middle"
           font-family="-apple-system, BlinkMacSystemFont, &quot;Segoe UI&quot;, Helvetica, Arial, sans-serif" font-size="10" fill="#586069"
           >Oct 5</text>
  <text x="298" y="256" text-anchor="middle"
           font-family="-apple-system, BlinkMacSystemFont, &quot;Segoe UI&quot;, Helvetica, Arial, sans-serif" font-size="10" fill="#586069"
           >Nov 23</text>
  <text x="522" y="256" text-anchor="middle"
           font-family="-apple-system, BlinkMacSystemFont, &quot;Segoe UI&quot;, Helvetica, Arial, sans-serif" font-size="10" fill="#586069"
           >Jan 11</text>
  <text x="746" y="256" text-anchor="middle"
           font-family="-apple-system, BlinkMacSystemFont, &quot;Segoe UI&quot;, Helvetica, Arial, sans-serif" font-size="10" fill="#586069"
           >Mar 1</text>
  <text x="810" y="256" text-anchor="middle"
           font-family="-apple-system, BlinkMacSystemFont, &quot;Segoe UI&quot;, Helvetica, Arial, sans-serif" font-size="10" fill="#586069"
           >Mar 15</text>
</svg>