<svg xmlns="http://www.w3.org/2000/svg" width="900" height="268" viewBox="0 0 900 268">
  <rect width="900" height="268" fill="#ffffff" rx="6" ry="6" />
  <!-- title -->
  <text x="450" y="20" text-anchor="middle"
        font-family="-apple-system, BlinkMacSystemFont, &quot;Segoe UI&quot;, Helvetica, Arial, sans-serif" font-size="14" font-weight="600" fill="#24292e"
        >Event Listings — Record Growth</text>
  <!-- legend -->
  <circle cx="365" cy="31" r="4" fill="#3b82f6" />
  <text x="373" y="34" font-family="-apple-system, BlinkMacSystemFont, &quot;Segoe UI&quot;, Helvetica, Arial, sans-serif" font-size="11" fill="#586069">Total Records</text>
  <circle cx="455" cy="31" r="4" fill="#22c55e" />
  <text x="463" y="34" font-family="-apple-system, BlinkMacSystemFont, &quot;Segoe UI&quot;, Helvetica, Arial, sans-serif" font-size="11" fill="#586069">Added</text>
  <!-- grid lines -->
  <line x1="58" y1="52" x2="848" y2="52"
           stroke="#e1e4e8" stroke-width="1" stroke-dasharray="4,3" />
  <line x1="58" y1="145" x2="848" y2="145"
           stroke="#e1e4e8" stroke-width="1" stroke-dasharray="4,3" />
  <line x1="58" y1="236" x2="848" y2="236"
           stroke="#e1e4e8" stroke-width="1" stroke-dasharray="4,3" />
  <!-- bars (Added, right axis) -->
  <rect x="59" y="145" width="32" height="95"
          rx="1" fill="#22c55eb3" />
  <rect x="93" y="137" width="32" height="103"
          rx="1" fill="#22c55eb3" />
  <rect x="127" y="137" width="32" height="103"
          rx="1" fill="#22c55eb3" />
  <rect x="161" y="127" width="32" height="113"
          rx="1" fill="#22c55eb3" />
  <rect x="195" y="141" width="32" height="99"
          rx="1" fill="#22c55eb3" />
  <rect x="229" y="136" width="32" height="104"
          rx="1" fill="#22c55eb3" />
  <rect x="263" y="149" width="32" height="91"
          rx="1" fill="#22c55eb3" />
  <rect x="297" y="157" width="32" height="83"
          rx="1" fill="#22c55eb3" />
  <rect x="331" y="157" width="32" height="83"
          rx="1" fill="#22c55eb3" />
  <rect x="365" y="125" width="32" height="115"
          rx="1" fill="#22c55eb3" />
  <rect x="399" y="130" width="32" height="110"
          rx="1" fill="#22c55eb3" />
  <rect x="433" y="137" width="32" height="103"
          rx="1" fill="#22c55eb3" />
  <rect x="467" y="130" width="32" height="110"
          rx="1" fill="#22c55eb3" />
  <rect x="501" y="85" width="32" height="155"
          rx="1" fill="#22c55eb3" />
  <rect x="535" y="84" width="32" height="156"
          rx="1" fill="#22c55eb3" />
  <rect x="569" y="78" width="32" height="162"
          rx="1" fill="#22c55eb3" />
  <rect x="603" y="87" width="32" height="153"
          rx="1" fill="#22c55eb3" />
  <rect x="637" y="75" width="32" height="165"
          rx="1" fill="#22c55eb3" />
  <rect x="671" y="73" width="32" height="167"
          rx="1" fill="#22c55eb3" />
  <rect x="705" y="79" width="32" height="161"
          rx="1" fill="#22c55eb3" />
  <rect x="739" y="99" width="32" height="141"
          rx="1" fill="#22c55eb3" />
  <rect x="773" y="123" width="32" height="117"
          rx="1" fill="#22c55eb3" />
  <rect x="807" y="227" width="32" height="13"
          rx="1" fill="#22c55eb3" />
  <!-- line (Total, left axis) -->
  <polyline points="75,240 109,233 143,225 177,217 211,210 245,202 279,195 313,189 347,183 381,175 415,167 449,159 483,151 517,140 551,129 585,117 619,106 653,94 687,82 721,70 755,60 789,51 823,50" fill="none" stroke="#3b82f6" stroke-width="2" stroke-linejoin="round" stroke-linecap="round" />
  <!-- left y-axis labels (Total) -->
  <text x="52" y="56" text-anchor="end"
           font-family="-apple-system, BlinkMacSystemFont, &quot;Segoe UI&quot;, Helvetica, Arial, sans-serif" font-size="10" fill="#586069"
           >114M</text>
  <text x="52" y="149" text-anchor="end"
           font-family="-apple-system, BlinkMacSystemFont, &quot;Segoe UI&quot;, Helvetica, Arial, sans-serif" font-size="10" fill="#586069"
           >73M</text>
  <text x="52" y="240" text-anchor="end"
           font-family="-apple-system, BlinkMacSystemFont, &quot;Segoe UI&quot;, Helvetica, Arial, sans-serif" font-size="10" fill="#586069"
           >32M</text>
  <!-- right y-axis labels (Added) -->
  <text x="854" y="56" text-anchor="start"
           font-family="-apple-system, BlinkMacSystemFont, &quot;Segoe UI&quot;, Helvetica, Arial, sans-serif" font-size="10" fill="#22c55e"
           >5M</text>
  <text x="854" y="149" text-anchor="start"
           font-family="-apple-system, BlinkMacSystemFont, &quot;Segoe UI&quot;, Helvetica, Arial, sans-serif" font-size="10" fill="#22c55e"
           >3M</text>
  <text x="854" y="240" text-anchor="start"
           font-family="-apple-system, BlinkMacSystemFont, &quot;Segoe UI&quot;, Helvetica, Arial, sans-serif" font-size="10" fill="#22c55e"
           >0</text>
  <!-- axes -->
  <line x1="58" y1="50" x2="58" y2="240"
        stroke="#e1e4e8" stroke-width="1" />
  <line x1="58" y1="240" x2="848" y2="240"
        stroke="#e1e4e8" stroke-width="1" />
  <line x1="848" y1="50" x2="848" y2="240"
           stroke="#e1e4e8" stroke-width="1" />
  <!-- x-axis labels -->
  <text x="75" y="256" text-anchor="middle"
           font-family="-apple-system, BlinkMacSystemFont, &quot;Segoe UI&quot;, Helvetica, Arial, sans-serif" font-size="10" fill="#586069"
           >Nov 9</text>
  <text x="313" y="256" text-anchor="middle"
           font-family="-apple-system, BlinkMacSystemFont, &quot;Segoe UI&quot;, Helvetica, Arial, sans-serif" font-size="10" fill="#586069"
           >Dec 28</text>
  <text x="551" y="256" text-anchor="middle"
           font-family="-apple-system, BlinkMacSystemFont, &quot;Segoe UI&quot;, Helvetica, Arial, sans-serif" font-size="10" fill="#586069"
           >Feb 15</text>
  <text x="789" y="256" text-anchor="middle"
           font-family="-apple-system, BlinkMacSystemFont, &quot;Segoe UI&quot;, Helvetica, Arial, sans-serif" font-size="10" fill="#586069"
           >Apr 5</text>
  <text x="823" y="256" text-anchor="middle"
           font-family="-apple-system, BlinkMacSystemFont, &quot;Segoe UI&quot;, Helvetica, Arial, sans-serif" font-size="10" fill="#586069"
           >Apr 12</text>
</svg>