<svg xmlns="http://www.w3.org/2000/svg" width="900" height="268" viewBox="0 0 900 268">
  <rect width="900" height="268" fill="#ffffff" rx="6" ry="6" />
  <!-- title -->
  <text x="450" y="20" text-anchor="middle"
        font-family="-apple-system, BlinkMacSystemFont, &quot;Segoe UI&quot;, Helvetica, Arial, sans-serif" font-size="14" font-weight="600" fill="#24292e"
        >Event Listings — Record Growth</text>
  <!-- legend -->
  <circle cx="365" cy="31" r="4" fill="#3b82f6" />
  <text x="373" y="34" font-family="-apple-system, BlinkMacSystemFont, &quot;Segoe UI&quot;, Helvetica, Arial, sans-serif" font-size="11" fill="#586069">Total Records</text>
  <circle cx="455" cy="31" r="4" fill="#22c55e" />
  <text x="463" y="34" font-family="-apple-system, BlinkMacSystemFont, &quot;Segoe UI&quot;, Helvetica, Arial, sans-serif" font-size="11" fill="#586069">Added</text>
  <!-- grid lines -->
  <line x1="58" y1="52" x2="848" y2="52"
           stroke="#e1e4e8" stroke-width="1" stroke-dasharray="4,3" />
  <line x1="58" y1="145" x2="848" y2="145"
           stroke="#e1e4e8" stroke-width="1" stroke-dasharray="4,3" />
  <line x1="58" y1="236" x2="848" y2="236"
           stroke="#e1e4e8" stroke-width="1" stroke-dasharray="4,3" />
  <!-- bars (Added, right axis) -->
  <rect x="60" y="214" width="29" height="26"
          rx="1" fill="#22c55eb3" />
  <rect x="91" y="178" width="29" height="62"
          rx="1" fill="#22c55eb3" />
  <rect x="122" y="123" width="29" height="117"
          rx="1" fill="#22c55eb3" />
  <rect x="153" y="77" width="29" height="163"
          rx="1" fill="#22c55eb3" />
  <rect x="184" y="80" width="29" height="160"
          rx="1" fill="#22c55eb3" />
  <rect x="215" y="73" width="29" height="167"
          rx="1" fill="#22c55eb3" />
  <rect x="246" y="143" width="29" height="97"
          rx="1" fill="#22c55eb3" />
  <rect x="277" y="145" width="29" height="95"
          rx="1" fill="#22c55eb3" />
  <rect x="308" y="139" width="29" height="101"
          rx="1" fill="#22c55eb3" />
  <rect x="339" y="137" width="29" height="103"
          rx="1" fill="#22c55eb3" />
  <rect x="370" y="127" width="29" height="113"
          rx="1" fill="#22c55eb3" />
  <rect x="401" y="142" width="29" height="98"
          rx="1" fill="#22c55eb3" />
  <rect x="432" y="137" width="29" height="103"
          rx="1" fill="#22c55eb3" />
  <rect x="463" y="148" width="29" height="92"
          rx="1" fill="#22c55eb3" />
  <rect x="494" y="157" width="29" height="83"
          rx="1" fill="#22c55eb3" />
  <rect x="525" y="157" width="29" height="83"
          rx="1" fill="#22c55eb3" />
  <rect x="556" y="126" width="29" height="114"
          rx="1" fill="#22c55eb3" />
  <rect x="587" y="132" width="29" height="108"
          rx="1" fill="#22c55eb3" />
  <rect x="618" y="143" width="29" height="97"
          rx="1" fill="#22c55eb3" />
  <rect x="649" y="132" width="29" height="108"
          rx="1" fill="#22c55eb3" />
  <rect x="680" y="86" width="29" height="154"
          rx="1" fill="#22c55eb3" />
  <rect x="711" y="85" width="29" height="155"
          rx="1" fill="#22c55eb3" />
  <rect x="742" y="73" width="29" height="167"
          rx="1" fill="#22c55eb3" />
  <rect x="773" y="81" width="29" height="159"
          rx="1" fill="#22c55eb3" />
  <rect x="804" y="100" width="29" height="140"
          rx="1" fill="#22c55eb3" />
  <!-- line (Total, left axis) -->
  <polyline points="74,240 105,236 136,228 167,217 198,206 229,195 260,189 291,182 322,176 353,169 384,161 415,155 446,148 477,142 508,136 539,130 570,123 601,116 632,109 663,102 694,92 725,81 756,70 787,59 818,50" fill="none" stroke="#3b82f6" stroke-width="2" stroke-linejoin="round" stroke-linecap="round" />
  <!-- left y-axis labels (Total) -->
  <text x="52" y="56" text-anchor="end"
           font-family="-apple-system, BlinkMacSystemFont, &quot;Segoe UI&quot;, Helvetica, Arial, sans-serif" font-size="10" fill="#586069"
           >94M</text>
  <text x="52" y="149" text-anchor="end"
           font-family="-apple-system, BlinkMacSystemFont, &quot;Segoe UI&quot;, Helvetica, Arial, sans-serif" font-size="10" fill="#586069"
           >50M</text>
  <text x="52" y="240" text-anchor="end"
           font-family="-apple-system, BlinkMacSystemFont, &quot;Segoe UI&quot;, Helvetica, Arial, sans-serif" font-size="10" fill="#586069"
           >5M</text>
  <!-- right y-axis labels (Added) -->
  <text x="854" y="56" text-anchor="start"
           font-family="-apple-system, BlinkMacSystemFont, &quot;Segoe UI&quot;, Helvetica, Arial, sans-serif" font-size="10" fill="#22c55e"
           >5M</text>
  <text x="854" y="149" text-anchor="start"
           font-family="-apple-system, BlinkMacSystemFont, &quot;Segoe UI&quot;, Helvetica, Arial, sans-serif" font-size="10" fill="#22c55e"
           >3M</text>
  <text x="854" y="240" text-anchor="start"
           font-family="-apple-system, BlinkMacSystemFont, &quot;Segoe UI&quot;, Helvetica, Arial, sans-serif" font-size="10" fill="#22c55e"
           >0</text>
  <!-- axes -->
  <line x1="58" y1="50" x2="58" y2="240"
        stroke="#e1e4e8" stroke-width="1" />
  <line x1="58" y1="240" x2="848" y2="240"
        stroke="#e1e4e8" stroke-width="1" />
  <line x1="848" y1="50" x2="848" y2="240"
           stroke="#e1e4e8" stroke-width="1" />
  <!-- x-axis labels -->
  <text x="74" y="256" text-anchor="middle"
           font-family="-apple-system, BlinkMacSystemFont, &quot;Segoe UI&quot;, Helvetica, Arial, sans-serif" font-size="10" fill="#586069"
           >Sep 21</text>
  <text x="322" y="256" text-anchor="middle"
           font-family="-apple-system, BlinkMacSystemFont, &quot;Segoe UI&quot;, Helvetica, Arial, sans-serif" font-size="10" fill="#586069"
           >Nov 16</text>
  <text x="570" y="256" text-anchor="middle"
           font-family="-apple-system, BlinkMacSystemFont, &quot;Segoe UI&quot;, Helvetica, Arial, sans-serif" font-size="10" fill="#586069"
           >Jan 11</text>
  <text x="818" y="256" text-anchor="middle"
           font-family="-apple-system, BlinkMacSystemFont, &quot;Segoe UI&quot;, Helvetica, Arial, sans-serif" font-size="10" fill="#586069"
           >Mar 8</text>
</svg>