<svg xmlns="http://www.w3.org/2000/svg" width="900" height="268" viewBox="0 0 900 268">
  <rect width="900" height="268" fill="#ffffff" rx="6" ry="6" />
  <!-- title -->
  <text x="450" y="20" text-anchor="middle"
        font-family="-apple-system, BlinkMacSystemFont, &quot;Segoe UI&quot;, Helvetica, Arial, sans-serif" font-size="14" font-weight="600" fill="#24292e"
        >Event Listings — Record Growth</text>
  <!-- legend -->
  <circle cx="365" cy="31" r="4" fill="#3b82f6" />
  <text x="373" y="34" font-family="-apple-system, BlinkMacSystemFont, &quot;Segoe UI&quot;, Helvetica, Arial, sans-serif" font-size="11" fill="#586069">Total Records</text>
  <circle cx="455" cy="31" r="4" fill="#22c55e" />
  <text x="463" y="34" font-family="-apple-system, BlinkMacSystemFont, &quot;Segoe UI&quot;, Helvetica, Arial, sans-serif" font-size="11" fill="#586069">Added</text>
  <!-- grid lines -->
  <line x1="58" y1="52" x2="848" y2="52"
           stroke="#e1e4e8" stroke-width="1" stroke-dasharray="4,3" />
  <line x1="58" y1="145" x2="848" y2="145"
           stroke="#e1e4e8" stroke-width="1" stroke-dasharray="4,3" />
  <line x1="58" y1="236" x2="848" y2="236"
           stroke="#e1e4e8" stroke-width="1" stroke-dasharray="4,3" />
  <!-- bars (Added, right axis) -->
  <rect x="60" y="131" width="29" height="109"
          rx="1" fill="#22c55eb3" />
  <rect x="91" y="144" width="29" height="96"
          rx="1" fill="#22c55eb3" />
  <rect x="122" y="152" width="29" height="88"
          rx="1" fill="#22c55eb3" />
  <rect x="153" y="153" width="29" height="87"
          rx="1" fill="#22c55eb3" />
  <rect x="184" y="121" width="29" height="119"
          rx="1" fill="#22c55eb3" />
  <rect x="215" y="126" width="29" height="114"
          rx="1" fill="#22c55eb3" />
  <rect x="246" y="133" width="29" height="107"
          rx="1" fill="#22c55eb3" />
  <rect x="277" y="127" width="29" height="113"
          rx="1" fill="#22c55eb3" />
  <rect x="308" y="80" width="29" height="160"
          rx="1" fill="#22c55eb3" />
  <rect x="339" y="79" width="29" height="161"
          rx="1" fill="#22c55eb3" />
  <rect x="370" y="73" width="29" height="167"
          rx="1" fill="#22c55eb3" />
  <rect x="401" y="84" width="29" height="156"
          rx="1" fill="#22c55eb3" />
  <rect x="432" y="74" width="29" height="166"
          rx="1" fill="#22c55eb3" />
  <rect x="463" y="77" width="29" height="163"
          rx="1" fill="#22c55eb3" />
  <rect x="494" y="86" width="29" height="154"
          rx="1" fill="#22c55eb3" />
  <rect x="525" y="112" width="29" height="128"
          rx="1" fill="#22c55eb3" />
  <rect x="556" y="114" width="29" height="126"
          rx="1" fill="#22c55eb3" />
  <rect x="587" y="154" width="29" height="86"
          rx="1" fill="#22c55eb3" />
  <rect x="618" y="196" width="29" height="44"
          rx="1" fill="#22c55eb3" />
  <rect x="649" y="204" width="29" height="36"
          rx="1" fill="#22c55eb3" />
  <rect x="680" y="210" width="29" height="30"
          rx="1" fill="#22c55eb3" />
  <rect x="711" y="213" width="29" height="27"
          rx="1" fill="#22c55eb3" />
  <rect x="742" y="226" width="29" height="14"
          rx="1" fill="#22c55eb3" />
  <rect x="773" y="217" width="29" height="23"
          rx="1" fill="#22c55eb3" />
  <rect x="804" y="213" width="29" height="27"
          rx="1" fill="#22c55eb3" />
  <!-- line (Total, left axis) -->
  <polyline points="74,240 105,232 136,225 167,219 198,209 229,200 260,191 291,182 322,170 353,157 384,144 415,131 446,118 477,105 508,93 539,83 570,73 601,66 632,63 663,60 694,57 725,55 756,54 787,52 818,50" fill="none" stroke="#3b82f6" stroke-width="2" stroke-linejoin="round" stroke-linecap="round" />
  <!-- left y-axis labels (Total) -->
  <text x="52" y="56" text-anchor="end"
           font-family="-apple-system, BlinkMacSystemFont, &quot;Segoe UI&quot;, Helvetica, Arial, sans-serif" font-size="10" fill="#586069"
           >119M</text>
  <text x="52" y="149" text-anchor="end"
           font-family="-apple-system, BlinkMacSystemFont, &quot;Segoe UI&quot;, Helvetica, Arial, sans-serif" font-size="10" fill="#586069"
           >84M</text>
  <text x="52" y="240" text-anchor="end"
           font-family="-apple-system, BlinkMacSystemFont, &quot;Segoe UI&quot;, Helvetica, Arial, sans-serif" font-size="10" fill="#586069"
           >48M</text>
  <!-- right y-axis labels (Added) -->
  <text x="854" y="56" text-anchor="start"
           font-family="-apple-system, BlinkMacSystemFont, &quot;Segoe UI&quot;, Helvetica, Arial, sans-serif" font-size="10" fill="#22c55e"
           >5M</text>
  <text x="854" y="149" text-anchor="start"
           font-family="-apple-system, BlinkMacSystemFont, &quot;Segoe UI&quot;, Helvetica, Arial, sans-serif" font-size="10" fill="#22c55e"
           >2M</text>
  <text x="854" y="240" text-anchor="start"
           font-family="-apple-system, BlinkMacSystemFont, &quot;Segoe UI&quot;, Helvetica, Arial, sans-serif" font-size="10" fill="#22c55e"
           >0</text>
  <!-- axes -->
  <line x1="58" y1="50" x2="58" y2="240"
        stroke="#e1e4e8" stroke-width="1" />
  <line x1="58" y1="240" x2="848" y2="240"
        stroke="#e1e4e8" stroke-width="1" />
  <line x1="848" y1="50" x2="848" y2="240"
           stroke="#e1e4e8" stroke-width="1" />
  <!-- x-axis labels -->
  <text x="74" y="256" text-anchor="middle"
           font-family="-apple-system, BlinkMacSystemFont, &quot;Segoe UI&quot;, Helvetica, Arial, sans-serif" font-size="10" fill="#586069"
           >Dec 14</text>
  <text x="322" y="256" text-anchor="middle"
           font-family="-apple-system, BlinkMacSystemFont, &quot;Segoe UI&quot;, Helvetica, Arial, sans-serif" font-size="10" fill="#586069"
           >Feb 8</text>
  <text x="570" y="256" text-anchor="middle"
           font-family="-apple-system, BlinkMacSystemFont, &quot;Segoe UI&quot;, Helvetica, Arial, sans-serif" font-size="10" fill="#586069"
           >Apr 5</text>
  <text x="818" y="256" text-anchor="middle"
           font-family="-apple-system, BlinkMacSystemFont, &quot;Segoe UI&quot;, Helvetica, Arial, sans-serif" font-size="10" fill="#586069"
           >May 31</text>
</svg>