<svg xmlns="http://www.w3.org/2000/svg" width="900" height="268" viewBox="0 0 900 268">
  <rect width="900" height="268" fill="#ffffff" rx="6" ry="6" />
  <!-- title -->
  <text x="450" y="20" text-anchor="middle"
        font-family="-apple-system, BlinkMacSystemFont, &quot;Segoe UI&quot;, Helvetica, Arial, sans-serif" font-size="14" font-weight="600" fill="#24292e"
        >Event Listings — Record Growth</text>
  <!-- legend -->
  <circle cx="365" cy="31" r="4" fill="#3b82f6" />
  <text x="373" y="34" font-family="-apple-system, BlinkMacSystemFont, &quot;Segoe UI&quot;, Helvetica, Arial, sans-serif" font-size="11" fill="#586069">Total Records</text>
  <circle cx="455" cy="31" r="4" fill="#22c55e" />
  <text x="463" y="34" font-family="-apple-system, BlinkMacSystemFont, &quot;Segoe UI&quot;, Helvetica, Arial, sans-serif" font-size="11" fill="#586069">Added</text>
  <!-- grid lines -->
  <line x1="58" y1="52" x2="848" y2="52"
           stroke="#e1e4e8" stroke-width="1" stroke-dasharray="4,3" />
  <line x1="58" y1="145" x2="848" y2="145"
           stroke="#e1e4e8" stroke-width="1" stroke-dasharray="4,3" />
  <line x1="58" y1="236" x2="848" y2="236"
           stroke="#e1e4e8" stroke-width="1" stroke-dasharray="4,3" />
  <!-- bars (Added, right axis) -->
  <rect x="59" y="73" width="28" height="167"
          rx="1" fill="#22c55eb3" />
  <rect x="89" y="76" width="28" height="164"
          rx="1" fill="#22c55eb3" />
  <rect x="119" y="85" width="28" height="155"
          rx="1" fill="#22c55eb3" />
  <rect x="149" y="112" width="28" height="128"
          rx="1" fill="#22c55eb3" />
  <rect x="179" y="115" width="28" height="125"
          rx="1" fill="#22c55eb3" />
  <rect x="209" y="155" width="28" height="85"
          rx="1" fill="#22c55eb3" />
  <rect x="239" y="198" width="28" height="42"
          rx="1" fill="#22c55eb3" />
  <rect x="269" y="205" width="28" height="35"
          rx="1" fill="#22c55eb3" />
  <rect x="299" y="209" width="28" height="31"
          rx="1" fill="#22c55eb3" />
  <rect x="329" y="203" width="28" height="37"
          rx="1" fill="#22c55eb3" />
  <rect x="359" y="221" width="28" height="19"
          rx="1" fill="#22c55eb3" />
  <rect x="389" y="212" width="28" height="28"
          rx="1" fill="#22c55eb3" />
  <rect x="419" y="205" width="28" height="35"
          rx="1" fill="#22c55eb3" />
  <rect x="449" y="204" width="28" height="36"
          rx="1" fill="#22c55eb3" />
  <rect x="479" y="212" width="28" height="28"
          rx="1" fill="#22c55eb3" />
  <rect x="509" y="202" width="28" height="38"
          rx="1" fill="#22c55eb3" />
  <rect x="539" y="217" width="28" height="23"
          rx="1" fill="#22c55eb3" />
  <rect x="569" y="211" width="28" height="29"
          rx="1" fill="#22c55eb3" />
  <rect x="599" y="182" width="28" height="58"
          rx="1" fill="#22c55eb3" />
  <rect x="629" y="187" width="28" height="53"
          rx="1" fill="#22c55eb3" />
  <rect x="659" y="206" width="28" height="34"
          rx="1" fill="#22c55eb3" />
  <rect x="689" y="205" width="28" height="35"
          rx="1" fill="#22c55eb3" />
  <rect x="719" y="165" width="28" height="75"
          rx="1" fill="#22c55eb3" />
  <rect x="749" y="175" width="28" height="65"
          rx="1" fill="#22c55eb3" />
  <rect x="779" y="182" width="28" height="58"
          rx="1" fill="#22c55eb3" />
  <rect x="809" y="217" width="28" height="23"
          rx="1" fill="#22c55eb3" />
  <!-- line (Total, left axis) -->
  <polyline points="73,240 103,218 133,198 163,181 193,164 223,153 253,148 283,143 313,139 343,134 373,131 403,128 433,123 463,119 493,115 523,110 553,107 583,103 613,95 643,88 673,84 703,79 733,69 763,61 793,53 823,50" fill="none" stroke="#3b82f6" stroke-width="2" stroke-linejoin="round" stroke-linecap="round" />
  <!-- left y-axis labels (Total) -->
  <text x="52" y="56" text-anchor="end"
           font-family="-apple-system, BlinkMacSystemFont, &quot;Segoe UI&quot;, Helvetica, Arial, sans-serif" font-size="10" fill="#586069"
           >136M</text>
  <text x="52" y="149" text-anchor="end"
           font-family="-apple-system, BlinkMacSystemFont, &quot;Segoe UI&quot;, Helvetica, Arial, sans-serif" font-size="10" fill="#586069"
           >115M</text>
  <text x="52" y="240" text-anchor="end"
           font-family="-apple-system, BlinkMacSystemFont, &quot;Segoe UI&quot;, Helvetica, Arial, sans-serif" font-size="10" fill="#586069"
           >93M</text>
  <!-- right y-axis labels (Added) -->
  <text x="854" y="56" text-anchor="start"
           font-family="-apple-system, BlinkMacSystemFont, &quot;Segoe UI&quot;, Helvetica, Arial, sans-serif" font-size="10" fill="#22c55e"
           >5M</text>
  <text x="854" y="149" text-anchor="start"
           font-family="-apple-system, BlinkMacSystemFont, &quot;Segoe UI&quot;, Helvetica, Arial, sans-serif" font-size="10" fill="#22c55e"
           >2M</text>
  <text x="854" y="240" text-anchor="start"
           font-family="-apple-system, BlinkMacSystemFont, &quot;Segoe UI&quot;, Helvetica, Arial, sans-serif" font-size="10" fill="#22c55e"
           >0</text>
  <!-- axes -->
  <line x1="58" y1="50" x2="58" y2="240"
        stroke="#e1e4e8" stroke-width="1" />
  <line x1="58" y1="240" x2="848" y2="240"
        stroke="#e1e4e8" stroke-width="1" />
  <line x1="848" y1="50" x2="848" y2="240"
           stroke="#e1e4e8" stroke-width="1" />
  <!-- x-axis labels -->
  <text x="73" y="256" text-anchor="middle"
           font-family="-apple-system, BlinkMacSystemFont, &quot;Segoe UI&quot;, Helvetica, Arial, sans-serif" font-size="10" fill="#586069"
           >Mar 8</text>
  <text x="313" y="256" text-anchor="middle"
           font-family="-apple-system, BlinkMacSystemFont, &quot;Segoe UI&quot;, Helvetica, Arial, sans-serif" font-size="10" fill="#586069"
           >May 3</text>
  <text x="553" y="256" text-anchor="middle"
           font-family="-apple-system, BlinkMacSystemFont, &quot;Segoe UI&quot;, Helvetica, Arial, sans-serif" font-size="10" fill="#586069"
           >Jun 28</text>
  <text x="793" y="256" text-anchor="middle"
           font-family="-apple-system, BlinkMacSystemFont, &quot;Segoe UI&quot;, Helvetica, Arial, sans-serif" font-size="10" fill="#586069"
           >Aug 23</text>
  <text x="823" y="256" text-anchor="middle"
           font-family="-apple-system, BlinkMacSystemFont, &quot;Segoe UI&quot;, Helvetica, Arial, sans-serif" font-size="10" fill="#586069"
           >Aug 30</text>
</svg>