<svg xmlns="http://www.w3.org/2000/svg" width="900" height="268" viewBox="0 0 900 268">
  <rect width="900" height="268" fill="#ffffff" rx="6" ry="6" />
  <!-- title -->
  <text x="450" y="20" text-anchor="middle"
        font-family="-apple-system, BlinkMacSystemFont, &quot;Segoe UI&quot;, Helvetica, Arial, sans-serif" font-size="14" font-weight="600" fill="#24292e"
        >Event Listings — Record Growth</text>
  <!-- legend -->
  <circle cx="365" cy="31" r="4" fill="#3b82f6" />
  <text x="373" y="34" font-family="-apple-system, BlinkMacSystemFont, &quot;Segoe UI&quot;, Helvetica, Arial, sans-serif" font-size="11" fill="#586069">Total Records</text>
  <circle cx="455" cy="31" r="4" fill="#22c55e" />
  <text x="463" y="34" font-family="-apple-system, BlinkMacSystemFont, &quot;Segoe UI&quot;, Helvetica, Arial, sans-serif" font-size="11" fill="#586069">Added</text>
  <!-- grid lines -->
  <line x1="58" y1="52" x2="848" y2="52"
           stroke="#e1e4e8" stroke-width="1" stroke-dasharray="4,3" />
  <line x1="58" y1="145" x2="848" y2="145"
           stroke="#e1e4e8" stroke-width="1" stroke-dasharray="4,3" />
  <line x1="58" y1="236" x2="848" y2="236"
           stroke="#e1e4e8" stroke-width="1" stroke-dasharray="4,3" />
  <!-- bars (Added, right axis) -->
  <rect x="60" y="153" width="29" height="87"
          rx="1" fill="#22c55eb3" />
  <rect x="91" y="153" width="29" height="87"
          rx="1" fill="#22c55eb3" />
  <rect x="122" y="121" width="29" height="119"
          rx="1" fill="#22c55eb3" />
  <rect x="153" y="126" width="29" height="114"
          rx="1" fill="#22c55eb3" />
  <rect x="184" y="133" width="29" height="107"
          rx="1" fill="#22c55eb3" />
  <rect x="215" y="127" width="29" height="113"
          rx="1" fill="#22c55eb3" />
  <rect x="246" y="80" width="29" height="160"
          rx="1" fill="#22c55eb3" />
  <rect x="277" y="78" width="29" height="162"
          rx="1" fill="#22c55eb3" />
  <rect x="308" y="73" width="29" height="167"
          rx="1" fill="#22c55eb3" />
  <rect x="339" y="84" width="29" height="156"
          rx="1" fill="#22c55eb3" />
  <rect x="370" y="74" width="29" height="166"
          rx="1" fill="#22c55eb3" />
  <rect x="401" y="78" width="29" height="162"
          rx="1" fill="#22c55eb3" />
  <rect x="432" y="87" width="29" height="153"
          rx="1" fill="#22c55eb3" />
  <rect x="463" y="114" width="29" height="126"
          rx="1" fill="#22c55eb3" />
  <rect x="494" y="116" width="29" height="124"
          rx="1" fill="#22c55eb3" />
  <rect x="525" y="156" width="29" height="84"
          rx="1" fill="#22c55eb3" />
  <rect x="556" y="199" width="29" height="41"
          rx="1" fill="#22c55eb3" />
  <rect x="587" y="204" width="29" height="36"
          rx="1" fill="#22c55eb3" />
  <rect x="618" y="208" width="29" height="32"
          rx="1" fill="#22c55eb3" />
  <rect x="649" y="204" width="29" height="36"
          rx="1" fill="#22c55eb3" />
  <rect x="680" y="220" width="29" height="20"
          rx="1" fill="#22c55eb3" />
  <rect x="711" y="210" width="29" height="30"
          rx="1" fill="#22c55eb3" />
  <rect x="742" y="202" width="29" height="38"
          rx="1" fill="#22c55eb3" />
  <rect x="773" y="202" width="29" height="38"
          rx="1" fill="#22c55eb3" />
  <rect x="804" y="217" width="29" height="23"
          rx="1" fill="#22c55eb3" />
  <!-- line (Total, left axis) -->
  <polyline points="74,240 105,233 136,223 167,214 198,205 229,195 260,182 291,169 322,155 353,142 384,128 415,115 446,102 477,92 508,81 539,74 570,71 601,68 632,65 663,62 694,61 725,58 756,55 787,52 818,50" fill="none" stroke="#3b82f6" stroke-width="2" stroke-linejoin="round" stroke-linecap="round" />
  <!-- left y-axis labels (Total) -->
  <text x="52" y="56" text-anchor="end"
           font-family="-apple-system, BlinkMacSystemFont, &quot;Segoe UI&quot;, Helvetica, Arial, sans-serif" font-size="10" fill="#586069"
           >122M</text>
  <text x="52" y="149" text-anchor="end"
           font-family="-apple-system, BlinkMacSystemFont, &quot;Segoe UI&quot;, Helvetica, Arial, sans-serif" font-size="10" fill="#586069"
           >88M</text>
  <text x="52" y="240" text-anchor="end"
           font-family="-apple-system, BlinkMacSystemFont, &quot;Segoe UI&quot;, Helvetica, Arial, sans-serif" font-size="10" fill="#586069"
           >54M</text>
  <!-- right y-axis labels (Added) -->
  <text x="854" y="56" text-anchor="start"
           font-family="-apple-system, BlinkMacSystemFont, &quot;Segoe UI&quot;, Helvetica, Arial, sans-serif" font-size="10" fill="#22c55e"
           >5M</text>
  <text x="854" y="149" text-anchor="start"
           font-family="-apple-system, BlinkMacSystemFont, &quot;Segoe UI&quot;, Helvetica, Arial, sans-serif" font-size="10" fill="#22c55e"
           >2M</text>
  <text x="854" y="240" text-anchor="start"
           font-family="-apple-system, BlinkMacSystemFont, &quot;Segoe UI&quot;, Helvetica, Arial, sans-serif" font-size="10" fill="#22c55e"
           >0</text>
  <!-- axes -->
  <line x1="58" y1="50" x2="58" y2="240"
        stroke="#e1e4e8" stroke-width="1" />
  <line x1="58" y1="240" x2="848" y2="240"
        stroke="#e1e4e8" stroke-width="1" />
  <line x1="848" y1="50" x2="848" y2="240"
           stroke="#e1e4e8" stroke-width="1" />
  <!-- x-axis labels -->
  <text x="74" y="256" text-anchor="middle"
           font-family="-apple-system, BlinkMacSystemFont, &quot;Segoe UI&quot;, Helvetica, Arial, sans-serif" font-size="10" fill="#586069"
           >Dec 28</text>
  <text x="322" y="256" text-anchor="middle"
           font-family="-apple-system, BlinkMacSystemFont, &quot;Segoe UI&quot;, Helvetica, Arial, sans-serif" font-size="10" fill="#586069"
           >Feb 22</text>
  <text x="570" y="256" text-anchor="middle"
           font-family="-apple-system, BlinkMacSystemFont, &quot;Segoe UI&quot;, Helvetica, Arial, sans-serif" font-size="10" fill="#586069"
           >Apr 19</text>
  <text x="818" y="256" text-anchor="middle"
           font-family="-apple-system, BlinkMacSystemFont, &quot;Segoe UI&quot;, Helvetica, Arial, sans-serif" font-size="10" fill="#586069"
           >Jun 14</text>
</svg>