<svg xmlns="http://www.w3.org/2000/svg" width="900" height="268" viewBox="0 0 900 268">
  <rect width="900" height="268" fill="#ffffff" rx="6" ry="6" />
  <!-- title -->
  <text x="450" y="20" text-anchor="middle"
        font-family="-apple-system, BlinkMacSystemFont, &quot;Segoe UI&quot;, Helvetica, Arial, sans-serif" font-size="14" font-weight="600" fill="#24292e"
        >Event Listings — Record Growth</text>
  <!-- legend -->
  <circle cx="365" cy="31" r="4" fill="#3b82f6" />
  <text x="373" y="34" font-family="-apple-system, BlinkMacSystemFont, &quot;Segoe UI&quot;, Helvetica, Arial, sans-serif" font-size="11" fill="#586069">Total Records</text>
  <circle cx="455" cy="31" r="4" fill="#22c55e" />
  <text x="463" y="34" font-family="-apple-system, BlinkMacSystemFont, &quot;Segoe UI&quot;, Helvetica, Arial, sans-serif" font-size="11" fill="#586069">Added</text>
  <!-- grid lines -->
  <line x1="58" y1="52" x2="848" y2="52"
           stroke="#e1e4e8" stroke-width="1" stroke-dasharray="4,3" />
  <line x1="58" y1="145" x2="848" y2="145"
           stroke="#e1e4e8" stroke-width="1" stroke-dasharray="4,3" />
  <line x1="58" y1="236" x2="848" y2="236"
           stroke="#e1e4e8" stroke-width="1" stroke-dasharray="4,3" />
  <!-- bars (Added, right axis) -->
  <rect x="59" y="80" width="30" height="160"
          rx="1" fill="#22c55eb3" />
  <rect x="91" y="73" width="30" height="167"
          rx="1" fill="#22c55eb3" />
  <rect x="123" y="143" width="30" height="97"
          rx="1" fill="#22c55eb3" />
  <rect x="155" y="145" width="30" height="95"
          rx="1" fill="#22c55eb3" />
  <rect x="187" y="139" width="30" height="101"
          rx="1" fill="#22c55eb3" />
  <rect x="219" y="137" width="30" height="103"
          rx="1" fill="#22c55eb3" />
  <rect x="251" y="128" width="30" height="112"
          rx="1" fill="#22c55eb3" />
  <rect x="283" y="143" width="30" height="97"
          rx="1" fill="#22c55eb3" />
  <rect x="315" y="138" width="30" height="102"
          rx="1" fill="#22c55eb3" />
  <rect x="347" y="149" width="30" height="91"
          rx="1" fill="#22c55eb3" />
  <rect x="379" y="157" width="30" height="83"
          rx="1" fill="#22c55eb3" />
  <rect x="411" y="158" width="30" height="82"
          rx="1" fill="#22c55eb3" />
  <rect x="443" y="128" width="30" height="112"
          rx="1" fill="#22c55eb3" />
  <rect x="475" y="133" width="30" height="107"
          rx="1" fill="#22c55eb3" />
  <rect x="507" y="143" width="30" height="97"
          rx="1" fill="#22c55eb3" />
  <rect x="539" y="131" width="30" height="109"
          rx="1" fill="#22c55eb3" />
  <rect x="571" y="89" width="30" height="151"
          rx="1" fill="#22c55eb3" />
  <rect x="603" y="87" width="30" height="153"
          rx="1" fill="#22c55eb3" />
  <rect x="635" y="80" width="30" height="160"
          rx="1" fill="#22c55eb3" />
  <rect x="667" y="104" width="30" height="136"
          rx="1" fill="#22c55eb3" />
  <rect x="699" y="96" width="30" height="144"
          rx="1" fill="#22c55eb3" />
  <rect x="731" y="104" width="30" height="136"
          rx="1" fill="#22c55eb3" />
  <rect x="763" y="121" width="30" height="119"
          rx="1" fill="#22c55eb3" />
  <rect x="795" y="230" width="30" height="10"
          rx="1" fill="#22c55eb3" />
  <!-- line (Total, left axis) -->
  <polyline points="74,240 106,228 138,220 170,213 202,206 234,198 266,190 298,183 330,175 362,169 394,162 426,156 458,148 490,140 522,133 554,125 586,114 618,102 650,90 682,80 714,70 746,60 778,51 810,50" fill="none" stroke="#3b82f6" stroke-width="2" stroke-linejoin="round" stroke-linecap="round" />
  <!-- left y-axis labels (Total) -->
  <text x="52" y="56" text-anchor="end"
           font-family="-apple-system, BlinkMacSystemFont, &quot;Segoe UI&quot;, Helvetica, Arial, sans-serif" font-size="10" fill="#586069"
           >101M</text>
  <text x="52" y="149" text-anchor="end"
           font-family="-apple-system, BlinkMacSystemFont, &quot;Segoe UI&quot;, Helvetica, Arial, sans-serif" font-size="10" fill="#586069"
           >61M</text>
  <text x="52" y="240" text-anchor="end"
           font-family="-apple-system, BlinkMacSystemFont, &quot;Segoe UI&quot;, Helvetica, Arial, sans-serif" font-size="10" fill="#586069"
           >21M</text>
  <!-- right y-axis labels (Added) -->
  <text x="854" y="56" text-anchor="start"
           font-family="-apple-system, BlinkMacSystemFont, &quot;Segoe UI&quot;, Helvetica, Arial, sans-serif" font-size="10" fill="#22c55e"
           >5M</text>
  <text x="854" y="149" text-anchor="start"
           font-family="-apple-system, BlinkMacSystemFont, &quot;Segoe UI&quot;, Helvetica, Arial, sans-serif" font-size="10" fill="#22c55e"
           >3M</text>
  <text x="854" y="240" text-anchor="start"
           font-family="-apple-system, BlinkMacSystemFont, &quot;Segoe UI&quot;, Helvetica, Arial, sans-serif" font-size="10" fill="#22c55e"
           >0</text>
  <!-- axes -->
  <line x1="58" y1="50" x2="58" y2="240"
        stroke="#e1e4e8" stroke-width="1" />
  <line x1="58" y1="240" x2="848" y2="240"
        stroke="#e1e4e8" stroke-width="1" />
  <line x1="848" y1="50" x2="848" y2="240"
           stroke="#e1e4e8" stroke-width="1" />
  <!-- x-axis labels -->
  <text x="74" y="256" text-anchor="middle"
           font-family="-apple-system, BlinkMacSystemFont, &quot;Segoe UI&quot;, Helvetica, Arial, sans-serif" font-size="10" fill="#586069"
           >Oct 19</text>
  <text x="298" y="256" text-anchor="middle"
           font-family="-apple-system, BlinkMacSystemFont, &quot;Segoe UI&quot;, Helvetica, Arial, sans-serif" font-size="10" fill="#586069"
           >Dec 7</text>
  <text x="522" y="256" text-anchor="middle"
           font-family="-apple-system, BlinkMacSystemFont, &quot;Segoe UI&quot;, Helvetica, Arial, sans-serif" font-size="10" fill="#586069"
           >Jan 25</text>
  <text x="746" y="256" text-anchor="middle"
           font-family="-apple-system, BlinkMacSystemFont, &quot;Segoe UI&quot;, Helvetica, Arial, sans-serif" font-size="10" fill="#586069"
           >Mar 15</text>
  <text x="810" y="256" text-anchor="middle"
           font-family="-apple-system, BlinkMacSystemFont, &quot;Segoe UI&quot;, Helvetica, Arial, sans-serif" font-size="10" fill="#586069"
           >Mar 29</text>
</svg>