<svg xmlns="http://www.w3.org/2000/svg" width="900" height="268" viewBox="0 0 900 268">
  <rect width="900" height="268" fill="#ffffff" rx="6" ry="6" />
  <!-- title -->
  <text x="450" y="20" text-anchor="middle"
        font-family="-apple-system, BlinkMacSystemFont, &quot;Segoe UI&quot;, Helvetica, Arial, sans-serif" font-size="14" font-weight="600" fill="#24292e"
        >Event Listings — Record Growth</text>
  <!-- legend -->
  <circle cx="365" cy="31" r="4" fill="#3b82f6" />
  <text x="373" y="34" font-family="-apple-system, BlinkMacSystemFont, &quot;Segoe UI&quot;, Helvetica, Arial, sans-serif" font-size="11" fill="#586069">Total Records</text>
  <circle cx="455" cy="31" r="4" fill="#22c55e" />
  <text x="463" y="34" font-family="-apple-system, BlinkMacSystemFont, &quot;Segoe UI&quot;, Helvetica, Arial, sans-serif" font-size="11" fill="#586069">Added</text>
  <!-- grid lines -->
  <line x1="58" y1="52" x2="848" y2="52"
           stroke="#e1e4e8" stroke-width="1" stroke-dasharray="4,3" />
  <line x1="58" y1="145" x2="848" y2="145"
           stroke="#e1e4e8" stroke-width="1" stroke-dasharray="4,3" />
  <line x1="58" y1="236" x2="848" y2="236"
           stroke="#e1e4e8" stroke-width="1" stroke-dasharray="4,3" />
  <!-- bars (Added, right axis) -->
  <rect x="60" y="221" width="29" height="19"
          rx="1" fill="#22c55eb3" />
  <rect x="91" y="195" width="29" height="45"
          rx="1" fill="#22c55eb3" />
  <rect x="122" y="156" width="29" height="84"
          rx="1" fill="#22c55eb3" />
  <rect x="153" y="124" width="29" height="116"
          rx="1" fill="#22c55eb3" />
  <rect x="184" y="125" width="29" height="115"
          rx="1" fill="#22c55eb3" />
  <rect x="215" y="121" width="29" height="119"
          rx="1" fill="#22c55eb3" />
  <rect x="246" y="170" width="29" height="70"
          rx="1" fill="#22c55eb3" />
  <rect x="277" y="171" width="29" height="69"
          rx="1" fill="#22c55eb3" />
  <rect x="308" y="163" width="29" height="77"
          rx="1" fill="#22c55eb3" />
  <rect x="339" y="163" width="29" height="77"
          rx="1" fill="#22c55eb3" />
  <rect x="370" y="156" width="29" height="84"
          rx="1" fill="#22c55eb3" />
  <rect x="401" y="167" width="29" height="73"
          rx="1" fill="#22c55eb3" />
  <rect x="432" y="163" width="29" height="77"
          rx="1" fill="#22c55eb3" />
  <rect x="463" y="171" width="29" height="69"
          rx="1" fill="#22c55eb3" />
  <rect x="494" y="180" width="29" height="60"
          rx="1" fill="#22c55eb3" />
  <rect x="525" y="179" width="29" height="61"
          rx="1" fill="#22c55eb3" />
  <rect x="556" y="150" width="29" height="90"
          rx="1" fill="#22c55eb3" />
  <rect x="587" y="154" width="29" height="86"
          rx="1" fill="#22c55eb3" />
  <rect x="618" y="161" width="29" height="79"
          rx="1" fill="#22c55eb3" />
  <rect x="649" y="147" width="29" height="93"
          rx="1" fill="#22c55eb3" />
  <rect x="680" y="107" width="29" height="133"
          rx="1" fill="#22c55eb3" />
  <rect x="711" y="97" width="29" height="143"
          rx="1" fill="#22c55eb3" />
  <rect x="742" y="73" width="29" height="167"
          rx="1" fill="#22c55eb3" />
  <rect x="773" y="83" width="29" height="157"
          rx="1" fill="#22c55eb3" />
  <rect x="804" y="204" width="29" height="36"
          rx="1" fill="#22c55eb3" />
  <!-- line (Total, left axis) -->
  <polyline points="74,240 105,236 136,229 167,219 198,209 229,198 260,192 291,186 322,180 353,173 384,165 415,159 446,152 477,146 508,141 539,136 570,128 601,120 632,114 663,106 694,94 725,81 756,67 787,53 818,50" fill="none" stroke="#3b82f6" stroke-width="2" stroke-linejoin="round" stroke-linecap="round" />
  <!-- left y-axis labels (Total) -->
  <text x="52" y="56" text-anchor="end"
           font-family="-apple-system, BlinkMacSystemFont, &quot;Segoe UI&quot;, Helvetica, Arial, sans-serif" font-size="10" fill="#586069"
           >101M</text>
  <text x="52" y="149" text-anchor="end"
           font-family="-apple-system, BlinkMacSystemFont, &quot;Segoe UI&quot;, Helvetica, Arial, sans-serif" font-size="10" fill="#586069"
           >53M</text>
  <text x="52" y="240" text-anchor="end"
           font-family="-apple-system, BlinkMacSystemFont, &quot;Segoe UI&quot;, Helvetica, Arial, sans-serif" font-size="10" fill="#586069"
           >5M</text>
  <!-- right y-axis labels (Added) -->
  <text x="854" y="56" text-anchor="start"
           font-family="-apple-system, BlinkMacSystemFont, &quot;Segoe UI&quot;, Helvetica, Arial, sans-serif" font-size="10" fill="#22c55e"
           >7M</text>
  <text x="854" y="149" text-anchor="start"
           font-family="-apple-system, BlinkMacSystemFont, &quot;Segoe UI&quot;, Helvetica, Arial, sans-serif" font-size="10" fill="#22c55e"
           >4M</text>
  <text x="854" y="240" text-anchor="start"
           font-family="-apple-system, BlinkMacSystemFont, &quot;Segoe UI&quot;, Helvetica, Arial, sans-serif" font-size="10" fill="#22c55e"
           >0</text>
  <!-- axes -->
  <line x1="58" y1="50" x2="58" y2="240"
        stroke="#e1e4e8" stroke-width="1" />
  <line x1="58" y1="240" x2="848" y2="240"
        stroke="#e1e4e8" stroke-width="1" />
  <line x1="848" y1="50" x2="848" y2="240"
           stroke="#e1e4e8" stroke-width="1" />
  <!-- x-axis labels -->
  <text x="74" y="256" text-anchor="middle"
           font-family="-apple-system, BlinkMacSystemFont, &quot;Segoe UI&quot;, Helvetica, Arial, sans-serif" font-size="10" fill="#586069"
           >Sep 21</text>
  <text x="322" y="256" text-anchor="middle"
           font-family="-apple-system, BlinkMacSystemFont, &quot;Segoe UI&quot;, Helvetica, Arial, sans-serif" font-size="10" fill="#586069"
           >Nov 16</text>
  <text x="570" y="256" text-anchor="middle"
           font-family="-apple-system, BlinkMacSystemFont, &quot;Segoe UI&quot;, Helvetica, Arial, sans-serif" font-size="10" fill="#586069"
           >Jan 11</text>
  <text x="818" y="256" text-anchor="middle"
           font-family="-apple-system, BlinkMacSystemFont, &quot;Segoe UI&quot;, Helvetica, Arial, sans-serif" font-size="10" fill="#586069"
           >Mar 8</text>
</svg>