<svg xmlns="http://www.w3.org/2000/svg" width="900" height="268" viewBox="0 0 900 268">
  <rect width="900" height="268" fill="#ffffff" rx="6" ry="6" />
  <!-- title -->
  <text x="450" y="20" text-anchor="middle"
        font-family="-apple-system, BlinkMacSystemFont, &quot;Segoe UI&quot;, Helvetica, Arial, sans-serif" font-size="14" font-weight="600" fill="#24292e"
        >Event Listings — Record Growth</text>
  <!-- legend -->
  <circle cx="365" cy="31" r="4" fill="#3b82f6" />
  <text x="373" y="34" font-family="-apple-system, BlinkMacSystemFont, &quot;Segoe UI&quot;, Helvetica, Arial, sans-serif" font-size="11" fill="#586069">Total Records</text>
  <circle cx="455" cy="31" r="4" fill="#22c55e" />
  <text x="463" y="34" font-family="-apple-system, BlinkMacSystemFont, &quot;Segoe UI&quot;, Helvetica, Arial, sans-serif" font-size="11" fill="#586069">Added</text>
  <!-- grid lines -->
  <line x1="58" y1="52" x2="848" y2="52"
           stroke="#e1e4e8" stroke-width="1" stroke-dasharray="4,3" />
  <line x1="58" y1="145" x2="848" y2="145"
           stroke="#e1e4e8" stroke-width="1" stroke-dasharray="4,3" />
  <line x1="58" y1="236" x2="848" y2="236"
           stroke="#e1e4e8" stroke-width="1" stroke-dasharray="4,3" />
  <!-- bars (Added, right axis) -->
  <rect x="59" y="137" width="28" height="103"
          rx="1" fill="#22c55eb3" />
  <rect x="89" y="132" width="28" height="108"
          rx="1" fill="#22c55eb3" />
  <rect x="119" y="145" width="28" height="95"
          rx="1" fill="#22c55eb3" />
  <rect x="149" y="153" width="28" height="87"
          rx="1" fill="#22c55eb3" />
  <rect x="179" y="153" width="28" height="87"
          rx="1" fill="#22c55eb3" />
  <rect x="209" y="121" width="28" height="119"
          rx="1" fill="#22c55eb3" />
  <rect x="239" y="126" width="28" height="114"
          rx="1" fill="#22c55eb3" />
  <rect x="269" y="133" width="28" height="107"
          rx="1" fill="#22c55eb3" />
  <rect x="299" y="127" width="28" height="113"
          rx="1" fill="#22c55eb3" />
  <rect x="329" y="80" width="28" height="160"
          rx="1" fill="#22c55eb3" />
  <rect x="359" y="79" width="28" height="161"
          rx="1" fill="#22c55eb3" />
  <rect x="389" y="73" width="28" height="167"
          rx="1" fill="#22c55eb3" />
  <rect x="419" y="84" width="28" height="156"
          rx="1" fill="#22c55eb3" />
  <rect x="449" y="75" width="28" height="165"
          rx="1" fill="#22c55eb3" />
  <rect x="479" y="78" width="28" height="162"
          rx="1" fill="#22c55eb3" />
  <rect x="509" y="87" width="28" height="153"
          rx="1" fill="#22c55eb3" />
  <rect x="539" y="113" width="28" height="127"
          rx="1" fill="#22c55eb3" />
  <rect x="569" y="115" width="28" height="125"
          rx="1" fill="#22c55eb3" />
  <rect x="599" y="155" width="28" height="85"
          rx="1" fill="#22c55eb3" />
  <rect x="629" y="197" width="28" height="43"
          rx="1" fill="#22c55eb3" />
  <rect x="659" y="204" width="28" height="36"
          rx="1" fill="#22c55eb3" />
  <rect x="689" y="210" width="28" height="30"
          rx="1" fill="#22c55eb3" />
  <rect x="719" y="215" width="28" height="25"
          rx="1" fill="#22c55eb3" />
  <rect x="749" y="226" width="28" height="14"
          rx="1" fill="#22c55eb3" />
  <rect x="779" y="218" width="28" height="22"
          rx="1" fill="#22c55eb3" />
  <rect x="809" y="230" width="28" height="10"
          rx="1" fill="#22c55eb3" />
  <!-- line (Total, left axis) -->
  <polyline points="73,240 103,232 133,224 163,218 193,211 223,202 253,193 283,185 313,176 343,164 373,151 403,139 433,127 463,114 493,101 523,90 553,80 583,70 613,64 643,60 673,58 703,55 733,53 763,52 793,51 823,50" fill="none" stroke="#3b82f6" stroke-width="2" stroke-linejoin="round" stroke-linecap="round" />
  <!-- left y-axis labels (Total) -->
  <text x="52" y="56" text-anchor="end"
           font-family="-apple-system, BlinkMacSystemFont, &quot;Segoe UI&quot;, Helvetica, Arial, sans-serif" font-size="10" fill="#586069"
           >118M</text>
  <text x="52" y="149" text-anchor="end"
           font-family="-apple-system, BlinkMacSystemFont, &quot;Segoe UI&quot;, Helvetica, Arial, sans-serif" font-size="10" fill="#586069"
           >82M</text>
  <text x="52" y="240" text-anchor="end"
           font-family="-apple-system, BlinkMacSystemFont, &quot;Segoe UI&quot;, Helvetica, Arial, sans-serif" font-size="10" fill="#586069"
           >45M</text>
  <!-- right y-axis labels (Added) -->
  <text x="854" y="56" text-anchor="start"
           font-family="-apple-system, BlinkMacSystemFont, &quot;Segoe UI&quot;, Helvetica, Arial, sans-serif" font-size="10" fill="#22c55e"
           >5M</text>
  <text x="854" y="149" text-anchor="start"
           font-family="-apple-system, BlinkMacSystemFont, &quot;Segoe UI&quot;, Helvetica, Arial, sans-serif" font-size="10" fill="#22c55e"
           >2M</text>
  <text x="854" y="240" text-anchor="start"
           font-family="-apple-system, BlinkMacSystemFont, &quot;Segoe UI&quot;, Helvetica, Arial, sans-serif" font-size="10" fill="#22c55e"
           >0</text>
  <!-- axes -->
  <line x1="58" y1="50" x2="58" y2="240"
        stroke="#e1e4e8" stroke-width="1" />
  <line x1="58" y1="240" x2="848" y2="240"
        stroke="#e1e4e8" stroke-width="1" />
  <line x1="848" y1="50" x2="848" y2="240"
           stroke="#e1e4e8" stroke-width="1" />
  <!-- x-axis labels -->
  <text x="73" y="256" text-anchor="middle"
           font-family="-apple-system, BlinkMacSystemFont, &quot;Segoe UI&quot;, Helvetica, Arial, sans-serif" font-size="10" fill="#586069"
           >Dec 7</text>
  <text x="313" y="256" text-anchor="middle"
           font-family="-apple-system, BlinkMacSystemFont, &quot;Segoe UI&quot;, Helvetica, Arial, sans-serif" font-size="10" fill="#586069"
           >Feb 1</text>
  <text x="553" y="256" text-anchor="middle"
           font-family="-apple-system, BlinkMacSystemFont, &quot;Segoe UI&quot;, Helvetica, Arial, sans-serif" font-size="10" fill="#586069"
           >Mar 29</text>
  <text x="793" y="256" text-anchor="middle"
           font-family="-apple-system, BlinkMacSystemFont, &quot;Segoe UI&quot;, Helvetica, Arial, sans-serif" font-size="10" fill="#586069"
           >May 24</text>
  <text x="823" y="256" text-anchor="middle"
           font-family="-apple-system, BlinkMacSystemFont, &quot;Segoe UI&quot;, Helvetica, Arial, sans-serif" font-size="10" fill="#586069"
           >May 31</text>
</svg>