<svg xmlns="http://www.w3.org/2000/svg" width="900" height="268" viewBox="0 0 900 268">
  <rect width="900" height="268" fill="#ffffff" rx="6" ry="6" />
  <!-- title -->
  <text x="450" y="20" text-anchor="middle"
        font-family="-apple-system, BlinkMacSystemFont, &quot;Segoe UI&quot;, Helvetica, Arial, sans-serif" font-size="14" font-weight="600" fill="#24292e"
        >Event Listings — Record Growth</text>
  <!-- legend -->
  <circle cx="365" cy="31" r="4" fill="#3b82f6" />
  <text x="373" y="34" font-family="-apple-system, BlinkMacSystemFont, &quot;Segoe UI&quot;, Helvetica, Arial, sans-serif" font-size="11" fill="#586069">Total Records</text>
  <circle cx="455" cy="31" r="4" fill="#22c55e" />
  <text x="463" y="34" font-family="-apple-system, BlinkMacSystemFont, &quot;Segoe UI&quot;, Helvetica, Arial, sans-serif" font-size="11" fill="#586069">Added</text>
  <!-- grid lines -->
  <line x1="58" y1="52" x2="848" y2="52"
           stroke="#e1e4e8" stroke-width="1" stroke-dasharray="4,3" />
  <line x1="58" y1="145" x2="848" y2="145"
           stroke="#e1e4e8" stroke-width="1" stroke-dasharray="4,3" />
  <line x1="58" y1="236" x2="848" y2="236"
           stroke="#e1e4e8" stroke-width="1" stroke-dasharray="4,3" />
  <!-- bars (Added, right axis) -->
  <rect x="59" y="225" width="28" height="15"
          rx="1" fill="#22c55eb3" />
  <rect x="89" y="212" width="28" height="28"
          rx="1" fill="#22c55eb3" />
  <rect x="119" y="214" width="28" height="26"
          rx="1" fill="#22c55eb3" />
  <rect x="149" y="178" width="28" height="62"
          rx="1" fill="#22c55eb3" />
  <rect x="179" y="123" width="28" height="117"
          rx="1" fill="#22c55eb3" />
  <rect x="209" y="77" width="28" height="163"
          rx="1" fill="#22c55eb3" />
  <rect x="239" y="80" width="28" height="160"
          rx="1" fill="#22c55eb3" />
  <rect x="269" y="73" width="28" height="167"
          rx="1" fill="#22c55eb3" />
  <rect x="299" y="143" width="28" height="97"
          rx="1" fill="#22c55eb3" />
  <rect x="329" y="145" width="28" height="95"
          rx="1" fill="#22c55eb3" />
  <rect x="359" y="138" width="28" height="102"
          rx="1" fill="#22c55eb3" />
  <rect x="389" y="137" width="28" height="103"
          rx="1" fill="#22c55eb3" />
  <rect x="419" y="127" width="28" height="113"
          rx="1" fill="#22c55eb3" />
  <rect x="449" y="142" width="28" height="98"
          rx="1" fill="#22c55eb3" />
  <rect x="479" y="137" width="28" height="103"
          rx="1" fill="#22c55eb3" />
  <rect x="509" y="148" width="28" height="92"
          rx="1" fill="#22c55eb3" />
  <rect x="539" y="156" width="28" height="84"
          rx="1" fill="#22c55eb3" />
  <rect x="569" y="157" width="28" height="83"
          rx="1" fill="#22c55eb3" />
  <rect x="599" y="124" width="28" height="116"
          rx="1" fill="#22c55eb3" />
  <rect x="629" y="129" width="28" height="111"
          rx="1" fill="#22c55eb3" />
  <rect x="659" y="140" width="28" height="100"
          rx="1" fill="#22c55eb3" />
  <rect x="689" y="134" width="28" height="106"
          rx="1" fill="#22c55eb3" />
  <rect x="719" y="92" width="28" height="148"
          rx="1" fill="#22c55eb3" />
  <rect x="749" y="88" width="28" height="152"
          rx="1" fill="#22c55eb3" />
  <rect x="779" y="95" width="28" height="145"
          rx="1" fill="#22c55eb3" />
  <rect x="809" y="239" width="28" height="1"
          rx="1" fill="#22c55eb3" />
  <!-- line (Total, left axis) -->
  <polyline points="73,240 103,238 133,236 163,231 193,223 223,211 253,199 283,187 313,179 343,172 373,165 403,157 433,149 463,142 493,134 523,127 553,121 583,115 613,106 643,98 673,91 703,83 733,72 763,61 793,50 823,50" fill="none" stroke="#3b82f6" stroke-width="2" stroke-linejoin="round" stroke-linecap="round" />
  <!-- left y-axis labels (Total) -->
  <text x="52" y="56" text-anchor="end"
           font-family="-apple-system, BlinkMacSystemFont, &quot;Segoe UI&quot;, Helvetica, Arial, sans-serif" font-size="10" fill="#586069"
           >84M</text>
  <text x="52" y="149" text-anchor="end"
           font-family="-apple-system, BlinkMacSystemFont, &quot;Segoe UI&quot;, Helvetica, Arial, sans-serif" font-size="10" fill="#586069"
           >44M</text>
  <text x="52" y="240" text-anchor="end"
           font-family="-apple-system, BlinkMacSystemFont, &quot;Segoe UI&quot;, Helvetica, Arial, sans-serif" font-size="10" fill="#586069"
           >3M</text>
  <!-- right y-axis labels (Added) -->
  <text x="854" y="56" text-anchor="start"
           font-family="-apple-system, BlinkMacSystemFont, &quot;Segoe UI&quot;, Helvetica, Arial, sans-serif" font-size="10" fill="#22c55e"
           >5M</text>
  <text x="854" y="149" text-anchor="start"
           font-family="-apple-system, BlinkMacSystemFont, &quot;Segoe UI&quot;, Helvetica, Arial, sans-serif" font-size="10" fill="#22c55e"
           >3M</text>
  <text x="854" y="240" text-anchor="start"
           font-family="-apple-system, BlinkMacSystemFont, &quot;Segoe UI&quot;, Helvetica, Arial, sans-serif" font-size="10" fill="#22c55e"
           >0</text>
  <!-- axes -->
  <line x1="58" y1="50" x2="58" y2="240"
        stroke="#e1e4e8" stroke-width="1" />
  <line x1="58" y1="240" x2="848" y2="240"
        stroke="#e1e4e8" stroke-width="1" />
  <line x1="848" y1="50" x2="848" y2="240"
           stroke="#e1e4e8" stroke-width="1" />
  <!-- x-axis labels -->
  <text x="73" y="256" text-anchor="middle"
           font-family="-apple-system, BlinkMacSystemFont, &quot;Segoe UI&quot;, Helvetica, Arial, sans-serif" font-size="10" fill="#586069"
           >Sep 7</text>
  <text x="313" y="256" text-anchor="middle"
           font-family="-apple-system, BlinkMacSystemFont, &quot;Segoe UI&quot;, Helvetica, Arial, sans-serif" font-size="10" fill="#586069"
           >Nov 2</text>
  <text x="553" y="256" text-anchor="middle"
           font-family="-apple-system, BlinkMacSystemFont, &quot;Segoe UI&quot;, Helvetica, Arial, sans-serif" font-size="10" fill="#586069"
           >Dec 28</text>
  <text x="793" y="256" text-anchor="middle"
           font-family="-apple-system, BlinkMacSystemFont, &quot;Segoe UI&quot;, Helvetica, Arial, sans-serif" font-size="10" fill="#586069"
           >Feb 22</text>
  <text x="823" y="256" text-anchor="middle"
           font-family="-apple-system, BlinkMacSystemFont, &quot;Segoe UI&quot;, Helvetica, Arial, sans-serif" font-size="10" fill="#586069"
           >Mar 1</text>
</svg>