<svg xmlns="http://www.w3.org/2000/svg" width="900" height="268" viewBox="0 0 900 268">
  <rect width="900" height="268" fill="#ffffff" rx="6" ry="6" />
  <!-- title -->
  <text x="450" y="20" text-anchor="middle"
        font-family="-apple-system, BlinkMacSystemFont, &quot;Segoe UI&quot;, Helvetica, Arial, sans-serif" font-size="14" font-weight="600" fill="#24292e"
        >Event Listings — Record Growth</text>
  <!-- legend -->
  <circle cx="365" cy="31" r="4" fill="#3b82f6" />
  <text x="373" y="34" font-family="-apple-system, BlinkMacSystemFont, &quot;Segoe UI&quot;, Helvetica, Arial, sans-serif" font-size="11" fill="#586069">Total Records</text>
  <circle cx="455" cy="31" r="4" fill="#22c55e" />
  <text x="463" y="34" font-family="-apple-system, BlinkMacSystemFont, &quot;Segoe UI&quot;, Helvetica, Arial, sans-serif" font-size="11" fill="#586069">Added</text>
  <!-- grid lines -->
  <line x1="58" y1="52" x2="848" y2="52"
           stroke="#e1e4e8" stroke-width="1" stroke-dasharray="4,3" />
  <line x1="58" y1="145" x2="848" y2="145"
           stroke="#e1e4e8" stroke-width="1" stroke-dasharray="4,3" />
  <line x1="58" y1="236" x2="848" y2="236"
           stroke="#e1e4e8" stroke-width="1" stroke-dasharray="4,3" />
  <!-- bars (Added, right axis) -->
  <rect x="59" y="136" width="28" height="104"
          rx="1" fill="#22c55eb3" />
  <rect x="89" y="136" width="28" height="104"
          rx="1" fill="#22c55eb3" />
  <rect x="119" y="126" width="28" height="114"
          rx="1" fill="#22c55eb3" />
  <rect x="149" y="140" width="28" height="100"
          rx="1" fill="#22c55eb3" />
  <rect x="179" y="136" width="28" height="104"
          rx="1" fill="#22c55eb3" />
  <rect x="209" y="149" width="28" height="91"
          rx="1" fill="#22c55eb3" />
  <rect x="239" y="157" width="28" height="83"
          rx="1" fill="#22c55eb3" />
  <rect x="269" y="157" width="28" height="83"
          rx="1" fill="#22c55eb3" />
  <rect x="299" y="125" width="28" height="115"
          rx="1" fill="#22c55eb3" />
  <rect x="329" y="130" width="28" height="110"
          rx="1" fill="#22c55eb3" />
  <rect x="359" y="135" width="28" height="105"
          rx="1" fill="#22c55eb3" />
  <rect x="389" y="128" width="28" height="112"
          rx="1" fill="#22c55eb3" />
  <rect x="419" y="81" width="28" height="159"
          rx="1" fill="#22c55eb3" />
  <rect x="449" y="79" width="28" height="161"
          rx="1" fill="#22c55eb3" />
  <rect x="479" y="74" width="28" height="166"
          rx="1" fill="#22c55eb3" />
  <rect x="509" y="84" width="28" height="156"
          rx="1" fill="#22c55eb3" />
  <rect x="539" y="73" width="28" height="167"
          rx="1" fill="#22c55eb3" />
  <rect x="569" y="73" width="28" height="167"
          rx="1" fill="#22c55eb3" />
  <rect x="599" y="78" width="28" height="162"
          rx="1" fill="#22c55eb3" />
  <rect x="629" y="81" width="28" height="159"
          rx="1" fill="#22c55eb3" />
  <rect x="659" y="86" width="28" height="154"
          rx="1" fill="#22c55eb3" />
  <rect x="689" y="150" width="28" height="90"
          rx="1" fill="#22c55eb3" />
  <rect x="719" y="195" width="28" height="45"
          rx="1" fill="#22c55eb3" />
  <rect x="749" y="204" width="28" height="36"
          rx="1" fill="#22c55eb3" />
  <rect x="779" y="212" width="28" height="28"
          rx="1" fill="#22c55eb3" />
  <rect x="809" y="234" width="28" height="6"
          rx="1" fill="#22c55eb3" />
  <!-- line (Total, left axis) -->
  <polyline points="73,240 103,233 133,225 163,218 193,211 223,205 253,199 283,194 313,186 343,178 373,171 403,163 433,152 463,141 493,130 523,119 553,108 583,97 613,85 643,75 673,64 703,58 733,55 763,52 793,50 823,50" fill="none" stroke="#3b82f6" stroke-width="2" stroke-linejoin="round" stroke-linecap="round" />
  <!-- left y-axis labels (Total) -->
  <text x="52" y="56" text-anchor="end"
           font-family="-apple-system, BlinkMacSystemFont, &quot;Segoe UI&quot;, Helvetica, Arial, sans-serif" font-size="10" fill="#586069"
           >122M</text>
  <text x="52" y="149" text-anchor="end"
           font-family="-apple-system, BlinkMacSystemFont, &quot;Segoe UI&quot;, Helvetica, Arial, sans-serif" font-size="10" fill="#586069"
           >79M</text>
  <text x="52" y="240" text-anchor="end"
           font-family="-apple-system, BlinkMacSystemFont, &quot;Segoe UI&quot;, Helvetica, Arial, sans-serif" font-size="10" fill="#586069"
           >35M</text>
  <!-- right y-axis labels (Added) -->
  <text x="854" y="56" text-anchor="start"
           font-family="-apple-system, BlinkMacSystemFont, &quot;Segoe UI&quot;, Helvetica, Arial, sans-serif" font-size="10" fill="#22c55e"
           >5M</text>
  <text x="854" y="149" text-anchor="start"
           font-family="-apple-system, BlinkMacSystemFont, &quot;Segoe UI&quot;, Helvetica, Arial, sans-serif" font-size="10" fill="#22c55e"
           >3M</text>
  <text x="854" y="240" text-anchor="start"
           font-family="-apple-system, BlinkMacSystemFont, &quot;Segoe UI&quot;, Helvetica, Arial, sans-serif" font-size="10" fill="#22c55e"
           >0</text>
  <!-- axes -->
  <line x1="58" y1="50" x2="58" y2="240"
        stroke="#e1e4e8" stroke-width="1" />
  <line x1="58" y1="240" x2="848" y2="240"
        stroke="#e1e4e8" stroke-width="1" />
  <line x1="848" y1="50" x2="848" y2="240"
           stroke="#e1e4e8" stroke-width="1" />
  <!-- x-axis labels -->
  <text x="73" y="256" text-anchor="middle"
           font-family="-apple-system, BlinkMacSystemFont, &quot;Segoe UI&quot;, Helvetica, Arial, sans-serif" font-size="10" fill="#586069"
           >Nov 16</text>
  <text x="313" y="256" text-anchor="middle"
           font-family="-apple-system, BlinkMacSystemFont, &quot;Segoe UI&quot;, Helvetica, Arial, sans-serif" font-size="10" fill="#586069"
           >Jan 11</text>
  <text x="553" y="256" text-anchor="middle"
           font-family="-apple-system, BlinkMacSystemFont, &quot;Segoe UI&quot;, Helvetica, Arial, sans-serif" font-size="10" fill="#586069"
           >Mar 8</text>
  <text x="793" y="256" text-anchor="middle"
           font-family="-apple-system, BlinkMacSystemFont, &quot;Segoe UI&quot;, Helvetica, Arial, sans-serif" font-size="10" fill="#586069"
           >May 3</text>
  <text x="823" y="256" text-anchor="middle"
           font-family="-apple-system, BlinkMacSystemFont, &quot;Segoe UI&quot;, Helvetica, Arial, sans-serif" font-size="10" fill="#586069"
           >May 10</text>
</svg>