<svg xmlns="http://www.w3.org/2000/svg" width="900" height="268" viewBox="0 0 900 268">
  <rect width="900" height="268" fill="#ffffff" rx="6" ry="6" />
  <!-- title -->
  <text x="450" y="20" text-anchor="middle"
        font-family="-apple-system, BlinkMacSystemFont, &quot;Segoe UI&quot;, Helvetica, Arial, sans-serif" font-size="14" font-weight="600" fill="#24292e"
        >Event Listings — Record Growth</text>
  <!-- legend -->
  <circle cx="365" cy="31" r="4" fill="#3b82f6" />
  <text x="373" y="34" font-family="-apple-system, BlinkMacSystemFont, &quot;Segoe UI&quot;, Helvetica, Arial, sans-serif" font-size="11" fill="#586069">Total Records</text>
  <circle cx="455" cy="31" r="4" fill="#22c55e" />
  <text x="463" y="34" font-family="-apple-system, BlinkMacSystemFont, &quot;Segoe UI&quot;, Helvetica, Arial, sans-serif" font-size="11" fill="#586069">Added</text>
  <!-- grid lines -->
  <line x1="58" y1="52" x2="848" y2="52"
           stroke="#e1e4e8" stroke-width="1" stroke-dasharray="4,3" />
  <line x1="58" y1="145" x2="848" y2="145"
           stroke="#e1e4e8" stroke-width="1" stroke-dasharray="4,3" />
  <line x1="58" y1="236" x2="848" y2="236"
           stroke="#e1e4e8" stroke-width="1" stroke-dasharray="4,3" />
  <!-- bars (Added, right axis) -->
  <rect x="59" y="228" width="28" height="12"
          rx="1" fill="#22c55eb3" />
  <rect x="89" y="217" width="28" height="23"
          rx="1" fill="#22c55eb3" />
  <rect x="119" y="218" width="28" height="22"
          rx="1" fill="#22c55eb3" />
  <rect x="149" y="188" width="28" height="52"
          rx="1" fill="#22c55eb3" />
  <rect x="179" y="142" width="28" height="98"
          rx="1" fill="#22c55eb3" />
  <rect x="209" y="104" width="28" height="136"
          rx="1" fill="#22c55eb3" />
  <rect x="239" y="106" width="28" height="134"
          rx="1" fill="#22c55eb3" />
  <rect x="269" y="100" width="28" height="140"
          rx="1" fill="#22c55eb3" />
  <rect x="299" y="159" width="28" height="81"
          rx="1" fill="#22c55eb3" />
  <rect x="329" y="161" width="28" height="79"
          rx="1" fill="#22c55eb3" />
  <rect x="359" y="153" width="28" height="87"
          rx="1" fill="#22c55eb3" />
  <rect x="389" y="153" width="28" height="87"
          rx="1" fill="#22c55eb3" />
  <rect x="419" y="145" width="28" height="95"
          rx="1" fill="#22c55eb3" />
  <rect x="449" y="158" width="28" height="82"
          rx="1" fill="#22c55eb3" />
  <rect x="479" y="153" width="28" height="87"
          rx="1" fill="#22c55eb3" />
  <rect x="509" y="162" width="28" height="78"
          rx="1" fill="#22c55eb3" />
  <rect x="539" y="170" width="28" height="70"
          rx="1" fill="#22c55eb3" />
  <rect x="569" y="170" width="28" height="70"
          rx="1" fill="#22c55eb3" />
  <rect x="599" y="141" width="28" height="99"
          rx="1" fill="#22c55eb3" />
  <rect x="629" y="145" width="28" height="95"
          rx="1" fill="#22c55eb3" />
  <rect x="659" y="155" width="28" height="85"
          rx="1" fill="#22c55eb3" />
  <rect x="689" y="141" width="28" height="99"
          rx="1" fill="#22c55eb3" />
  <rect x="719" y="100" width="28" height="140"
          rx="1" fill="#22c55eb3" />
  <rect x="749" y="92" width="28" height="148"
          rx="1" fill="#22c55eb3" />
  <rect x="779" y="73" width="28" height="167"
          rx="1" fill="#22c55eb3" />
  <rect x="809" y="213" width="28" height="27"
          rx="1" fill="#22c55eb3" />
  <!-- line (Total, left axis) -->
  <polyline points="73,240 103,238 133,236 163,232 193,224 223,212 253,201 283,190 313,183 343,176 373,169 403,162 433,154 463,147 493,140 523,133 553,127 583,122 613,113 643,106 673,98 703,90 733,78 763,66 793,52 823,50" fill="none" stroke="#3b82f6" stroke-width="2" stroke-linejoin="round" stroke-linecap="round" />
  <!-- left y-axis labels (Total) -->
  <text x="52" y="56" text-anchor="end"
           font-family="-apple-system, BlinkMacSystemFont, &quot;Segoe UI&quot;, Helvetica, Arial, sans-serif" font-size="10" fill="#586069"
           >89M</text>
  <text x="52" y="149" text-anchor="end"
           font-family="-apple-system, BlinkMacSystemFont, &quot;Segoe UI&quot;, Helvetica, Arial, sans-serif" font-size="10" fill="#586069"
           >46M</text>
  <text x="52" y="240" text-anchor="end"
           font-family="-apple-system, BlinkMacSystemFont, &quot;Segoe UI&quot;, Helvetica, Arial, sans-serif" font-size="10" fill="#586069"
           >4M</text>
  <!-- right y-axis labels (Added) -->
  <text x="854" y="56" text-anchor="start"
           font-family="-apple-system, BlinkMacSystemFont, &quot;Segoe UI&quot;, Helvetica, Arial, sans-serif" font-size="10" fill="#22c55e"
           >6M</text>
  <text x="854" y="149" text-anchor="start"
           font-family="-apple-system, BlinkMacSystemFont, &quot;Segoe UI&quot;, Helvetica, Arial, sans-serif" font-size="10" fill="#22c55e"
           >3M</text>
  <text x="854" y="240" text-anchor="start"
           font-family="-apple-system, BlinkMacSystemFont, &quot;Segoe UI&quot;, Helvetica, Arial, sans-serif" font-size="10" fill="#22c55e"
           >0</text>
  <!-- axes -->
  <line x1="58" y1="50" x2="58" y2="240"
        stroke="#e1e4e8" stroke-width="1" />
  <line x1="58" y1="240" x2="848" y2="240"
        stroke="#e1e4e8" stroke-width="1" />
  <line x1="848" y1="50" x2="848" y2="240"
           stroke="#e1e4e8" stroke-width="1" />
  <!-- x-axis labels -->
  <text x="73" y="256" text-anchor="middle"
           font-family="-apple-system, BlinkMacSystemFont, &quot;Segoe UI&quot;, Helvetica, Arial, sans-serif" font-size="10" fill="#586069"
           >Sep 7</text>
  <text x="313" y="256" text-anchor="middle"
           font-family="-apple-system, BlinkMacSystemFont, &quot;Segoe UI&quot;, Helvetica, Arial, sans-serif" font-size="10" fill="#586069"
           >Nov 2</text>
  <text x="553" y="256" text-anchor="middle"
           font-family="-apple-system, BlinkMacSystemFont, &quot;Segoe UI&quot;, Helvetica, Arial, sans-serif" font-size="10" fill="#586069"
           >Dec 28</text>
  <text x="793" y="256" text-anchor="middle"
           font-family="-apple-system, BlinkMacSystemFont, &quot;Segoe UI&quot;, Helvetica, Arial, sans-serif" font-size="10" fill="#586069"
           >Feb 22</text>
  <text x="823" y="256" text-anchor="middle"
           font-family="-apple-system, BlinkMacSystemFont, &quot;Segoe UI&quot;, Helvetica, Arial, sans-serif" font-size="10" fill="#586069"
           >Mar 1</text>
</svg>