<svg xmlns="http://www.w3.org/2000/svg" width="900" height="268" viewBox="0 0 900 268">
  <rect width="900" height="268" fill="#ffffff" rx="6" ry="6" />
  <!-- title -->
  <text x="450" y="20" text-anchor="middle"
        font-family="-apple-system, BlinkMacSystemFont, &quot;Segoe UI&quot;, Helvetica, Arial, sans-serif" font-size="14" font-weight="600" fill="#24292e"
        >Event Listings — Record Growth</text>
  <!-- legend -->
  <circle cx="365" cy="31" r="4" fill="#3b82f6" />
  <text x="373" y="34" font-family="-apple-system, BlinkMacSystemFont, &quot;Segoe UI&quot;, Helvetica, Arial, sans-serif" font-size="11" fill="#586069">Total Records</text>
  <circle cx="455" cy="31" r="4" fill="#22c55e" />
  <text x="463" y="34" font-family="-apple-system, BlinkMacSystemFont, &quot;Segoe UI&quot;, Helvetica, Arial, sans-serif" font-size="11" fill="#586069">Added</text>
  <!-- grid lines -->
  <line x1="58" y1="52" x2="848" y2="52"
           stroke="#e1e4e8" stroke-width="1" stroke-dasharray="4,3" />
  <line x1="58" y1="145" x2="848" y2="145"
           stroke="#e1e4e8" stroke-width="1" stroke-dasharray="4,3" />
  <line x1="58" y1="236" x2="848" y2="236"
           stroke="#e1e4e8" stroke-width="1" stroke-dasharray="4,3" />
  <!-- bars (Added, right axis) -->
  <rect x="59" y="116" width="30" height="124"
          rx="1" fill="#22c55eb3" />
  <rect x="91" y="118" width="30" height="122"
          rx="1" fill="#22c55eb3" />
  <rect x="123" y="113" width="30" height="127"
          rx="1" fill="#22c55eb3" />
  <rect x="155" y="166" width="30" height="74"
          rx="1" fill="#22c55eb3" />
  <rect x="187" y="168" width="30" height="72"
          rx="1" fill="#22c55eb3" />
  <rect x="219" y="162" width="30" height="78"
          rx="1" fill="#22c55eb3" />
  <rect x="251" y="161" width="30" height="79"
          rx="1" fill="#22c55eb3" />
  <rect x="283" y="153" width="30" height="87"
          rx="1" fill="#22c55eb3" />
  <rect x="315" y="164" width="30" height="76"
          rx="1" fill="#22c55eb3" />
  <rect x="347" y="161" width="30" height="79"
          rx="1" fill="#22c55eb3" />
  <rect x="379" y="170" width="30" height="70"
          rx="1" fill="#22c55eb3" />
  <rect x="411" y="177" width="30" height="63"
          rx="1" fill="#22c55eb3" />
  <rect x="443" y="177" width="30" height="63"
          rx="1" fill="#22c55eb3" />
  <rect x="475" y="151" width="30" height="89"
          rx="1" fill="#22c55eb3" />
  <rect x="507" y="155" width="30" height="85"
          rx="1" fill="#22c55eb3" />
  <rect x="539" y="162" width="30" height="78"
          rx="1" fill="#22c55eb3" />
  <rect x="571" y="152" width="30" height="88"
          rx="1" fill="#22c55eb3" />
  <rect x="603" y="117" width="30" height="123"
          rx="1" fill="#22c55eb3" />
  <rect x="635" y="112" width="30" height="128"
          rx="1" fill="#22c55eb3" />
  <rect x="667" y="101" width="30" height="139"
          rx="1" fill="#22c55eb3" />
  <rect x="699" y="96" width="30" height="144"
          rx="1" fill="#22c55eb3" />
  <rect x="731" y="73" width="30" height="167"
          rx="1" fill="#22c55eb3" />
  <rect x="763" y="104" width="30" height="136"
          rx="1" fill="#22c55eb3" />
  <rect x="795" y="227" width="30" height="13"
          rx="1" fill="#22c55eb3" />
  <!-- line (Total, left axis) -->
  <polyline points="74,240 106,229 138,218 170,212 202,206 234,199 266,192 298,184 330,178 362,171 394,165 426,159 458,154 490,146 522,139 554,132 586,124 618,113 650,102 682,90 714,77 746,63 778,51 810,50" fill="none" stroke="#3b82f6" stroke-width="2" stroke-linejoin="round" stroke-linecap="round" />
  <!-- left y-axis labels (Total) -->
  <text x="52" y="56" text-anchor="end"
           font-family="-apple-system, BlinkMacSystemFont, &quot;Segoe UI&quot;, Helvetica, Arial, sans-serif" font-size="10" fill="#586069"
           >106M</text>
  <text x="52" y="149" text-anchor="end"
           font-family="-apple-system, BlinkMacSystemFont, &quot;Segoe UI&quot;, Helvetica, Arial, sans-serif" font-size="10" fill="#586069"
           >61M</text>
  <text x="52" y="240" text-anchor="end"
           font-family="-apple-system, BlinkMacSystemFont, &quot;Segoe UI&quot;, Helvetica, Arial, sans-serif" font-size="10" fill="#586069"
           >16M</text>
  <!-- right y-axis labels (Added) -->
  <text x="854" y="56" text-anchor="start"
           font-family="-apple-system, BlinkMacSystemFont, &quot;Segoe UI&quot;, Helvetica, Arial, sans-serif" font-size="10" fill="#22c55e"
           >7M</text>
  <text x="854" y="149" text-anchor="start"
           font-family="-apple-system, BlinkMacSystemFont, &quot;Segoe UI&quot;, Helvetica, Arial, sans-serif" font-size="10" fill="#22c55e"
           >3M</text>
  <text x="854" y="240" text-anchor="start"
           font-family="-apple-system, BlinkMacSystemFont, &quot;Segoe UI&quot;, Helvetica, Arial, sans-serif" font-size="10" fill="#22c55e"
           >0</text>
  <!-- axes -->
  <line x1="58" y1="50" x2="58" y2="240"
        stroke="#e1e4e8" stroke-width="1" />
  <line x1="58" y1="240" x2="848" y2="240"
        stroke="#e1e4e8" stroke-width="1" />
  <line x1="848" y1="50" x2="848" y2="240"
           stroke="#e1e4e8" stroke-width="1" />
  <!-- x-axis labels -->
  <text x="74" y="256" text-anchor="middle"
           font-family="-apple-system, BlinkMacSystemFont, &quot;Segoe UI&quot;, Helvetica, Arial, sans-serif" font-size="10" fill="#586069"
           >Oct 12</text>
  <text x="298" y="256" text-anchor="middle"
           font-family="-apple-system, BlinkMacSystemFont, &quot;Segoe UI&quot;, Helvetica, Arial, sans-serif" font-size="10" fill="#586069"
           >Nov 30</text>
  <text x="522" y="256" text-anchor="middle"
           font-family="-apple-system, BlinkMacSystemFont, &quot;Segoe UI&quot;, Helvetica, Arial, sans-serif" font-size="10" fill="#586069"
           >Jan 18</text>
  <text x="746" y="256" text-anchor="middle"
           font-family="-apple-system, BlinkMacSystemFont, &quot;Segoe UI&quot;, Helvetica, Arial, sans-serif" font-size="10" fill="#586069"
           >Mar 8</text>
  <text x="810" y="256" text-anchor="middle"
           font-family="-apple-system, BlinkMacSystemFont, &quot;Segoe UI&quot;, Helvetica, Arial, sans-serif" font-size="10" fill="#586069"
           >Mar 22</text>
</svg>