<svg xmlns="http://www.w3.org/2000/svg" width="900" height="268" viewBox="0 0 900 268">
  <rect width="900" height="268" fill="#ffffff" rx="6" ry="6" />
  <!-- title -->
  <text x="450" y="20" text-anchor="middle"
        font-family="-apple-system, BlinkMacSystemFont, &quot;Segoe UI&quot;, Helvetica, Arial, sans-serif" font-size="14" font-weight="600" fill="#24292e"
        >Event Listings — Record Growth</text>
  <!-- legend -->
  <circle cx="365" cy="31" r="4" fill="#3b82f6" />
  <text x="373" y="34" font-family="-apple-system, BlinkMacSystemFont, &quot;Segoe UI&quot;, Helvetica, Arial, sans-serif" font-size="11" fill="#586069">Total Records</text>
  <circle cx="455" cy="31" r="4" fill="#22c55e" />
  <text x="463" y="34" font-family="-apple-system, BlinkMacSystemFont, &quot;Segoe UI&quot;, Helvetica, Arial, sans-serif" font-size="11" fill="#586069">Added</text>
  <!-- grid lines -->
  <line x1="58" y1="52" x2="848" y2="52"
           stroke="#e1e4e8" stroke-width="1" stroke-dasharray="4,3" />
  <line x1="58" y1="145" x2="848" y2="145"
           stroke="#e1e4e8" stroke-width="1" stroke-dasharray="4,3" />
  <line x1="58" y1="236" x2="848" y2="236"
           stroke="#e1e4e8" stroke-width="1" stroke-dasharray="4,3" />
  <!-- bars (Added, right axis) -->
  <rect x="59" y="132" width="28" height="108"
          rx="1" fill="#22c55eb3" />
  <rect x="89" y="126" width="28" height="114"
          rx="1" fill="#22c55eb3" />
  <rect x="119" y="81" width="28" height="159"
          rx="1" fill="#22c55eb3" />
  <rect x="149" y="79" width="28" height="161"
          rx="1" fill="#22c55eb3" />
  <rect x="179" y="73" width="28" height="167"
          rx="1" fill="#22c55eb3" />
  <rect x="209" y="83" width="28" height="157"
          rx="1" fill="#22c55eb3" />
  <rect x="239" y="73" width="28" height="167"
          rx="1" fill="#22c55eb3" />
  <rect x="269" y="76" width="28" height="164"
          rx="1" fill="#22c55eb3" />
  <rect x="299" y="85" width="28" height="155"
          rx="1" fill="#22c55eb3" />
  <rect x="329" y="112" width="28" height="128"
          rx="1" fill="#22c55eb3" />
  <rect x="359" y="115" width="28" height="125"
          rx="1" fill="#22c55eb3" />
  <rect x="389" y="155" width="28" height="85"
          rx="1" fill="#22c55eb3" />
  <rect x="419" y="197" width="28" height="43"
          rx="1" fill="#22c55eb3" />
  <rect x="449" y="204" width="28" height="36"
          rx="1" fill="#22c55eb3" />
  <rect x="479" y="207" width="28" height="33"
          rx="1" fill="#22c55eb3" />
  <rect x="509" y="201" width="28" height="39"
          rx="1" fill="#22c55eb3" />
  <rect x="539" y="220" width="28" height="20"
          rx="1" fill="#22c55eb3" />
  <rect x="569" y="211" width="28" height="29"
          rx="1" fill="#22c55eb3" />
  <rect x="599" y="206" width="28" height="34"
          rx="1" fill="#22c55eb3" />
  <rect x="629" y="208" width="28" height="32"
          rx="1" fill="#22c55eb3" />
  <rect x="659" y="213" width="28" height="27"
          rx="1" fill="#22c55eb3" />
  <rect x="689" y="204" width="28" height="36"
          rx="1" fill="#22c55eb3" />
  <rect x="719" y="218" width="28" height="22"
          rx="1" fill="#22c55eb3" />
  <rect x="749" y="211" width="28" height="29"
          rx="1" fill="#22c55eb3" />
  <rect x="779" y="196" width="28" height="44"
          rx="1" fill="#22c55eb3" />
  <rect x="809" y="234" width="28" height="6"
          rx="1" fill="#22c55eb3" />
  <!-- line (Total, left axis) -->
  <polyline points="73,240 103,229 133,214 163,199 193,183 223,168 253,153 283,137 313,123 343,110 373,99 403,91 433,87 463,83 493,80 523,76 553,74 583,72 613,68 643,65 673,63 703,60 733,57 763,55 793,51 823,50" fill="none" stroke="#3b82f6" stroke-width="2" stroke-linejoin="round" stroke-linecap="round" />
  <!-- left y-axis labels (Total) -->
  <text x="52" y="56" text-anchor="end"
           font-family="-apple-system, BlinkMacSystemFont, &quot;Segoe UI&quot;, Helvetica, Arial, sans-serif" font-size="10" fill="#586069"
           >125M</text>
  <text x="52" y="149" text-anchor="end"
           font-family="-apple-system, BlinkMacSystemFont, &quot;Segoe UI&quot;, Helvetica, Arial, sans-serif" font-size="10" fill="#586069"
           >96M</text>
  <text x="52" y="240" text-anchor="end"
           font-family="-apple-system, BlinkMacSystemFont, &quot;Segoe UI&quot;, Helvetica, Arial, sans-serif" font-size="10" fill="#586069"
           >66M</text>
  <!-- right y-axis labels (Added) -->
  <text x="854" y="56" text-anchor="start"
           font-family="-apple-system, BlinkMacSystemFont, &quot;Segoe UI&quot;, Helvetica, Arial, sans-serif" font-size="10" fill="#22c55e"
           >5M</text>
  <text x="854" y="149" text-anchor="start"
           font-family="-apple-system, BlinkMacSystemFont, &quot;Segoe UI&quot;, Helvetica, Arial, sans-serif" font-size="10" fill="#22c55e"
           >2M</text>
  <text x="854" y="240" text-anchor="start"
           font-family="-apple-system, BlinkMacSystemFont, &quot;Segoe UI&quot;, Helvetica, Arial, sans-serif" font-size="10" fill="#22c55e"
           >0</text>
  <!-- axes -->
  <line x1="58" y1="50" x2="58" y2="240"
        stroke="#e1e4e8" stroke-width="1" />
  <line x1="58" y1="240" x2="848" y2="240"
        stroke="#e1e4e8" stroke-width="1" />
  <line x1="848" y1="50" x2="848" y2="240"
           stroke="#e1e4e8" stroke-width="1" />
  <!-- x-axis labels -->
  <text x="73" y="256" text-anchor="middle"
           font-family="-apple-system, BlinkMacSystemFont, &quot;Segoe UI&quot;, Helvetica, Arial, sans-serif" font-size="10" fill="#586069"
           >Jan 25</text>
  <text x="313" y="256" text-anchor="middle"
           font-family="-apple-system, BlinkMacSystemFont, &quot;Segoe UI&quot;, Helvetica, Arial, sans-serif" font-size="10" fill="#586069"
           >Mar 22</text>
  <text x="553" y="256" text-anchor="middle"
           font-family="-apple-system, BlinkMacSystemFont, &quot;Segoe UI&quot;, Helvetica, Arial, sans-serif" font-size="10" fill="#586069"
           >May 17</text>
  <text x="793" y="256" text-anchor="middle"
           font-family="-apple-system, BlinkMacSystemFont, &quot;Segoe UI&quot;, Helvetica, Arial, sans-serif" font-size="10" fill="#586069"
           >Jul 12</text>
  <text x="823" y="256" text-anchor="middle"
           font-family="-apple-system, BlinkMacSystemFont, &quot;Segoe UI&quot;, Helvetica, Arial, sans-serif" font-size="10" fill="#586069"
           >Jul 19</text>
</svg>