<svg xmlns="http://www.w3.org/2000/svg" width="900" height="268" viewBox="0 0 900 268">
  <rect width="900" height="268" fill="#ffffff" rx="6" ry="6" />
  <!-- title -->
  <text x="450" y="20" text-anchor="middle"
        font-family="-apple-system, BlinkMacSystemFont, &quot;Segoe UI&quot;, Helvetica, Arial, sans-serif" font-size="14" font-weight="600" fill="#24292e"
        >Event Listings — Record Growth</text>
  <!-- legend -->
  <circle cx="365" cy="31" r="4" fill="#3b82f6" />
  <text x="373" y="34" font-family="-apple-system, BlinkMacSystemFont, &quot;Segoe UI&quot;, Helvetica, Arial, sans-serif" font-size="11" fill="#586069">Total Records</text>
  <circle cx="455" cy="31" r="4" fill="#22c55e" />
  <text x="463" y="34" font-family="-apple-system, BlinkMacSystemFont, &quot;Segoe UI&quot;, Helvetica, Arial, sans-serif" font-size="11" fill="#586069">Added</text>
  <!-- grid lines -->
  <line x1="58" y1="52" x2="848" y2="52"
           stroke="#e1e4e8" stroke-width="1" stroke-dasharray="4,3" />
  <line x1="58" y1="145" x2="848" y2="145"
           stroke="#e1e4e8" stroke-width="1" stroke-dasharray="4,3" />
  <line x1="58" y1="236" x2="848" y2="236"
           stroke="#e1e4e8" stroke-width="1" stroke-dasharray="4,3" />
  <!-- bars (Added, right axis) -->
  <rect x="60" y="153" width="29" height="87"
          rx="1" fill="#22c55eb3" />
  <rect x="91" y="121" width="29" height="119"
          rx="1" fill="#22c55eb3" />
  <rect x="122" y="126" width="29" height="114"
          rx="1" fill="#22c55eb3" />
  <rect x="153" y="133" width="29" height="107"
          rx="1" fill="#22c55eb3" />
  <rect x="184" y="127" width="29" height="113"
          rx="1" fill="#22c55eb3" />
  <rect x="215" y="80" width="29" height="160"
          rx="1" fill="#22c55eb3" />
  <rect x="246" y="79" width="29" height="161"
          rx="1" fill="#22c55eb3" />
  <rect x="277" y="73" width="29" height="167"
          rx="1" fill="#22c55eb3" />
  <rect x="308" y="84" width="29" height="156"
          rx="1" fill="#22c55eb3" />
  <rect x="339" y="74" width="29" height="166"
          rx="1" fill="#22c55eb3" />
  <rect x="370" y="78" width="29" height="162"
          rx="1" fill="#22c55eb3" />
  <rect x="401" y="86" width="29" height="154"
          rx="1" fill="#22c55eb3" />
  <rect x="432" y="113" width="29" height="127"
          rx="1" fill="#22c55eb3" />
  <rect x="463" y="116" width="29" height="124"
          rx="1" fill="#22c55eb3" />
  <rect x="494" y="156" width="29" height="84"
          rx="1" fill="#22c55eb3" />
  <rect x="525" y="198" width="29" height="42"
          rx="1" fill="#22c55eb3" />
  <rect x="556" y="205" width="29" height="35"
          rx="1" fill="#22c55eb3" />
  <rect x="587" y="209" width="29" height="31"
          rx="1" fill="#22c55eb3" />
  <rect x="618" y="205" width="29" height="35"
          rx="1" fill="#22c55eb3" />
  <rect x="649" y="221" width="29" height="19"
          rx="1" fill="#22c55eb3" />
  <rect x="680" y="212" width="29" height="28"
          rx="1" fill="#22c55eb3" />
  <rect x="711" y="205" width="29" height="35"
          rx="1" fill="#22c55eb3" />
  <rect x="742" y="206" width="29" height="34"
          rx="1" fill="#22c55eb3" />
  <rect x="773" y="218" width="29" height="22"
          rx="1" fill="#22c55eb3" />
  <rect x="804" y="222" width="29" height="18"
          rx="1" fill="#22c55eb3" />
  <!-- line (Total, left axis) -->
  <polyline points="74,240 105,230 136,220 167,211 198,201 229,187 260,174 291,159 322,146 353,132 384,118 415,104 446,94 477,83 508,76 539,72 570,69 601,66 632,63 663,62 694,59 725,56 756,53 787,52 818,50" fill="none" stroke="#3b82f6" stroke-width="2" stroke-linejoin="round" stroke-linecap="round" />
  <!-- left y-axis labels (Total) -->
  <text x="52" y="56" text-anchor="end"
           font-family="-apple-system, BlinkMacSystemFont, &quot;Segoe UI&quot;, Helvetica, Arial, sans-serif" font-size="10" fill="#586069"
           >122M</text>
  <text x="52" y="149" text-anchor="end"
           font-family="-apple-system, BlinkMacSystemFont, &quot;Segoe UI&quot;, Helvetica, Arial, sans-serif" font-size="10" fill="#586069"
           >89M</text>
  <text x="52" y="240" text-anchor="end"
           font-family="-apple-system, BlinkMacSystemFont, &quot;Segoe UI&quot;, Helvetica, Arial, sans-serif" font-size="10" fill="#586069"
           >56M</text>
  <!-- right y-axis labels (Added) -->
  <text x="854" y="56" text-anchor="start"
           font-family="-apple-system, BlinkMacSystemFont, &quot;Segoe UI&quot;, Helvetica, Arial, sans-serif" font-size="10" fill="#22c55e"
           >5M</text>
  <text x="854" y="149" text-anchor="start"
           font-family="-apple-system, BlinkMacSystemFont, &quot;Segoe UI&quot;, Helvetica, Arial, sans-serif" font-size="10" fill="#22c55e"
           >2M</text>
  <text x="854" y="240" text-anchor="start"
           font-family="-apple-system, BlinkMacSystemFont, &quot;Segoe UI&quot;, Helvetica, Arial, sans-serif" font-size="10" fill="#22c55e"
           >0</text>
  <!-- axes -->
  <line x1="58" y1="50" x2="58" y2="240"
        stroke="#e1e4e8" stroke-width="1" />
  <line x1="58" y1="240" x2="848" y2="240"
        stroke="#e1e4e8" stroke-width="1" />
  <line x1="848" y1="50" x2="848" y2="240"
           stroke="#e1e4e8" stroke-width="1" />
  <!-- x-axis labels -->
  <text x="74" y="256" text-anchor="middle"
           font-family="-apple-system, BlinkMacSystemFont, &quot;Segoe UI&quot;, Helvetica, Arial, sans-serif" font-size="10" fill="#586069"
           >Jan 4</text>
  <text x="322" y="256" text-anchor="middle"
           font-family="-apple-system, BlinkMacSystemFont, &quot;Segoe UI&quot;, Helvetica, Arial, sans-serif" font-size="10" fill="#586069"
           >Mar 1</text>
  <text x="570" y="256" text-anchor="middle"
           font-family="-apple-system, BlinkMacSystemFont, &quot;Segoe UI&quot;, Helvetica, Arial, sans-serif" font-size="10" fill="#586069"
           >Apr 26</text>
  <text x="818" y="256" text-anchor="middle"
           font-family="-apple-system, BlinkMacSystemFont, &quot;Segoe UI&quot;, Helvetica, Arial, sans-serif" font-size="10" fill="#586069"
           >Jun 21</text>
</svg>