<svg xmlns="http://www.w3.org/2000/svg" width="900" height="268" viewBox="0 0 900 268">
  <rect width="900" height="268" fill="#ffffff" rx="6" ry="6" />
  <!-- title -->
  <text x="450" y="20" text-anchor="middle"
        font-family="-apple-system, BlinkMacSystemFont, &quot;Segoe UI&quot;, Helvetica, Arial, sans-serif" font-size="14" font-weight="600" fill="#24292e"
        >Event Listings — Record Growth</text>
  <!-- legend -->
  <circle cx="365" cy="31" r="4" fill="#3b82f6" />
  <text x="373" y="34" font-family="-apple-system, BlinkMacSystemFont, &quot;Segoe UI&quot;, Helvetica, Arial, sans-serif" font-size="11" fill="#586069">Total Records</text>
  <circle cx="455" cy="31" r="4" fill="#22c55e" />
  <text x="463" y="34" font-family="-apple-system, BlinkMacSystemFont, &quot;Segoe UI&quot;, Helvetica, Arial, sans-serif" font-size="11" fill="#586069">Added</text>
  <!-- grid lines -->
  <line x1="58" y1="52" x2="848" y2="52"
           stroke="#e1e4e8" stroke-width="1" stroke-dasharray="4,3" />
  <line x1="58" y1="145" x2="848" y2="145"
           stroke="#e1e4e8" stroke-width="1" stroke-dasharray="4,3" />
  <line x1="58" y1="236" x2="848" y2="236"
           stroke="#e1e4e8" stroke-width="1" stroke-dasharray="4,3" />
  <!-- bars (Added, right axis) -->
  <rect x="60" y="144" width="29" height="96"
          rx="1" fill="#22c55eb3" />
  <rect x="91" y="106" width="29" height="134"
          rx="1" fill="#22c55eb3" />
  <rect x="122" y="108" width="29" height="132"
          rx="1" fill="#22c55eb3" />
  <rect x="153" y="103" width="29" height="137"
          rx="1" fill="#22c55eb3" />
  <rect x="184" y="160" width="29" height="80"
          rx="1" fill="#22c55eb3" />
  <rect x="215" y="162" width="29" height="78"
          rx="1" fill="#22c55eb3" />
  <rect x="246" y="157" width="29" height="83"
          rx="1" fill="#22c55eb3" />
  <rect x="277" y="155" width="29" height="85"
          rx="1" fill="#22c55eb3" />
  <rect x="308" y="148" width="29" height="92"
          rx="1" fill="#22c55eb3" />
  <rect x="339" y="160" width="29" height="80"
          rx="1" fill="#22c55eb3" />
  <rect x="370" y="156" width="29" height="84"
          rx="1" fill="#22c55eb3" />
  <rect x="401" y="165" width="29" height="75"
          rx="1" fill="#22c55eb3" />
  <rect x="432" y="172" width="29" height="68"
          rx="1" fill="#22c55eb3" />
  <rect x="463" y="172" width="29" height="68"
          rx="1" fill="#22c55eb3" />
  <rect x="494" y="146" width="29" height="94"
          rx="1" fill="#22c55eb3" />
  <rect x="525" y="150" width="29" height="90"
          rx="1" fill="#22c55eb3" />
  <rect x="556" y="157" width="29" height="83"
          rx="1" fill="#22c55eb3" />
  <rect x="587" y="148" width="29" height="92"
          rx="1" fill="#22c55eb3" />
  <rect x="618" y="111" width="29" height="129"
          rx="1" fill="#22c55eb3" />
  <rect x="649" y="107" width="29" height="133"
          rx="1" fill="#22c55eb3" />
  <rect x="680" y="96" width="29" height="144"
          rx="1" fill="#22c55eb3" />
  <rect x="711" y="93" width="29" height="147"
          rx="1" fill="#22c55eb3" />
  <rect x="742" y="73" width="29" height="167"
          rx="1" fill="#22c55eb3" />
  <rect x="773" y="120" width="29" height="120"
          rx="1" fill="#22c55eb3" />
  <rect x="804" y="238" width="29" height="2"
          rx="1" fill="#22c55eb3" />
  <!-- line (Total, left axis) -->
  <polyline points="74,240 105,229 136,219 167,208 198,202 229,196 260,189 291,182 322,175 353,169 384,162 415,156 446,151 477,145 508,138 539,131 570,124 601,117 632,106 663,96 694,84 725,73 756,60 787,50 818,50" fill="none" stroke="#3b82f6" stroke-width="2" stroke-linejoin="round" stroke-linecap="round" />
  <!-- left y-axis labels (Total) -->
  <text x="52" y="56" text-anchor="end"
           font-family="-apple-system, BlinkMacSystemFont, &quot;Segoe UI&quot;, Helvetica, Arial, sans-serif" font-size="10" fill="#586069"
           >102M</text>
  <text x="52" y="149" text-anchor="end"
           font-family="-apple-system, BlinkMacSystemFont, &quot;Segoe UI&quot;, Helvetica, Arial, sans-serif" font-size="10" fill="#586069"
           >56M</text>
  <text x="52" y="240" text-anchor="end"
           font-family="-apple-system, BlinkMacSystemFont, &quot;Segoe UI&quot;, Helvetica, Arial, sans-serif" font-size="10" fill="#586069"
           >11M</text>
  <!-- right y-axis labels (Added) -->
  <text x="854" y="56" text-anchor="start"
           font-family="-apple-system, BlinkMacSystemFont, &quot;Segoe UI&quot;, Helvetica, Arial, sans-serif" font-size="10" fill="#22c55e"
           >6M</text>
  <text x="854" y="149" text-anchor="start"
           font-family="-apple-system, BlinkMacSystemFont, &quot;Segoe UI&quot;, Helvetica, Arial, sans-serif" font-size="10" fill="#22c55e"
           >3M</text>
  <text x="854" y="240" text-anchor="start"
           font-family="-apple-system, BlinkMacSystemFont, &quot;Segoe UI&quot;, Helvetica, Arial, sans-serif" font-size="10" fill="#22c55e"
           >0</text>
  <!-- axes -->
  <line x1="58" y1="50" x2="58" y2="240"
        stroke="#e1e4e8" stroke-width="1" />
  <line x1="58" y1="240" x2="848" y2="240"
        stroke="#e1e4e8" stroke-width="1" />
  <line x1="848" y1="50" x2="848" y2="240"
           stroke="#e1e4e8" stroke-width="1" />
  <!-- x-axis labels -->
  <text x="74" y="256" text-anchor="middle"
           font-family="-apple-system, BlinkMacSystemFont, &quot;Segoe UI&quot;, Helvetica, Arial, sans-serif" font-size="10" fill="#586069"
           >Oct 5</text>
  <text x="322" y="256" text-anchor="middle"
           font-family="-apple-system, BlinkMacSystemFont, &quot;Segoe UI&quot;, Helvetica, Arial, sans-serif" font-size="10" fill="#586069"
           >Nov 30</text>
  <text x="570" y="256" text-anchor="middle"
           font-family="-apple-system, BlinkMacSystemFont, &quot;Segoe UI&quot;, Helvetica, Arial, sans-serif" font-size="10" fill="#586069"
           >Jan 25</text>
  <text x="818" y="256" text-anchor="middle"
           font-family="-apple-system, BlinkMacSystemFont, &quot;Segoe UI&quot;, Helvetica, Arial, sans-serif" font-size="10" fill="#586069"
           >Mar 22</text>
</svg>