<svg xmlns="http://www.w3.org/2000/svg" width="900" height="268" viewBox="0 0 900 268">
  <rect width="900" height="268" fill="#ffffff" rx="6" ry="6" />
  <!-- title -->
  <text x="450" y="20" text-anchor="middle"
        font-family="-apple-system, BlinkMacSystemFont, &quot;Segoe UI&quot;, Helvetica, Arial, sans-serif" font-size="14" font-weight="600" fill="#24292e"
        >Event Listings — Record Growth</text>
  <!-- legend -->
  <circle cx="365" cy="31" r="4" fill="#3b82f6" />
  <text x="373" y="34" font-family="-apple-system, BlinkMacSystemFont, &quot;Segoe UI&quot;, Helvetica, Arial, sans-serif" font-size="11" fill="#586069">Total Records</text>
  <circle cx="455" cy="31" r="4" fill="#22c55e" />
  <text x="463" y="34" font-family="-apple-system, BlinkMacSystemFont, &quot;Segoe UI&quot;, Helvetica, Arial, sans-serif" font-size="11" fill="#586069">Added</text>
  <!-- grid lines -->
  <line x1="58" y1="52" x2="848" y2="52"
           stroke="#e1e4e8" stroke-width="1" stroke-dasharray="4,3" />
  <line x1="58" y1="145" x2="848" y2="145"
           stroke="#e1e4e8" stroke-width="1" stroke-dasharray="4,3" />
  <line x1="58" y1="236" x2="848" y2="236"
           stroke="#e1e4e8" stroke-width="1" stroke-dasharray="4,3" />
  <!-- bars (Added, right axis) -->
  <rect x="60" y="191" width="29" height="49"
          rx="1" fill="#22c55eb3" />
  <rect x="91" y="147" width="29" height="93"
          rx="1" fill="#22c55eb3" />
  <rect x="122" y="110" width="29" height="130"
          rx="1" fill="#22c55eb3" />
  <rect x="153" y="113" width="29" height="127"
          rx="1" fill="#22c55eb3" />
  <rect x="184" y="107" width="29" height="133"
          rx="1" fill="#22c55eb3" />
  <rect x="215" y="163" width="29" height="77"
          rx="1" fill="#22c55eb3" />
  <rect x="246" y="165" width="29" height="75"
          rx="1" fill="#22c55eb3" />
  <rect x="277" y="159" width="29" height="81"
          rx="1" fill="#22c55eb3" />
  <rect x="308" y="158" width="29" height="82"
          rx="1" fill="#22c55eb3" />
  <rect x="339" y="150" width="29" height="90"
          rx="1" fill="#22c55eb3" />
  <rect x="370" y="162" width="29" height="78"
          rx="1" fill="#22c55eb3" />
  <rect x="401" y="158" width="29" height="82"
          rx="1" fill="#22c55eb3" />
  <rect x="432" y="167" width="29" height="73"
          rx="1" fill="#22c55eb3" />
  <rect x="463" y="174" width="29" height="66"
          rx="1" fill="#22c55eb3" />
  <rect x="494" y="175" width="29" height="65"
          rx="1" fill="#22c55eb3" />
  <rect x="525" y="150" width="29" height="90"
          rx="1" fill="#22c55eb3" />
  <rect x="556" y="154" width="29" height="86"
          rx="1" fill="#22c55eb3" />
  <rect x="587" y="161" width="29" height="79"
          rx="1" fill="#22c55eb3" />
  <rect x="618" y="154" width="29" height="86"
          rx="1" fill="#22c55eb3" />
  <rect x="649" y="119" width="29" height="121"
          rx="1" fill="#22c55eb3" />
  <rect x="680" y="115" width="29" height="125"
          rx="1" fill="#22c55eb3" />
  <rect x="711" y="106" width="29" height="134"
          rx="1" fill="#22c55eb3" />
  <rect x="742" y="100" width="29" height="140"
          rx="1" fill="#22c55eb3" />
  <rect x="773" y="73" width="29" height="167"
          rx="1" fill="#22c55eb3" />
  <rect x="804" y="196" width="29" height="44"
          rx="1" fill="#22c55eb3" />
  <!-- line (Total, left axis) -->
  <polyline points="74,240 105,232 136,222 167,211 198,201 229,194 260,188 291,181 322,175 353,167 384,161 415,154 446,148 477,143 508,138 539,130 570,123 601,117 632,110 663,100 694,90 725,79 756,67 787,54 818,50" fill="none" stroke="#3b82f6" stroke-width="2" stroke-linejoin="round" stroke-linecap="round" />
  <!-- left y-axis labels (Total) -->
  <text x="52" y="56" text-anchor="end"
           font-family="-apple-system, BlinkMacSystemFont, &quot;Segoe UI&quot;, Helvetica, Arial, sans-serif" font-size="10" fill="#586069"
           >99M</text>
  <text x="52" y="149" text-anchor="end"
           font-family="-apple-system, BlinkMacSystemFont, &quot;Segoe UI&quot;, Helvetica, Arial, sans-serif" font-size="10" fill="#586069"
           >53M</text>
  <text x="52" y="240" text-anchor="end"
           font-family="-apple-system, BlinkMacSystemFont, &quot;Segoe UI&quot;, Helvetica, Arial, sans-serif" font-size="10" fill="#586069"
           >7M</text>
  <!-- right y-axis labels (Added) -->
  <text x="854" y="56" text-anchor="start"
           font-family="-apple-system, BlinkMacSystemFont, &quot;Segoe UI&quot;, Helvetica, Arial, sans-serif" font-size="10" fill="#22c55e"
           >7M</text>
  <text x="854" y="149" text-anchor="start"
           font-family="-apple-system, BlinkMacSystemFont, &quot;Segoe UI&quot;, Helvetica, Arial, sans-serif" font-size="10" fill="#22c55e"
           >3M</text>
  <text x="854" y="240" text-anchor="start"
           font-family="-apple-system, BlinkMacSystemFont, &quot;Segoe UI&quot;, Helvetica, Arial, sans-serif" font-size="10" fill="#22c55e"
           >0</text>
  <!-- axes -->
  <line x1="58" y1="50" x2="58" y2="240"
        stroke="#e1e4e8" stroke-width="1" />
  <line x1="58" y1="240" x2="848" y2="240"
        stroke="#e1e4e8" stroke-width="1" />
  <line x1="848" y1="50" x2="848" y2="240"
           stroke="#e1e4e8" stroke-width="1" />
  <!-- x-axis labels -->
  <text x="74" y="256" text-anchor="middle"
           font-family="-apple-system, BlinkMacSystemFont, &quot;Segoe UI&quot;, Helvetica, Arial, sans-serif" font-size="10" fill="#586069"
           >Sep 28</text>
  <text x="322" y="256" text-anchor="middle"
           font-family="-apple-system, BlinkMacSystemFont, &quot;Segoe UI&quot;, Helvetica, Arial, sans-serif" font-size="10" fill="#586069"
           >Nov 23</text>
  <text x="570" y="256" text-anchor="middle"
           font-family="-apple-system, BlinkMacSystemFont, &quot;Segoe UI&quot;, Helvetica, Arial, sans-serif" font-size="10" fill="#586069"
           >Jan 18</text>
  <text x="818" y="256" text-anchor="middle"
           font-family="-apple-system, BlinkMacSystemFont, &quot;Segoe UI&quot;, Helvetica, Arial, sans-serif" font-size="10" fill="#586069"
           >Mar 15</text>
</svg>