<svg xmlns="http://www.w3.org/2000/svg" width="900" height="268" viewBox="0 0 900 268">
  <rect width="900" height="268" fill="#ffffff" rx="6" ry="6" />
  <!-- title -->
  <text x="450" y="20" text-anchor="middle"
        font-family="-apple-system, BlinkMacSystemFont, &quot;Segoe UI&quot;, Helvetica, Arial, sans-serif" font-size="14" font-weight="600" fill="#24292e"
        >Event Listings — Record Growth</text>
  <!-- legend -->
  <circle cx="365" cy="31" r="4" fill="#3b82f6" />
  <text x="373" y="34" font-family="-apple-system, BlinkMacSystemFont, &quot;Segoe UI&quot;, Helvetica, Arial, sans-serif" font-size="11" fill="#586069">Total Records</text>
  <circle cx="455" cy="31" r="4" fill="#22c55e" />
  <text x="463" y="34" font-family="-apple-system, BlinkMacSystemFont, &quot;Segoe UI&quot;, Helvetica, Arial, sans-serif" font-size="11" fill="#586069">Added</text>
  <!-- grid lines -->
  <line x1="58" y1="52" x2="848" y2="52"
           stroke="#e1e4e8" stroke-width="1" stroke-dasharray="4,3" />
  <line x1="58" y1="145" x2="848" y2="145"
           stroke="#e1e4e8" stroke-width="1" stroke-dasharray="4,3" />
  <line x1="58" y1="236" x2="848" y2="236"
           stroke="#e1e4e8" stroke-width="1" stroke-dasharray="4,3" />
  <!-- bars (Added, right axis) -->
  <rect x="60" y="120" width="29" height="120"
          rx="1" fill="#22c55eb3" />
  <rect x="91" y="125" width="29" height="115"
          rx="1" fill="#22c55eb3" />
  <rect x="122" y="132" width="29" height="108"
          rx="1" fill="#22c55eb3" />
  <rect x="153" y="126" width="29" height="114"
          rx="1" fill="#22c55eb3" />
  <rect x="184" y="81" width="29" height="159"
          rx="1" fill="#22c55eb3" />
  <rect x="215" y="80" width="29" height="160"
          rx="1" fill="#22c55eb3" />
  <rect x="246" y="73" width="29" height="167"
          rx="1" fill="#22c55eb3" />
  <rect x="277" y="83" width="29" height="157"
          rx="1" fill="#22c55eb3" />
  <rect x="308" y="73" width="29" height="167"
          rx="1" fill="#22c55eb3" />
  <rect x="339" y="76" width="29" height="164"
          rx="1" fill="#22c55eb3" />
  <rect x="370" y="85" width="29" height="155"
          rx="1" fill="#22c55eb3" />
  <rect x="401" y="112" width="29" height="128"
          rx="1" fill="#22c55eb3" />
  <rect x="432" y="115" width="29" height="125"
          rx="1" fill="#22c55eb3" />
  <rect x="463" y="155" width="29" height="85"
          rx="1" fill="#22c55eb3" />
  <rect x="494" y="198" width="29" height="42"
          rx="1" fill="#22c55eb3" />
  <rect x="525" y="205" width="29" height="35"
          rx="1" fill="#22c55eb3" />
  <rect x="556" y="210" width="29" height="30"
          rx="1" fill="#22c55eb3" />
  <rect x="587" y="211" width="29" height="29"
          rx="1" fill="#22c55eb3" />
  <rect x="618" y="224" width="29" height="16"
          rx="1" fill="#22c55eb3" />
  <rect x="649" y="215" width="29" height="25"
          rx="1" fill="#22c55eb3" />
  <rect x="680" y="211" width="29" height="29"
          rx="1" fill="#22c55eb3" />
  <rect x="711" y="214" width="29" height="26"
          rx="1" fill="#22c55eb3" />
  <rect x="742" y="218" width="29" height="22"
          rx="1" fill="#22c55eb3" />
  <rect x="773" y="213" width="29" height="27"
          rx="1" fill="#22c55eb3" />
  <rect x="804" y="235" width="29" height="5"
          rx="1" fill="#22c55eb3" />
  <!-- line (Total, left axis) -->
  <polyline points="74,240 105,230 136,220 167,209 198,195 229,180 260,165 291,151 322,136 353,121 384,107 415,95 446,84 477,76 508,72 539,69 570,66 601,64 632,62 663,60 694,57 725,55 756,53 787,50 818,50" fill="none" stroke="#3b82f6" stroke-width="2" stroke-linejoin="round" stroke-linecap="round" />
  <!-- left y-axis labels (Total) -->
  <text x="52" y="56" text-anchor="end"
           font-family="-apple-system, BlinkMacSystemFont, &quot;Segoe UI&quot;, Helvetica, Arial, sans-serif" font-size="10" fill="#586069"
           >121M</text>
  <text x="52" y="149" text-anchor="end"
           font-family="-apple-system, BlinkMacSystemFont, &quot;Segoe UI&quot;, Helvetica, Arial, sans-serif" font-size="10" fill="#586069"
           >90M</text>
  <text x="52" y="240" text-anchor="end"
           font-family="-apple-system, BlinkMacSystemFont, &quot;Segoe UI&quot;, Helvetica, Arial, sans-serif" font-size="10" fill="#586069"
           >60M</text>
  <!-- right y-axis labels (Added) -->
  <text x="854" y="56" text-anchor="start"
           font-family="-apple-system, BlinkMacSystemFont, &quot;Segoe UI&quot;, Helvetica, Arial, sans-serif" font-size="10" fill="#22c55e"
           >5M</text>
  <text x="854" y="149" text-anchor="start"
           font-family="-apple-system, BlinkMacSystemFont, &quot;Segoe UI&quot;, Helvetica, Arial, sans-serif" font-size="10" fill="#22c55e"
           >2M</text>
  <text x="854" y="240" text-anchor="start"
           font-family="-apple-system, BlinkMacSystemFont, &quot;Segoe UI&quot;, Helvetica, Arial, sans-serif" font-size="10" fill="#22c55e"
           >0</text>
  <!-- axes -->
  <line x1="58" y1="50" x2="58" y2="240"
        stroke="#e1e4e8" stroke-width="1" />
  <line x1="58" y1="240" x2="848" y2="240"
        stroke="#e1e4e8" stroke-width="1" />
  <line x1="848" y1="50" x2="848" y2="240"
           stroke="#e1e4e8" stroke-width="1" />
  <!-- x-axis labels -->
  <text x="74" y="256" text-anchor="middle"
           font-family="-apple-system, BlinkMacSystemFont, &quot;Segoe UI&quot;, Helvetica, Arial, sans-serif" font-size="10" fill="#586069"
           >Jan 11</text>
  <text x="322" y="256" text-anchor="middle"
           font-family="-apple-system, BlinkMacSystemFont, &quot;Segoe UI&quot;, Helvetica, Arial, sans-serif" font-size="10" fill="#586069"
           >Mar 8</text>
  <text x="570" y="256" text-anchor="middle"
           font-family="-apple-system, BlinkMacSystemFont, &quot;Segoe UI&quot;, Helvetica, Arial, sans-serif" font-size="10" fill="#586069"
           >May 3</text>
  <text x="818" y="256" text-anchor="middle"
           font-family="-apple-system, BlinkMacSystemFont, &quot;Segoe UI&quot;, Helvetica, Arial, sans-serif" font-size="10" fill="#586069"
           >Jun 28</text>
</svg>