<svg xmlns="http://www.w3.org/2000/svg" width="900" height="268" viewBox="0 0 900 268">
  <rect width="900" height="268" fill="#ffffff" rx="6" ry="6" />
  <!-- title -->
  <text x="450" y="20" text-anchor="middle"
        font-family="-apple-system, BlinkMacSystemFont, &quot;Segoe UI&quot;, Helvetica, Arial, sans-serif" font-size="14" font-weight="600" fill="#24292e"
        >Event Listings — Record Growth</text>
  <!-- legend -->
  <circle cx="365" cy="31" r="4" fill="#3b82f6" />
  <text x="373" y="34" font-family="-apple-system, BlinkMacSystemFont, &quot;Segoe UI&quot;, Helvetica, Arial, sans-serif" font-size="11" fill="#586069">Total Records</text>
  <circle cx="455" cy="31" r="4" fill="#22c55e" />
  <text x="463" y="34" font-family="-apple-system, BlinkMacSystemFont, &quot;Segoe UI&quot;, Helvetica, Arial, sans-serif" font-size="11" fill="#586069">Added</text>
  <!-- grid lines -->
  <line x1="58" y1="52" x2="848" y2="52"
           stroke="#e1e4e8" stroke-width="1" stroke-dasharray="4,3" />
  <line x1="58" y1="145" x2="848" y2="145"
           stroke="#e1e4e8" stroke-width="1" stroke-dasharray="4,3" />
  <line x1="58" y1="236" x2="848" y2="236"
           stroke="#e1e4e8" stroke-width="1" stroke-dasharray="4,3" />
  <!-- bars (Added, right axis) -->
  <rect x="59" y="73" width="28" height="167"
          rx="1" fill="#22c55eb3" />
  <rect x="89" y="76" width="28" height="164"
          rx="1" fill="#22c55eb3" />
  <rect x="119" y="129" width="28" height="111"
          rx="1" fill="#22c55eb3" />
  <rect x="149" y="184" width="28" height="56"
          rx="1" fill="#22c55eb3" />
  <rect x="179" y="194" width="28" height="46"
          rx="1" fill="#22c55eb3" />
  <rect x="209" y="199" width="28" height="41"
          rx="1" fill="#22c55eb3" />
  <rect x="239" y="191" width="28" height="49"
          rx="1" fill="#22c55eb3" />
  <rect x="269" y="215" width="28" height="25"
          rx="1" fill="#22c55eb3" />
  <rect x="299" y="204" width="28" height="36"
          rx="1" fill="#22c55eb3" />
  <rect x="329" y="195" width="28" height="45"
          rx="1" fill="#22c55eb3" />
  <rect x="359" y="196" width="28" height="44"
          rx="1" fill="#22c55eb3" />
  <rect x="389" y="204" width="28" height="36"
          rx="1" fill="#22c55eb3" />
  <rect x="419" y="191" width="28" height="49"
          rx="1" fill="#22c55eb3" />
  <rect x="449" y="210" width="28" height="30"
          rx="1" fill="#22c55eb3" />
  <rect x="479" y="202" width="28" height="38"
          rx="1" fill="#22c55eb3" />
  <rect x="509" y="166" width="28" height="74"
          rx="1" fill="#22c55eb3" />
  <rect x="539" y="170" width="28" height="70"
          rx="1" fill="#22c55eb3" />
  <rect x="569" y="194" width="28" height="46"
          rx="1" fill="#22c55eb3" />
  <rect x="599" y="191" width="28" height="49"
          rx="1" fill="#22c55eb3" />
  <rect x="629" y="124" width="28" height="116"
          rx="1" fill="#22c55eb3" />
  <rect x="659" y="145" width="28" height="95"
          rx="1" fill="#22c55eb3" />
  <rect x="689" y="150" width="28" height="90"
          rx="1" fill="#22c55eb3" />
  <rect x="719" y="176" width="28" height="64"
          rx="1" fill="#22c55eb3" />
  <rect x="749" y="177" width="28" height="63"
          rx="1" fill="#22c55eb3" />
  <rect x="779" y="171" width="28" height="69"
          rx="1" fill="#22c55eb3" />
  <rect x="809" y="184" width="28" height="56"
          rx="1" fill="#22c55eb3" />
  <!-- line (Total, left axis) -->
  <polyline points="73,240 103,220 133,207 163,200 193,194 223,189 253,183 283,180 313,176 343,170 373,165 403,161 433,155 463,151 493,146 523,137 553,129 583,123 613,117 643,103 673,92 703,81 733,73 763,65 793,57 823,50" fill="none" stroke="#3b82f6" stroke-width="2" stroke-linejoin="round" stroke-linecap="round" />
  <!-- left y-axis labels (Total) -->
  <text x="52" y="56" text-anchor="end"
           font-family="-apple-system, BlinkMacSystemFont, &quot;Segoe UI&quot;, Helvetica, Arial, sans-serif" font-size="10" fill="#586069"
           >142M</text>
  <text x="52" y="149" text-anchor="end"
           font-family="-apple-system, BlinkMacSystemFont, &quot;Segoe UI&quot;, Helvetica, Arial, sans-serif" font-size="10" fill="#586069"
           >124M</text>
  <text x="52" y="240" text-anchor="end"
           font-family="-apple-system, BlinkMacSystemFont, &quot;Segoe UI&quot;, Helvetica, Arial, sans-serif" font-size="10" fill="#586069"
           >107M</text>
  <!-- right y-axis labels (Added) -->
  <text x="854" y="56" text-anchor="start"
           font-family="-apple-system, BlinkMacSystemFont, &quot;Segoe UI&quot;, Helvetica, Arial, sans-serif" font-size="10" fill="#22c55e"
           >4M</text>
  <text x="854" y="149" text-anchor="start"
           font-family="-apple-system, BlinkMacSystemFont, &quot;Segoe UI&quot;, Helvetica, Arial, sans-serif" font-size="10" fill="#22c55e"
           >2M</text>
  <text x="854" y="240" text-anchor="start"
           font-family="-apple-system, BlinkMacSystemFont, &quot;Segoe UI&quot;, Helvetica, Arial, sans-serif" font-size="10" fill="#22c55e"
           >0</text>
  <!-- axes -->
  <line x1="58" y1="50" x2="58" y2="240"
        stroke="#e1e4e8" stroke-width="1" />
  <line x1="58" y1="240" x2="848" y2="240"
        stroke="#e1e4e8" stroke-width="1" />
  <line x1="848" y1="50" x2="848" y2="240"
           stroke="#e1e4e8" stroke-width="1" />
  <!-- x-axis labels -->
  <text x="73" y="256" text-anchor="middle"
           font-family="-apple-system, BlinkMacSystemFont, &quot;Segoe UI&quot;, Helvetica, Arial, sans-serif" font-size="10" fill="#586069"
           >Mar 29</text>
  <text x="313" y="256" text-anchor="middle"
           font-family="-apple-system, BlinkMacSystemFont, &quot;Segoe UI&quot;, Helvetica, Arial, sans-serif" font-size="10" fill="#586069"
           >May 24</text>
  <text x="553" y="256" text-anchor="middle"
           font-family="-apple-system, BlinkMacSystemFont, &quot;Segoe UI&quot;, Helvetica, Arial, sans-serif" font-size="10" fill="#586069"
           >Jul 19</text>
  <text x="793" y="256" text-anchor="middle"
           font-family="-apple-system, BlinkMacSystemFont, &quot;Segoe UI&quot;, Helvetica, Arial, sans-serif" font-size="10" fill="#586069"
           >Sep 13</text>
  <text x="823" y="256" text-anchor="middle"
           font-family="-apple-system, BlinkMacSystemFont, &quot;Segoe UI&quot;, Helvetica, Arial, sans-serif" font-size="10" fill="#586069"
           >Sep 20</text>
</svg>