<svg xmlns="http://www.w3.org/2000/svg" width="900" height="268" viewBox="0 0 900 268">
  <rect width="900" height="268" fill="#ffffff" rx="6" ry="6" />
  <!-- title -->
  <text x="450" y="20" text-anchor="middle"
        font-family="-apple-system, BlinkMacSystemFont, &quot;Segoe UI&quot;, Helvetica, Arial, sans-serif" font-size="14" font-weight="600" fill="#24292e"
        >Event Listings — Record Growth</text>
  <!-- legend -->
  <circle cx="365" cy="31" r="4" fill="#3b82f6" />
  <text x="373" y="34" font-family="-apple-system, BlinkMacSystemFont, &quot;Segoe UI&quot;, Helvetica, Arial, sans-serif" font-size="11" fill="#586069">Total Records</text>
  <circle cx="455" cy="31" r="4" fill="#22c55e" />
  <text x="463" y="34" font-family="-apple-system, BlinkMacSystemFont, &quot;Segoe UI&quot;, Helvetica, Arial, sans-serif" font-size="11" fill="#586069">Added</text>
  <!-- grid lines -->
  <line x1="58" y1="52" x2="848" y2="52"
           stroke="#e1e4e8" stroke-width="1" stroke-dasharray="4,3" />
  <line x1="58" y1="145" x2="848" y2="145"
           stroke="#e1e4e8" stroke-width="1" stroke-dasharray="4,3" />
  <line x1="58" y1="236" x2="848" y2="236"
           stroke="#e1e4e8" stroke-width="1" stroke-dasharray="4,3" />
  <!-- bars (Added, right axis) -->
  <rect x="59" y="217" width="28" height="23"
          rx="1" fill="#22c55eb3" />
  <rect x="89" y="219" width="28" height="21"
          rx="1" fill="#22c55eb3" />
  <rect x="119" y="189" width="28" height="51"
          rx="1" fill="#22c55eb3" />
  <rect x="149" y="145" width="28" height="95"
          rx="1" fill="#22c55eb3" />
  <rect x="179" y="108" width="28" height="132"
          rx="1" fill="#22c55eb3" />
  <rect x="209" y="110" width="28" height="130"
          rx="1" fill="#22c55eb3" />
  <rect x="239" y="104" width="28" height="136"
          rx="1" fill="#22c55eb3" />
  <rect x="269" y="161" width="28" height="79"
          rx="1" fill="#22c55eb3" />
  <rect x="299" y="163" width="28" height="77"
          rx="1" fill="#22c55eb3" />
  <rect x="329" y="155" width="28" height="85"
          rx="1" fill="#22c55eb3" />
  <rect x="359" y="155" width="28" height="85"
          rx="1" fill="#22c55eb3" />
  <rect x="389" y="147" width="28" height="93"
          rx="1" fill="#22c55eb3" />
  <rect x="419" y="159" width="28" height="81"
          rx="1" fill="#22c55eb3" />
  <rect x="449" y="154" width="28" height="86"
          rx="1" fill="#22c55eb3" />
  <rect x="479" y="164" width="28" height="76"
          rx="1" fill="#22c55eb3" />
  <rect x="509" y="172" width="28" height="68"
          rx="1" fill="#22c55eb3" />
  <rect x="539" y="171" width="28" height="69"
          rx="1" fill="#22c55eb3" />
  <rect x="569" y="141" width="28" height="99"
          rx="1" fill="#22c55eb3" />
  <rect x="599" y="145" width="28" height="95"
          rx="1" fill="#22c55eb3" />
  <rect x="629" y="153" width="28" height="87"
          rx="1" fill="#22c55eb3" />
  <rect x="659" y="142" width="28" height="98"
          rx="1" fill="#22c55eb3" />
  <rect x="689" y="101" width="28" height="139"
          rx="1" fill="#22c55eb3" />
  <rect x="719" y="92" width="28" height="148"
          rx="1" fill="#22c55eb3" />
  <rect x="749" y="73" width="28" height="167"
          rx="1" fill="#22c55eb3" />
  <rect x="779" y="113" width="28" height="127"
          rx="1" fill="#22c55eb3" />
  <rect x="809" y="239" width="28" height="1"
          rx="1" fill="#22c55eb3" />
  <!-- line (Total, left axis) -->
  <polyline points="73,240 103,238 133,234 163,226 193,216 223,205 253,194 283,187 313,181 343,174 373,167 403,160 433,153 463,146 493,140 523,134 553,128 583,120 613,113 643,106 673,98 703,86 733,74 763,60 793,50 823,50" fill="none" stroke="#3b82f6" stroke-width="2" stroke-linejoin="round" stroke-linecap="round" />
  <!-- left y-axis labels (Total) -->
  <text x="52" y="56" text-anchor="end"
           font-family="-apple-system, BlinkMacSystemFont, &quot;Segoe UI&quot;, Helvetica, Arial, sans-serif" font-size="10" fill="#586069"
           >94M</text>
  <text x="52" y="149" text-anchor="end"
           font-family="-apple-system, BlinkMacSystemFont, &quot;Segoe UI&quot;, Helvetica, Arial, sans-serif" font-size="10" fill="#586069"
           >49M</text>
  <text x="52" y="240" text-anchor="end"
           font-family="-apple-system, BlinkMacSystemFont, &quot;Segoe UI&quot;, Helvetica, Arial, sans-serif" font-size="10" fill="#586069"
           >4M</text>
  <!-- right y-axis labels (Added) -->
  <text x="854" y="56" text-anchor="start"
           font-family="-apple-system, BlinkMacSystemFont, &quot;Segoe UI&quot;, Helvetica, Arial, sans-serif" font-size="10" fill="#22c55e"
           >6M</text>
  <text x="854" y="149" text-anchor="start"
           font-family="-apple-system, BlinkMacSystemFont, &quot;Segoe UI&quot;, Helvetica, Arial, sans-serif" font-size="10" fill="#22c55e"
           >3M</text>
  <text x="854" y="240" text-anchor="start"
           font-family="-apple-system, BlinkMacSystemFont, &quot;Segoe UI&quot;, Helvetica, Arial, sans-serif" font-size="10" fill="#22c55e"
           >0</text>
  <!-- axes -->
  <line x1="58" y1="50" x2="58" y2="240"
        stroke="#e1e4e8" stroke-width="1" />
  <line x1="58" y1="240" x2="848" y2="240"
        stroke="#e1e4e8" stroke-width="1" />
  <line x1="848" y1="50" x2="848" y2="240"
           stroke="#e1e4e8" stroke-width="1" />
  <!-- x-axis labels -->
  <text x="73" y="256" text-anchor="middle"
           font-family="-apple-system, BlinkMacSystemFont, &quot;Segoe UI&quot;, Helvetica, Arial, sans-serif" font-size="10" fill="#586069"
           >Sep 14</text>
  <text x="313" y="256" text-anchor="middle"
           font-family="-apple-system, BlinkMacSystemFont, &quot;Segoe UI&quot;, Helvetica, Arial, sans-serif" font-size="10" fill="#586069"
           >Nov 9</text>
  <text x="553" y="256" text-anchor="middle"
           font-family="-apple-system, BlinkMacSystemFont, &quot;Segoe UI&quot;, Helvetica, Arial, sans-serif" font-size="10" fill="#586069"
           >Jan 4</text>
  <text x="793" y="256" text-anchor="middle"
           font-family="-apple-system, BlinkMacSystemFont, &quot;Segoe UI&quot;, Helvetica, Arial, sans-serif" font-size="10" fill="#586069"
           >Mar 1</text>
  <text x="823" y="256" text-anchor="middle"
           font-family="-apple-system, BlinkMacSystemFont, &quot;Segoe UI&quot;, Helvetica, Arial, sans-serif" font-size="10" fill="#586069"
           >Mar 8</text>
</svg>