<svg xmlns="http://www.w3.org/2000/svg" width="900" height="268" viewBox="0 0 900 268">
  <rect width="900" height="268" fill="#ffffff" rx="6" ry="6" />
  <!-- title -->
  <text x="450" y="20" text-anchor="middle"
        font-family="-apple-system, BlinkMacSystemFont, &quot;Segoe UI&quot;, Helvetica, Arial, sans-serif" font-size="14" font-weight="600" fill="#24292e"
        >Event Listings — Record Growth</text>
  <!-- legend -->
  <circle cx="365" cy="31" r="4" fill="#3b82f6" />
  <text x="373" y="34" font-family="-apple-system, BlinkMacSystemFont, &quot;Segoe UI&quot;, Helvetica, Arial, sans-serif" font-size="11" fill="#586069">Total Records</text>
  <circle cx="455" cy="31" r="4" fill="#22c55e" />
  <text x="463" y="34" font-family="-apple-system, BlinkMacSystemFont, &quot;Segoe UI&quot;, Helvetica, Arial, sans-serif" font-size="11" fill="#586069">Added</text>
  <!-- grid lines -->
  <line x1="58" y1="52" x2="848" y2="52"
           stroke="#e1e4e8" stroke-width="1" stroke-dasharray="4,3" />
  <line x1="58" y1="145" x2="848" y2="145"
           stroke="#e1e4e8" stroke-width="1" stroke-dasharray="4,3" />
  <line x1="58" y1="236" x2="848" y2="236"
           stroke="#e1e4e8" stroke-width="1" stroke-dasharray="4,3" />
  <!-- bars (Added, right axis) -->
  <rect x="59" y="152" width="28" height="88"
          rx="1" fill="#22c55eb3" />
  <rect x="89" y="153" width="28" height="87"
          rx="1" fill="#22c55eb3" />
  <rect x="119" y="121" width="28" height="119"
          rx="1" fill="#22c55eb3" />
  <rect x="149" y="126" width="28" height="114"
          rx="1" fill="#22c55eb3" />
  <rect x="179" y="133" width="28" height="107"
          rx="1" fill="#22c55eb3" />
  <rect x="209" y="127" width="28" height="113"
          rx="1" fill="#22c55eb3" />
  <rect x="239" y="80" width="28" height="160"
          rx="1" fill="#22c55eb3" />
  <rect x="269" y="79" width="28" height="161"
          rx="1" fill="#22c55eb3" />
  <rect x="299" y="73" width="28" height="167"
          rx="1" fill="#22c55eb3" />
  <rect x="329" y="84" width="28" height="156"
          rx="1" fill="#22c55eb3" />
  <rect x="359" y="74" width="28" height="166"
          rx="1" fill="#22c55eb3" />
  <rect x="389" y="78" width="28" height="162"
          rx="1" fill="#22c55eb3" />
  <rect x="419" y="86" width="28" height="154"
          rx="1" fill="#22c55eb3" />
  <rect x="449" y="113" width="28" height="127"
          rx="1" fill="#22c55eb3" />
  <rect x="479" y="116" width="28" height="124"
          rx="1" fill="#22c55eb3" />
  <rect x="509" y="156" width="28" height="84"
          rx="1" fill="#22c55eb3" />
  <rect x="539" y="198" width="28" height="42"
          rx="1" fill="#22c55eb3" />
  <rect x="569" y="205" width="28" height="35"
          rx="1" fill="#22c55eb3" />
  <rect x="599" y="210" width="28" height="30"
          rx="1" fill="#22c55eb3" />
  <rect x="629" y="207" width="28" height="33"
          rx="1" fill="#22c55eb3" />
  <rect x="659" y="222" width="28" height="18"
          rx="1" fill="#22c55eb3" />
  <rect x="689" y="213" width="28" height="27"
          rx="1" fill="#22c55eb3" />
  <rect x="719" y="198" width="28" height="42"
          rx="1" fill="#22c55eb3" />
  <rect x="749" y="196" width="28" height="44"
          rx="1" fill="#22c55eb3" />
  <rect x="779" y="207" width="28" height="33"
          rx="1" fill="#22c55eb3" />
  <rect x="809" y="230" width="28" height="10"
          rx="1" fill="#22c55eb3" />
  <!-- line (Total, left axis) -->
  <polyline points="73,240 103,233 133,223 163,214 193,205 223,196 253,183 283,169 313,156 343,143 373,129 403,116 433,103 463,93 493,83 523,76 553,72 583,69 613,67 643,64 673,63 703,61 733,57 763,54 793,51 823,50" fill="none" stroke="#3b82f6" stroke-width="2" stroke-linejoin="round" stroke-linecap="round" />
  <!-- left y-axis labels (Total) -->
  <text x="52" y="56" text-anchor="end"
           font-family="-apple-system, BlinkMacSystemFont, &quot;Segoe UI&quot;, Helvetica, Arial, sans-serif" font-size="10" fill="#586069"
           >122M</text>
  <text x="52" y="149" text-anchor="end"
           font-family="-apple-system, BlinkMacSystemFont, &quot;Segoe UI&quot;, Helvetica, Arial, sans-serif" font-size="10" fill="#586069"
           >88M</text>
  <text x="52" y="240" text-anchor="end"
           font-family="-apple-system, BlinkMacSystemFont, &quot;Segoe UI&quot;, Helvetica, Arial, sans-serif" font-size="10" fill="#586069"
           >54M</text>
  <!-- right y-axis labels (Added) -->
  <text x="854" y="56" text-anchor="start"
           font-family="-apple-system, BlinkMacSystemFont, &quot;Segoe UI&quot;, Helvetica, Arial, sans-serif" font-size="10" fill="#22c55e"
           >5M</text>
  <text x="854" y="149" text-anchor="start"
           font-family="-apple-system, BlinkMacSystemFont, &quot;Segoe UI&quot;, Helvetica, Arial, sans-serif" font-size="10" fill="#22c55e"
           >2M</text>
  <text x="854" y="240" text-anchor="start"
           font-family="-apple-system, BlinkMacSystemFont, &quot;Segoe UI&quot;, Helvetica, Arial, sans-serif" font-size="10" fill="#22c55e"
           >0</text>
  <!-- axes -->
  <line x1="58" y1="50" x2="58" y2="240"
        stroke="#e1e4e8" stroke-width="1" />
  <line x1="58" y1="240" x2="848" y2="240"
        stroke="#e1e4e8" stroke-width="1" />
  <line x1="848" y1="50" x2="848" y2="240"
           stroke="#e1e4e8" stroke-width="1" />
  <!-- x-axis labels -->
  <text x="73" y="256" text-anchor="middle"
           font-family="-apple-system, BlinkMacSystemFont, &quot;Segoe UI&quot;, Helvetica, Arial, sans-serif" font-size="10" fill="#586069"
           >Dec 28</text>
  <text x="313" y="256" text-anchor="middle"
           font-family="-apple-system, BlinkMacSystemFont, &quot;Segoe UI&quot;, Helvetica, Arial, sans-serif" font-size="10" fill="#586069"
           >Feb 22</text>
  <text x="553" y="256" text-anchor="middle"
           font-family="-apple-system, BlinkMacSystemFont, &quot;Segoe UI&quot;, Helvetica, Arial, sans-serif" font-size="10" fill="#586069"
           >Apr 19</text>
  <text x="793" y="256" text-anchor="middle"
           font-family="-apple-system, BlinkMacSystemFont, &quot;Segoe UI&quot;, Helvetica, Arial, sans-serif" font-size="10" fill="#586069"
           >Jun 14</text>
  <text x="823" y="256" text-anchor="middle"
           font-family="-apple-system, BlinkMacSystemFont, &quot;Segoe UI&quot;, Helvetica, Arial, sans-serif" font-size="10" fill="#586069"
           >Jun 21</text>
</svg>