<svg xmlns="http://www.w3.org/2000/svg" width="900" height="268" viewBox="0 0 900 268">
  <rect width="900" height="268" fill="#ffffff" rx="6" ry="6" />
  <!-- title -->
  <text x="450" y="20" text-anchor="middle"
        font-family="-apple-system, BlinkMacSystemFont, &quot;Segoe UI&quot;, Helvetica, Arial, sans-serif" font-size="14" font-weight="600" fill="#24292e"
        >Event Listings — Record Growth</text>
  <!-- legend -->
  <circle cx="365" cy="31" r="4" fill="#3b82f6" />
  <text x="373" y="34" font-family="-apple-system, BlinkMacSystemFont, &quot;Segoe UI&quot;, Helvetica, Arial, sans-serif" font-size="11" fill="#586069">Total Records</text>
  <circle cx="455" cy="31" r="4" fill="#22c55e" />
  <text x="463" y="34" font-family="-apple-system, BlinkMacSystemFont, &quot;Segoe UI&quot;, Helvetica, Arial, sans-serif" font-size="11" fill="#586069">Added</text>
  <!-- grid lines -->
  <line x1="58" y1="52" x2="848" y2="52"
           stroke="#e1e4e8" stroke-width="1" stroke-dasharray="4,3" />
  <line x1="58" y1="145" x2="848" y2="145"
           stroke="#e1e4e8" stroke-width="1" stroke-dasharray="4,3" />
  <line x1="58" y1="236" x2="848" y2="236"
           stroke="#e1e4e8" stroke-width="1" stroke-dasharray="4,3" />
  <!-- bars (Added, right axis) -->
  <rect x="60" y="73" width="29" height="167"
          rx="1" fill="#22c55eb3" />
  <rect x="91" y="83" width="29" height="157"
          rx="1" fill="#22c55eb3" />
  <rect x="122" y="73" width="29" height="167"
          rx="1" fill="#22c55eb3" />
  <rect x="153" y="76" width="29" height="164"
          rx="1" fill="#22c55eb3" />
  <rect x="184" y="85" width="29" height="155"
          rx="1" fill="#22c55eb3" />
  <rect x="215" y="112" width="29" height="128"
          rx="1" fill="#22c55eb3" />
  <rect x="246" y="115" width="29" height="125"
          rx="1" fill="#22c55eb3" />
  <rect x="277" y="155" width="29" height="85"
          rx="1" fill="#22c55eb3" />
  <rect x="308" y="197" width="29" height="43"
          rx="1" fill="#22c55eb3" />
  <rect x="339" y="205" width="29" height="35"
          rx="1" fill="#22c55eb3" />
  <rect x="370" y="209" width="29" height="31"
          rx="1" fill="#22c55eb3" />
  <rect x="401" y="204" width="29" height="36"
          rx="1" fill="#22c55eb3" />
  <rect x="432" y="222" width="29" height="18"
          rx="1" fill="#22c55eb3" />
  <rect x="463" y="213" width="29" height="27"
          rx="1" fill="#22c55eb3" />
  <rect x="494" y="205" width="29" height="35"
          rx="1" fill="#22c55eb3" />
  <rect x="525" y="204" width="29" height="36"
          rx="1" fill="#22c55eb3" />
  <rect x="556" y="213" width="29" height="27"
          rx="1" fill="#22c55eb3" />
  <rect x="587" y="203" width="29" height="37"
          rx="1" fill="#22c55eb3" />
  <rect x="618" y="217" width="29" height="23"
          rx="1" fill="#22c55eb3" />
  <rect x="649" y="212" width="29" height="28"
          rx="1" fill="#22c55eb3" />
  <rect x="680" y="188" width="29" height="52"
          rx="1" fill="#22c55eb3" />
  <rect x="711" y="190" width="29" height="50"
          rx="1" fill="#22c55eb3" />
  <rect x="742" y="205" width="29" height="35"
          rx="1" fill="#22c55eb3" />
  <rect x="773" y="198" width="29" height="42"
          rx="1" fill="#22c55eb3" />
  <rect x="804" y="193" width="29" height="47"
          rx="1" fill="#22c55eb3" />
  <!-- line (Total, left axis) -->
  <polyline points="74,240 105,221 136,201 167,181 198,163 229,147 260,132 291,122 322,117 353,113 384,109 415,105 446,103 477,99 508,95 539,91 570,88 601,83 632,80 663,77 694,71 725,65 756,61 787,56 818,50" fill="none" stroke="#3b82f6" stroke-width="2" stroke-linejoin="round" stroke-linecap="round" />
  <!-- left y-axis labels (Total) -->
  <text x="52" y="56" text-anchor="end"
           font-family="-apple-system, BlinkMacSystemFont, &quot;Segoe UI&quot;, Helvetica, Arial, sans-serif" font-size="10" fill="#586069"
           >131M</text>
  <text x="52" y="149" text-anchor="end"
           font-family="-apple-system, BlinkMacSystemFont, &quot;Segoe UI&quot;, Helvetica, Arial, sans-serif" font-size="10" fill="#586069"
           >107M</text>
  <text x="52" y="240" text-anchor="end"
           font-family="-apple-system, BlinkMacSystemFont, &quot;Segoe UI&quot;, Helvetica, Arial, sans-serif" font-size="10" fill="#586069"
           >84M</text>
  <!-- right y-axis labels (Added) -->
  <text x="854" y="56" text-anchor="start"
           font-family="-apple-system, BlinkMacSystemFont, &quot;Segoe UI&quot;, Helvetica, Arial, sans-serif" font-size="10" fill="#22c55e"
           >5M</text>
  <text x="854" y="149" text-anchor="start"
           font-family="-apple-system, BlinkMacSystemFont, &quot;Segoe UI&quot;, Helvetica, Arial, sans-serif" font-size="10" fill="#22c55e"
           >2M</text>
  <text x="854" y="240" text-anchor="start"
           font-family="-apple-system, BlinkMacSystemFont, &quot;Segoe UI&quot;, Helvetica, Arial, sans-serif" font-size="10" fill="#22c55e"
           >0</text>
  <!-- axes -->
  <line x1="58" y1="50" x2="58" y2="240"
        stroke="#e1e4e8" stroke-width="1" />
  <line x1="58" y1="240" x2="848" y2="240"
        stroke="#e1e4e8" stroke-width="1" />
  <line x1="848" y1="50" x2="848" y2="240"
           stroke="#e1e4e8" stroke-width="1" />
  <!-- x-axis labels -->
  <text x="74" y="256" text-anchor="middle"
           font-family="-apple-system, BlinkMacSystemFont, &quot;Segoe UI&quot;, Helvetica, Arial, sans-serif" font-size="10" fill="#586069"
           >Feb 22</text>
  <text x="322" y="256" text-anchor="middle"
           font-family="-apple-system, BlinkMacSystemFont, &quot;Segoe UI&quot;, Helvetica, Arial, sans-serif" font-size="10" fill="#586069"
           >Apr 19</text>
  <text x="570" y="256" text-anchor="middle"
           font-family="-apple-system, BlinkMacSystemFont, &quot;Segoe UI&quot;, Helvetica, Arial, sans-serif" font-size="10" fill="#586069"
           >Jun 14</text>
  <text x="818" y="256" text-anchor="middle"
           font-family="-apple-system, BlinkMacSystemFont, &quot;Segoe UI&quot;, Helvetica, Arial, sans-serif" font-size="10" fill="#586069"
           >Aug 9</text>
</svg>