<svg xmlns="http://www.w3.org/2000/svg" width="900" height="268" viewBox="0 0 900 268">
  <rect width="900" height="268" fill="#ffffff" rx="6" ry="6" />
  <!-- title -->
  <text x="450" y="20" text-anchor="middle"
        font-family="-apple-system, BlinkMacSystemFont, &quot;Segoe UI&quot;, Helvetica, Arial, sans-serif" font-size="14" font-weight="600" fill="#24292e"
        >Event Listings — Record Growth</text>
  <!-- legend -->
  <circle cx="365" cy="31" r="4" fill="#3b82f6" />
  <text x="373" y="34" font-family="-apple-system, BlinkMacSystemFont, &quot;Segoe UI&quot;, Helvetica, Arial, sans-serif" font-size="11" fill="#586069">Total Records</text>
  <circle cx="455" cy="31" r="4" fill="#22c55e" />
  <text x="463" y="34" font-family="-apple-system, BlinkMacSystemFont, &quot;Segoe UI&quot;, Helvetica, Arial, sans-serif" font-size="11" fill="#586069">Added</text>
  <!-- grid lines -->
  <line x1="58" y1="52" x2="848" y2="52"
           stroke="#e1e4e8" stroke-width="1" stroke-dasharray="4,3" />
  <line x1="58" y1="145" x2="848" y2="145"
           stroke="#e1e4e8" stroke-width="1" stroke-dasharray="4,3" />
  <line x1="58" y1="236" x2="848" y2="236"
           stroke="#e1e4e8" stroke-width="1" stroke-dasharray="4,3" />
  <!-- bars (Added, right axis) -->
  <rect x="59" y="153" width="32" height="87"
          rx="1" fill="#22c55eb3" />
  <rect x="93" y="155" width="32" height="85"
          rx="1" fill="#22c55eb3" />
  <rect x="127" y="148" width="32" height="92"
          rx="1" fill="#22c55eb3" />
  <rect x="161" y="148" width="32" height="92"
          rx="1" fill="#22c55eb3" />
  <rect x="195" y="139" width="32" height="101"
          rx="1" fill="#22c55eb3" />
  <rect x="229" y="152" width="32" height="88"
          rx="1" fill="#22c55eb3" />
  <rect x="263" y="148" width="32" height="92"
          rx="1" fill="#22c55eb3" />
  <rect x="297" y="158" width="32" height="82"
          rx="1" fill="#22c55eb3" />
  <rect x="331" y="165" width="32" height="75"
          rx="1" fill="#22c55eb3" />
  <rect x="365" y="166" width="32" height="74"
          rx="1" fill="#22c55eb3" />
  <rect x="399" y="138" width="32" height="102"
          rx="1" fill="#22c55eb3" />
  <rect x="433" y="143" width="32" height="97"
          rx="1" fill="#22c55eb3" />
  <rect x="467" y="149" width="32" height="91"
          rx="1" fill="#22c55eb3" />
  <rect x="501" y="143" width="32" height="97"
          rx="1" fill="#22c55eb3" />
  <rect x="535" y="105" width="32" height="135"
          rx="1" fill="#22c55eb3" />
  <rect x="569" y="103" width="32" height="137"
          rx="1" fill="#22c55eb3" />
  <rect x="603" y="97" width="32" height="143"
          rx="1" fill="#22c55eb3" />
  <rect x="637" y="97" width="32" height="143"
          rx="1" fill="#22c55eb3" />
  <rect x="671" y="86" width="32" height="154"
          rx="1" fill="#22c55eb3" />
  <rect x="705" y="83" width="32" height="157"
          rx="1" fill="#22c55eb3" />
  <rect x="739" y="73" width="32" height="167"
          rx="1" fill="#22c55eb3" />
  <rect x="773" y="116" width="32" height="124"
          rx="1" fill="#22c55eb3" />
  <rect x="807" y="180" width="32" height="60"
          rx="1" fill="#22c55eb3" />
  <!-- line (Total, left axis) -->
  <polyline points="75,240 109,233 143,226 177,219 211,211 245,204 279,196 313,190 347,184 381,178 415,170 449,162 483,155 517,147 551,136 585,125 619,114 653,103 687,90 721,78 755,65 789,55 823,50" fill="none" stroke="#3b82f6" stroke-width="2" stroke-linejoin="round" stroke-linecap="round" />
  <!-- left y-axis labels (Total) -->
  <text x="52" y="56" text-anchor="end"
           font-family="-apple-system, BlinkMacSystemFont, &quot;Segoe UI&quot;, Helvetica, Arial, sans-serif" font-size="10" fill="#586069"
           >112M</text>
  <text x="52" y="149" text-anchor="end"
           font-family="-apple-system, BlinkMacSystemFont, &quot;Segoe UI&quot;, Helvetica, Arial, sans-serif" font-size="10" fill="#586069"
           >71M</text>
  <text x="52" y="240" text-anchor="end"
           font-family="-apple-system, BlinkMacSystemFont, &quot;Segoe UI&quot;, Helvetica, Arial, sans-serif" font-size="10" fill="#586069"
           >29M</text>
  <!-- right y-axis labels (Added) -->
  <text x="854" y="56" text-anchor="start"
           font-family="-apple-system, BlinkMacSystemFont, &quot;Segoe UI&quot;, Helvetica, Arial, sans-serif" font-size="10" fill="#22c55e"
           >6M</text>
  <text x="854" y="149" text-anchor="start"
           font-family="-apple-system, BlinkMacSystemFont, &quot;Segoe UI&quot;, Helvetica, Arial, sans-serif" font-size="10" fill="#22c55e"
           >3M</text>
  <text x="854" y="240" text-anchor="start"
           font-family="-apple-system, BlinkMacSystemFont, &quot;Segoe UI&quot;, Helvetica, Arial, sans-serif" font-size="10" fill="#22c55e"
           >0</text>
  <!-- axes -->
  <line x1="58" y1="50" x2="58" y2="240"
        stroke="#e1e4e8" stroke-width="1" />
  <line x1="58" y1="240" x2="848" y2="240"
        stroke="#e1e4e8" stroke-width="1" />
  <line x1="848" y1="50" x2="848" y2="240"
           stroke="#e1e4e8" stroke-width="1" />
  <!-- x-axis labels -->
  <text x="75" y="256" text-anchor="middle"
           font-family="-apple-system, BlinkMacSystemFont, &quot;Segoe UI&quot;, Helvetica, Arial, sans-serif" font-size="10" fill="#586069"
           >Nov 2</text>
  <text x="313" y="256" text-anchor="middle"
           font-family="-apple-system, BlinkMacSystemFont, &quot;Segoe UI&quot;, Helvetica, Arial, sans-serif" font-size="10" fill="#586069"
           >Dec 21</text>
  <text x="551" y="256" text-anchor="middle"
           font-family="-apple-system, BlinkMacSystemFont, &quot;Segoe UI&quot;, Helvetica, Arial, sans-serif" font-size="10" fill="#586069"
           >Feb 8</text>
  <text x="789" y="256" text-anchor="middle"
           font-family="-apple-system, BlinkMacSystemFont, &quot;Segoe UI&quot;, Helvetica, Arial, sans-serif" font-size="10" fill="#586069"
           >Mar 29</text>
  <text x="823" y="256" text-anchor="middle"
           font-family="-apple-system, BlinkMacSystemFont, &quot;Segoe UI&quot;, Helvetica, Arial, sans-serif" font-size="10" fill="#586069"
           >Apr 5</text>
</svg>