<svg xmlns="http://www.w3.org/2000/svg" width="900" height="268" viewBox="0 0 900 268">
  <rect width="900" height="268" fill="#ffffff" rx="6" ry="6" />
  <!-- title -->
  <text x="450" y="20" text-anchor="middle"
        font-family="-apple-system, BlinkMacSystemFont, &quot;Segoe UI&quot;, Helvetica, Arial, sans-serif" font-size="14" font-weight="600" fill="#24292e"
        >Event Listings — Record Growth</text>
  <!-- legend -->
  <circle cx="365" cy="31" r="4" fill="#3b82f6" />
  <text x="373" y="34" font-family="-apple-system, BlinkMacSystemFont, &quot;Segoe UI&quot;, Helvetica, Arial, sans-serif" font-size="11" fill="#586069">Total Records</text>
  <circle cx="455" cy="31" r="4" fill="#22c55e" />
  <text x="463" y="34" font-family="-apple-system, BlinkMacSystemFont, &quot;Segoe UI&quot;, Helvetica, Arial, sans-serif" font-size="11" fill="#586069">Added</text>
  <!-- grid lines -->
  <line x1="58" y1="52" x2="848" y2="52"
           stroke="#e1e4e8" stroke-width="1" stroke-dasharray="4,3" />
  <line x1="58" y1="145" x2="848" y2="145"
           stroke="#e1e4e8" stroke-width="1" stroke-dasharray="4,3" />
  <line x1="58" y1="236" x2="848" y2="236"
           stroke="#e1e4e8" stroke-width="1" stroke-dasharray="4,3" />
  <!-- bars (Added, right axis) -->
  <rect x="59" y="143" width="30" height="97"
          rx="1" fill="#22c55eb3" />
  <rect x="91" y="145" width="30" height="95"
          rx="1" fill="#22c55eb3" />
  <rect x="123" y="138" width="30" height="102"
          rx="1" fill="#22c55eb3" />
  <rect x="155" y="138" width="30" height="102"
          rx="1" fill="#22c55eb3" />
  <rect x="187" y="128" width="30" height="112"
          rx="1" fill="#22c55eb3" />
  <rect x="219" y="143" width="30" height="97"
          rx="1" fill="#22c55eb3" />
  <rect x="251" y="138" width="30" height="102"
          rx="1" fill="#22c55eb3" />
  <rect x="283" y="150" width="30" height="90"
          rx="1" fill="#22c55eb3" />
  <rect x="315" y="157" width="30" height="83"
          rx="1" fill="#22c55eb3" />
  <rect x="347" y="158" width="30" height="82"
          rx="1" fill="#22c55eb3" />
  <rect x="379" y="126" width="30" height="114"
          rx="1" fill="#22c55eb3" />
  <rect x="411" y="131" width="30" height="109"
          rx="1" fill="#22c55eb3" />
  <rect x="443" y="138" width="30" height="102"
          rx="1" fill="#22c55eb3" />
  <rect x="475" y="132" width="30" height="108"
          rx="1" fill="#22c55eb3" />
  <rect x="507" y="87" width="30" height="153"
          rx="1" fill="#22c55eb3" />
  <rect x="539" y="86" width="30" height="154"
          rx="1" fill="#22c55eb3" />
  <rect x="571" y="80" width="30" height="160"
          rx="1" fill="#22c55eb3" />
  <rect x="603" y="88" width="30" height="152"
          rx="1" fill="#22c55eb3" />
  <rect x="635" y="75" width="30" height="165"
          rx="1" fill="#22c55eb3" />
  <rect x="667" y="73" width="30" height="167"
          rx="1" fill="#22c55eb3" />
  <rect x="699" y="79" width="30" height="161"
          rx="1" fill="#22c55eb3" />
  <rect x="731" y="78" width="30" height="162"
          rx="1" fill="#22c55eb3" />
  <rect x="763" y="94" width="30" height="146"
          rx="1" fill="#22c55eb3" />
  <rect x="795" y="238" width="30" height="2"
          rx="1" fill="#22c55eb3" />
  <!-- line (Total, left axis) -->
  <polyline points="74,240 106,233 138,226 170,219 202,211 234,205 266,197 298,191 330,185 362,180 394,172 426,164 458,157 490,149 522,139 554,128 586,117 618,106 650,95 682,83 714,72 746,60 778,50 810,50" fill="none" stroke="#3b82f6" stroke-width="2" stroke-linejoin="round" stroke-linecap="round" />
  <!-- left y-axis labels (Total) -->
  <text x="52" y="56" text-anchor="end"
           font-family="-apple-system, BlinkMacSystemFont, &quot;Segoe UI&quot;, Helvetica, Arial, sans-serif" font-size="10" fill="#586069"
           >115M</text>
  <text x="52" y="149" text-anchor="end"
           font-family="-apple-system, BlinkMacSystemFont, &quot;Segoe UI&quot;, Helvetica, Arial, sans-serif" font-size="10" fill="#586069"
           >72M</text>
  <text x="52" y="240" text-anchor="end"
           font-family="-apple-system, BlinkMacSystemFont, &quot;Segoe UI&quot;, Helvetica, Arial, sans-serif" font-size="10" fill="#586069"
           >29M</text>
  <!-- right y-axis labels (Added) -->
  <text x="854" y="56" text-anchor="start"
           font-family="-apple-system, BlinkMacSystemFont, &quot;Segoe UI&quot;, Helvetica, Arial, sans-serif" font-size="10" fill="#22c55e"
           >5M</text>
  <text x="854" y="149" text-anchor="start"
           font-family="-apple-system, BlinkMacSystemFont, &quot;Segoe UI&quot;, Helvetica, Arial, sans-serif" font-size="10" fill="#22c55e"
           >3M</text>
  <text x="854" y="240" text-anchor="start"
           font-family="-apple-system, BlinkMacSystemFont, &quot;Segoe UI&quot;, Helvetica, Arial, sans-serif" font-size="10" fill="#22c55e"
           >0</text>
  <!-- axes -->
  <line x1="58" y1="50" x2="58" y2="240"
        stroke="#e1e4e8" stroke-width="1" />
  <line x1="58" y1="240" x2="848" y2="240"
        stroke="#e1e4e8" stroke-width="1" />
  <line x1="848" y1="50" x2="848" y2="240"
           stroke="#e1e4e8" stroke-width="1" />
  <!-- x-axis labels -->
  <text x="74" y="256" text-anchor="middle"
           font-family="-apple-system, BlinkMacSystemFont, &quot;Segoe UI&quot;, Helvetica, Arial, sans-serif" font-size="10" fill="#586069"
           >Nov 2</text>
  <text x="298" y="256" text-anchor="middle"
           font-family="-apple-system, BlinkMacSystemFont, &quot;Segoe UI&quot;, Helvetica, Arial, sans-serif" font-size="10" fill="#586069"
           >Dec 21</text>
  <text x="522" y="256" text-anchor="middle"
           font-family="-apple-system, BlinkMacSystemFont, &quot;Segoe UI&quot;, Helvetica, Arial, sans-serif" font-size="10" fill="#586069"
           >Feb 8</text>
  <text x="746" y="256" text-anchor="middle"
           font-family="-apple-system, BlinkMacSystemFont, &quot;Segoe UI&quot;, Helvetica, Arial, sans-serif" font-size="10" fill="#586069"
           >Mar 29</text>
  <text x="810" y="256" text-anchor="middle"
           font-family="-apple-system, BlinkMacSystemFont, &quot;Segoe UI&quot;, Helvetica, Arial, sans-serif" font-size="10" fill="#586069"
           >Apr 12</text>
</svg>