<svg xmlns="http://www.w3.org/2000/svg" width="900" height="268" viewBox="0 0 900 268">
  <rect width="900" height="268" fill="#ffffff" rx="6" ry="6" />
  <!-- title -->
  <text x="450" y="20" text-anchor="middle"
        font-family="-apple-system, BlinkMacSystemFont, &quot;Segoe UI&quot;, Helvetica, Arial, sans-serif" font-size="14" font-weight="600" fill="#24292e"
        >Event Listings — Record Growth</text>
  <!-- legend -->
  <circle cx="365" cy="31" r="4" fill="#3b82f6" />
  <text x="373" y="34" font-family="-apple-system, BlinkMacSystemFont, &quot;Segoe UI&quot;, Helvetica, Arial, sans-serif" font-size="11" fill="#586069">Total Records</text>
  <circle cx="455" cy="31" r="4" fill="#22c55e" />
  <text x="463" y="34" font-family="-apple-system, BlinkMacSystemFont, &quot;Segoe UI&quot;, Helvetica, Arial, sans-serif" font-size="11" fill="#586069">Added</text>
  <!-- grid lines -->
  <line x1="58" y1="52" x2="848" y2="52"
           stroke="#e1e4e8" stroke-width="1" stroke-dasharray="4,3" />
  <line x1="58" y1="145" x2="848" y2="145"
           stroke="#e1e4e8" stroke-width="1" stroke-dasharray="4,3" />
  <line x1="58" y1="236" x2="848" y2="236"
           stroke="#e1e4e8" stroke-width="1" stroke-dasharray="4,3" />
  <!-- bars (Added, right axis) -->
  <rect x="59" y="125" width="30" height="115"
          rx="1" fill="#22c55eb3" />
  <rect x="91" y="132" width="30" height="108"
          rx="1" fill="#22c55eb3" />
  <rect x="123" y="126" width="30" height="114"
          rx="1" fill="#22c55eb3" />
  <rect x="155" y="81" width="30" height="159"
          rx="1" fill="#22c55eb3" />
  <rect x="187" y="80" width="30" height="160"
          rx="1" fill="#22c55eb3" />
  <rect x="219" y="73" width="30" height="167"
          rx="1" fill="#22c55eb3" />
  <rect x="251" y="83" width="30" height="157"
          rx="1" fill="#22c55eb3" />
  <rect x="283" y="73" width="30" height="167"
          rx="1" fill="#22c55eb3" />
  <rect x="315" y="76" width="30" height="164"
          rx="1" fill="#22c55eb3" />
  <rect x="347" y="85" width="30" height="155"
          rx="1" fill="#22c55eb3" />
  <rect x="379" y="112" width="30" height="128"
          rx="1" fill="#22c55eb3" />
  <rect x="411" y="115" width="30" height="125"
          rx="1" fill="#22c55eb3" />
  <rect x="443" y="155" width="30" height="85"
          rx="1" fill="#22c55eb3" />
  <rect x="475" y="198" width="30" height="42"
          rx="1" fill="#22c55eb3" />
  <rect x="507" y="205" width="30" height="35"
          rx="1" fill="#22c55eb3" />
  <rect x="539" y="210" width="30" height="30"
          rx="1" fill="#22c55eb3" />
  <rect x="571" y="211" width="30" height="29"
          rx="1" fill="#22c55eb3" />
  <rect x="603" y="224" width="30" height="16"
          rx="1" fill="#22c55eb3" />
  <rect x="635" y="215" width="30" height="25"
          rx="1" fill="#22c55eb3" />
  <rect x="667" y="211" width="30" height="29"
          rx="1" fill="#22c55eb3" />
  <rect x="699" y="214" width="30" height="26"
          rx="1" fill="#22c55eb3" />
  <rect x="731" y="218" width="30" height="22"
          rx="1" fill="#22c55eb3" />
  <rect x="763" y="213" width="30" height="27"
          rx="1" fill="#22c55eb3" />
  <rect x="795" y="235" width="30" height="5"
          rx="1" fill="#22c55eb3" />
  <!-- line (Total, left axis) -->
  <polyline points="74,240 106,230 138,219 170,203 202,188 234,172 266,157 298,141 330,125 362,110 394,98 426,86 458,77 490,73 522,70 554,67 586,64 618,63 650,60 682,58 714,55 746,53 778,50 810,50" fill="none" stroke="#3b82f6" stroke-width="2" stroke-linejoin="round" stroke-linecap="round" />
  <!-- left y-axis labels (Total) -->
  <text x="52" y="56" text-anchor="end"
           font-family="-apple-system, BlinkMacSystemFont, &quot;Segoe UI&quot;, Helvetica, Arial, sans-serif" font-size="10" fill="#586069"
           >121M</text>
  <text x="52" y="149" text-anchor="end"
           font-family="-apple-system, BlinkMacSystemFont, &quot;Segoe UI&quot;, Helvetica, Arial, sans-serif" font-size="10" fill="#586069"
           >92M</text>
  <text x="52" y="240" text-anchor="end"
           font-family="-apple-system, BlinkMacSystemFont, &quot;Segoe UI&quot;, Helvetica, Arial, sans-serif" font-size="10" fill="#586069"
           >63M</text>
  <!-- right y-axis labels (Added) -->
  <text x="854" y="56" text-anchor="start"
           font-family="-apple-system, BlinkMacSystemFont, &quot;Segoe UI&quot;, Helvetica, Arial, sans-serif" font-size="10" fill="#22c55e"
           >5M</text>
  <text x="854" y="149" text-anchor="start"
           font-family="-apple-system, BlinkMacSystemFont, &quot;Segoe UI&quot;, Helvetica, Arial, sans-serif" font-size="10" fill="#22c55e"
           >2M</text>
  <text x="854" y="240" text-anchor="start"
           font-family="-apple-system, BlinkMacSystemFont, &quot;Segoe UI&quot;, Helvetica, Arial, sans-serif" font-size="10" fill="#22c55e"
           >0</text>
  <!-- axes -->
  <line x1="58" y1="50" x2="58" y2="240"
        stroke="#e1e4e8" stroke-width="1" />
  <line x1="58" y1="240" x2="848" y2="240"
        stroke="#e1e4e8" stroke-width="1" />
  <line x1="848" y1="50" x2="848" y2="240"
           stroke="#e1e4e8" stroke-width="1" />
  <!-- x-axis labels -->
  <text x="74" y="256" text-anchor="middle"
           font-family="-apple-system, BlinkMacSystemFont, &quot;Segoe UI&quot;, Helvetica, Arial, sans-serif" font-size="10" fill="#586069"
           >Jan 18</text>
  <text x="298" y="256" text-anchor="middle"
           font-family="-apple-system, BlinkMacSystemFont, &quot;Segoe UI&quot;, Helvetica, Arial, sans-serif" font-size="10" fill="#586069"
           >Mar 8</text>
  <text x="522" y="256" text-anchor="middle"
           font-family="-apple-system, BlinkMacSystemFont, &quot;Segoe UI&quot;, Helvetica, Arial, sans-serif" font-size="10" fill="#586069"
           >Apr 26</text>
  <text x="746" y="256" text-anchor="middle"
           font-family="-apple-system, BlinkMacSystemFont, &quot;Segoe UI&quot;, Helvetica, Arial, sans-serif" font-size="10" fill="#586069"
           >Jun 14</text>
  <text x="810" y="256" text-anchor="middle"
           font-family="-apple-system, BlinkMacSystemFont, &quot;Segoe UI&quot;, Helvetica, Arial, sans-serif" font-size="10" fill="#586069"
           >Jun 28</text>
</svg>