<svg xmlns="http://www.w3.org/2000/svg" width="900" height="268" viewBox="0 0 900 268">
  <rect width="900" height="268" fill="#ffffff" rx="6" ry="6" />
  <!-- title -->
  <text x="450" y="20" text-anchor="middle"
        font-family="-apple-system, BlinkMacSystemFont, &quot;Segoe UI&quot;, Helvetica, Arial, sans-serif" font-size="14" font-weight="600" fill="#24292e"
        >Event Listings — Record Growth</text>
  <!-- legend -->
  <circle cx="365" cy="31" r="4" fill="#3b82f6" />
  <text x="373" y="34" font-family="-apple-system, BlinkMacSystemFont, &quot;Segoe UI&quot;, Helvetica, Arial, sans-serif" font-size="11" fill="#586069">Total Records</text>
  <circle cx="455" cy="31" r="4" fill="#22c55e" />
  <text x="463" y="34" font-family="-apple-system, BlinkMacSystemFont, &quot;Segoe UI&quot;, Helvetica, Arial, sans-serif" font-size="11" fill="#586069">Added</text>
  <!-- grid lines -->
  <line x1="58" y1="52" x2="848" y2="52"
           stroke="#e1e4e8" stroke-width="1" stroke-dasharray="4,3" />
  <line x1="58" y1="145" x2="848" y2="145"
           stroke="#e1e4e8" stroke-width="1" stroke-dasharray="4,3" />
  <line x1="58" y1="236" x2="848" y2="236"
           stroke="#e1e4e8" stroke-width="1" stroke-dasharray="4,3" />
  <!-- bars (Added, right axis) -->
  <rect x="60" y="221" width="29" height="19"
          rx="1" fill="#22c55eb3" />
  <rect x="91" y="222" width="29" height="18"
          rx="1" fill="#22c55eb3" />
  <rect x="122" y="198" width="29" height="42"
          rx="1" fill="#22c55eb3" />
  <rect x="153" y="160" width="29" height="80"
          rx="1" fill="#22c55eb3" />
  <rect x="184" y="129" width="29" height="111"
          rx="1" fill="#22c55eb3" />
  <rect x="215" y="131" width="29" height="109"
          rx="1" fill="#22c55eb3" />
  <rect x="246" y="127" width="29" height="113"
          rx="1" fill="#22c55eb3" />
  <rect x="277" y="174" width="29" height="66"
          rx="1" fill="#22c55eb3" />
  <rect x="308" y="175" width="29" height="65"
          rx="1" fill="#22c55eb3" />
  <rect x="339" y="168" width="29" height="72"
          rx="1" fill="#22c55eb3" />
  <rect x="370" y="168" width="29" height="72"
          rx="1" fill="#22c55eb3" />
  <rect x="401" y="162" width="29" height="78"
          rx="1" fill="#22c55eb3" />
  <rect x="432" y="172" width="29" height="68"
          rx="1" fill="#22c55eb3" />
  <rect x="463" y="168" width="29" height="72"
          rx="1" fill="#22c55eb3" />
  <rect x="494" y="176" width="29" height="64"
          rx="1" fill="#22c55eb3" />
  <rect x="525" y="183" width="29" height="57"
          rx="1" fill="#22c55eb3" />
  <rect x="556" y="183" width="29" height="57"
          rx="1" fill="#22c55eb3" />
  <rect x="587" y="157" width="29" height="83"
          rx="1" fill="#22c55eb3" />
  <rect x="618" y="161" width="29" height="79"
          rx="1" fill="#22c55eb3" />
  <rect x="649" y="167" width="29" height="73"
          rx="1" fill="#22c55eb3" />
  <rect x="680" y="150" width="29" height="90"
          rx="1" fill="#22c55eb3" />
  <rect x="711" y="111" width="29" height="129"
          rx="1" fill="#22c55eb3" />
  <rect x="742" y="100" width="29" height="140"
          rx="1" fill="#22c55eb3" />
  <rect x="773" y="73" width="29" height="167"
          rx="1" fill="#22c55eb3" />
  <rect x="804" y="181" width="29" height="59"
          rx="1" fill="#22c55eb3" />
  <!-- line (Total, left axis) -->
  <polyline points="74,240 105,238 136,234 167,226 198,216 229,205 260,194 291,188 322,182 353,175 384,168 415,160 446,153 477,147 508,140 539,135 570,129 601,121 632,114 663,107 694,98 725,85 756,72 787,56 818,50" fill="none" stroke="#3b82f6" stroke-width="2" stroke-linejoin="round" stroke-linecap="round" />
  <!-- left y-axis labels (Total) -->
  <text x="52" y="56" text-anchor="end"
           font-family="-apple-system, BlinkMacSystemFont, &quot;Segoe UI&quot;, Helvetica, Arial, sans-serif" font-size="10" fill="#586069"
           >95M</text>
  <text x="52" y="149" text-anchor="end"
           font-family="-apple-system, BlinkMacSystemFont, &quot;Segoe UI&quot;, Helvetica, Arial, sans-serif" font-size="10" fill="#586069"
           >50M</text>
  <text x="52" y="240" text-anchor="end"
           font-family="-apple-system, BlinkMacSystemFont, &quot;Segoe UI&quot;, Helvetica, Arial, sans-serif" font-size="10" fill="#586069"
           >4M</text>
  <!-- right y-axis labels (Added) -->
  <text x="854" y="56" text-anchor="start"
           font-family="-apple-system, BlinkMacSystemFont, &quot;Segoe UI&quot;, Helvetica, Arial, sans-serif" font-size="10" fill="#22c55e"
           >8M</text>
  <text x="854" y="149" text-anchor="start"
           font-family="-apple-system, BlinkMacSystemFont, &quot;Segoe UI&quot;, Helvetica, Arial, sans-serif" font-size="10" fill="#22c55e"
           >4M</text>
  <text x="854" y="240" text-anchor="start"
           font-family="-apple-system, BlinkMacSystemFont, &quot;Segoe UI&quot;, Helvetica, Arial, sans-serif" font-size="10" fill="#22c55e"
           >0</text>
  <!-- axes -->
  <line x1="58" y1="50" x2="58" y2="240"
        stroke="#e1e4e8" stroke-width="1" />
  <line x1="58" y1="240" x2="848" y2="240"
        stroke="#e1e4e8" stroke-width="1" />
  <line x1="848" y1="50" x2="848" y2="240"
           stroke="#e1e4e8" stroke-width="1" />
  <!-- x-axis labels -->
  <text x="74" y="256" text-anchor="middle"
           font-family="-apple-system, BlinkMacSystemFont, &quot;Segoe UI&quot;, Helvetica, Arial, sans-serif" font-size="10" fill="#586069"
           >Sep 14</text>
  <text x="322" y="256" text-anchor="middle"
           font-family="-apple-system, BlinkMacSystemFont, &quot;Segoe UI&quot;, Helvetica, Arial, sans-serif" font-size="10" fill="#586069"
           >Nov 9</text>
  <text x="570" y="256" text-anchor="middle"
           font-family="-apple-system, BlinkMacSystemFont, &quot;Segoe UI&quot;, Helvetica, Arial, sans-serif" font-size="10" fill="#586069"
           >Jan 4</text>
  <text x="818" y="256" text-anchor="middle"
           font-family="-apple-system, BlinkMacSystemFont, &quot;Segoe UI&quot;, Helvetica, Arial, sans-serif" font-size="10" fill="#586069"
           >Mar 1</text>
</svg>