<svg xmlns="http://www.w3.org/2000/svg" width="900" height="268" viewBox="0 0 900 268">
  <rect width="900" height="268" fill="#ffffff" rx="6" ry="6" />
  <!-- title -->
  <text x="450" y="20" text-anchor="middle"
        font-family="-apple-system, BlinkMacSystemFont, &quot;Segoe UI&quot;, Helvetica, Arial, sans-serif" font-size="14" font-weight="600" fill="#24292e"
        >Events — Record Growth</text>
  <!-- legend -->
  <circle cx="365" cy="31" r="4" fill="#3b82f6" />
  <text x="373" y="34" font-family="-apple-system, BlinkMacSystemFont, &quot;Segoe UI&quot;, Helvetica, Arial, sans-serif" font-size="11" fill="#586069">Total Records</text>
  <circle cx="455" cy="31" r="4" fill="#22c55e" />
  <text x="463" y="34" font-family="-apple-system, BlinkMacSystemFont, &quot;Segoe UI&quot;, Helvetica, Arial, sans-serif" font-size="11" fill="#586069">Added</text>
  <!-- grid lines -->
  <line x1="58" y1="52" x2="848" y2="52"
           stroke="#e1e4e8" stroke-width="1" stroke-dasharray="4,3" />
  <line x1="58" y1="145" x2="848" y2="145"
           stroke="#e1e4e8" stroke-width="1" stroke-dasharray="4,3" />
  <line x1="58" y1="236" x2="848" y2="236"
           stroke="#e1e4e8" stroke-width="1" stroke-dasharray="4,3" />
  <!-- bars (Added, right axis) -->
  <rect x="60" y="234" width="35" height="6"
          rx="1" fill="#22c55eb3" />
  <rect x="97" y="235" width="35" height="5"
          rx="1" fill="#22c55eb3" />
  <rect x="134" y="238" width="35" height="2"
          rx="1" fill="#22c55eb3" />
  <rect x="171" y="236" width="35" height="4"
          rx="1" fill="#22c55eb3" />
  <rect x="208" y="228" width="35" height="12"
          rx="1" fill="#22c55eb3" />
  <rect x="245" y="227" width="35" height="13"
          rx="1" fill="#22c55eb3" />
  <rect x="282" y="227" width="35" height="13"
          rx="1" fill="#22c55eb3" />
  <rect x="319" y="228" width="35" height="12"
          rx="1" fill="#22c55eb3" />
  <rect x="356" y="216" width="35" height="24"
          rx="1" fill="#22c55eb3" />
  <rect x="393" y="228" width="35" height="12"
          rx="1" fill="#22c55eb3" />
  <rect x="430" y="183" width="35" height="57"
          rx="1" fill="#22c55eb3" />
  <rect x="467" y="232" width="35" height="8"
          rx="1" fill="#22c55eb3" />
  <rect x="504" y="233" width="35" height="7"
          rx="1" fill="#22c55eb3" />
  <rect x="541" y="232" width="35" height="8"
          rx="1" fill="#22c55eb3" />
  <rect x="578" y="234" width="35" height="6"
          rx="1" fill="#22c55eb3" />
  <rect x="615" y="234" width="35" height="6"
          rx="1" fill="#22c55eb3" />
  <rect x="652" y="235" width="35" height="5"
          rx="1" fill="#22c55eb3" />
  <rect x="689" y="234" width="35" height="6"
          rx="1" fill="#22c55eb3" />
  <rect x="726" y="231" width="35" height="9"
          rx="1" fill="#22c55eb3" />
  <rect x="763" y="233" width="35" height="7"
          rx="1" fill="#22c55eb3" />
  <rect x="800" y="73" width="35" height="167"
          rx="1" fill="#22c55eb3" />
  <!-- line (Total, left axis) -->
  <polyline points="77,240 114,237 151,236 188,234 225,228 262,222 299,215 336,209 373,197 410,191 447,163 484,160 521,156 558,152 595,149 632,146 669,144 706,141 743,136 780,133 817,50" fill="none" stroke="#3b82f6" stroke-width="2" stroke-linejoin="round" stroke-linecap="round" />
  <!-- left y-axis labels (Total) -->
  <text x="52" y="56" text-anchor="end"
           font-family="-apple-system, BlinkMacSystemFont, &quot;Segoe UI&quot;, Helvetica, Arial, sans-serif" font-size="10" fill="#586069"
           >8k</text>
  <text x="52" y="149" text-anchor="end"
           font-family="-apple-system, BlinkMacSystemFont, &quot;Segoe UI&quot;, Helvetica, Arial, sans-serif" font-size="10" fill="#586069"
           >5k</text>
  <text x="52" y="240" text-anchor="end"
           font-family="-apple-system, BlinkMacSystemFont, &quot;Segoe UI&quot;, Helvetica, Arial, sans-serif" font-size="10" fill="#586069"
           >2k</text>
  <!-- right y-axis labels (Added) -->
  <text x="854" y="56" text-anchor="start"
           font-family="-apple-system, BlinkMacSystemFont, &quot;Segoe UI&quot;, Helvetica, Arial, sans-serif" font-size="10" fill="#22c55e"
           >3k</text>
  <text x="854" y="149" text-anchor="start"
           font-family="-apple-system, BlinkMacSystemFont, &quot;Segoe UI&quot;, Helvetica, Arial, sans-serif" font-size="10" fill="#22c55e"
           >1k</text>
  <text x="854" y="240" text-anchor="start"
           font-family="-apple-system, BlinkMacSystemFont, &quot;Segoe UI&quot;, Helvetica, Arial, sans-serif" font-size="10" fill="#22c55e"
           >0</text>
  <!-- axes -->
  <line x1="58" y1="50" x2="58" y2="240"
        stroke="#e1e4e8" stroke-width="1" />
  <line x1="58" y1="240" x2="848" y2="240"
        stroke="#e1e4e8" stroke-width="1" />
  <line x1="848" y1="50" x2="848" y2="240"
           stroke="#e1e4e8" stroke-width="1" />
  <!-- x-axis labels -->
  <text x="77" y="256" text-anchor="middle"
           font-family="-apple-system, BlinkMacSystemFont, &quot;Segoe UI&quot;, Helvetica, Arial, sans-serif" font-size="10" fill="#586069"
           >Jan 25</text>
  <text x="299" y="256" text-anchor="middle"
           font-family="-apple-system, BlinkMacSystemFont, &quot;Segoe UI&quot;, Helvetica, Arial, sans-serif" font-size="10" fill="#586069"
           >Mar 8</text>
  <text x="521" y="256" text-anchor="middle"
           font-family="-apple-system, BlinkMacSystemFont, &quot;Segoe UI&quot;, Helvetica, Arial, sans-serif" font-size="10" fill="#586069"
           >May 17</text>
  <text x="743" y="256" text-anchor="middle"
           font-family="-apple-system, BlinkMacSystemFont, &quot;Segoe UI&quot;, Helvetica, Arial, sans-serif" font-size="10" fill="#586069"
           >Jun 28</text>
  <text x="817" y="256" text-anchor="middle"
           font-family="-apple-system, BlinkMacSystemFont, &quot;Segoe UI&quot;, Helvetica, Arial, sans-serif" font-size="10" fill="#586069"
           >Jul 12</text>
</svg>