<svg xmlns="http://www.w3.org/2000/svg" width="900" height="268" viewBox="0 0 900 268">
  <rect width="900" height="268" fill="#ffffff" rx="6" ry="6" />
  <!-- title -->
  <text x="450" y="20" text-anchor="middle"
        font-family="-apple-system, BlinkMacSystemFont, &quot;Segoe UI&quot;, Helvetica, Arial, sans-serif" font-size="14" font-weight="600" fill="#24292e"
        >Events — Record Growth</text>
  <!-- legend -->
  <circle cx="365" cy="31" r="4" fill="#3b82f6" />
  <text x="373" y="34" font-family="-apple-system, BlinkMacSystemFont, &quot;Segoe UI&quot;, Helvetica, Arial, sans-serif" font-size="11" fill="#586069">Total Records</text>
  <circle cx="455" cy="31" r="4" fill="#22c55e" />
  <text x="463" y="34" font-family="-apple-system, BlinkMacSystemFont, &quot;Segoe UI&quot;, Helvetica, Arial, sans-serif" font-size="11" fill="#586069">Added</text>
  <!-- grid lines -->
  <line x1="58" y1="52" x2="848" y2="52"
           stroke="#e1e4e8" stroke-width="1" stroke-dasharray="4,3" />
  <line x1="58" y1="145" x2="848" y2="145"
           stroke="#e1e4e8" stroke-width="1" stroke-dasharray="4,3" />
  <line x1="58" y1="236" x2="848" y2="236"
           stroke="#e1e4e8" stroke-width="1" stroke-dasharray="4,3" />
  <!-- bars (Added, right axis) -->
  <rect x="60" y="234" width="33" height="6"
          rx="1" fill="#22c55eb3" />
  <rect x="95" y="233" width="33" height="7"
          rx="1" fill="#22c55eb3" />
  <rect x="130" y="232" width="33" height="8"
          rx="1" fill="#22c55eb3" />
  <rect x="165" y="233" width="33" height="7"
          rx="1" fill="#22c55eb3" />
  <rect x="200" y="225" width="33" height="15"
          rx="1" fill="#22c55eb3" />
  <rect x="235" y="234" width="33" height="6"
          rx="1" fill="#22c55eb3" />
  <rect x="270" y="234" width="33" height="6"
          rx="1" fill="#22c55eb3" />
  <rect x="305" y="234" width="33" height="6"
          rx="1" fill="#22c55eb3" />
  <rect x="340" y="234" width="33" height="6"
          rx="1" fill="#22c55eb3" />
  <rect x="375" y="234" width="33" height="6"
          rx="1" fill="#22c55eb3" />
  <rect x="410" y="236" width="33" height="4"
          rx="1" fill="#22c55eb3" />
  <rect x="445" y="235" width="33" height="5"
          rx="1" fill="#22c55eb3" />
  <rect x="480" y="235" width="33" height="5"
          rx="1" fill="#22c55eb3" />
  <rect x="515" y="238" width="33" height="2"
          rx="1" fill="#22c55eb3" />
  <rect x="550" y="237" width="33" height="3"
          rx="1" fill="#22c55eb3" />
  <rect x="585" y="229" width="33" height="11"
          rx="1" fill="#22c55eb3" />
  <rect x="620" y="229" width="33" height="11"
          rx="1" fill="#22c55eb3" />
  <rect x="655" y="228" width="33" height="12"
          rx="1" fill="#22c55eb3" />
  <rect x="690" y="229" width="33" height="11"
          rx="1" fill="#22c55eb3" />
  <rect x="725" y="219" width="33" height="21"
          rx="1" fill="#22c55eb3" />
  <rect x="760" y="230" width="33" height="10"
          rx="1" fill="#22c55eb3" />
  <rect x="795" y="73" width="33" height="167"
          rx="1" fill="#22c55eb3" />
  <!-- line (Total, left axis) -->
  <polyline points="76,240 111,236 146,231 181,227 216,218 251,215 286,212 321,208 356,205 391,201 426,199 461,196 496,193 531,192 566,190 601,184 636,178 671,171 706,165 741,153 776,147 811,50" fill="none" stroke="#3b82f6" stroke-width="2" stroke-linejoin="round" stroke-linecap="round" />
  <!-- left y-axis labels (Total) -->
  <text x="52" y="56" text-anchor="end"
           font-family="-apple-system, BlinkMacSystemFont, &quot;Segoe UI&quot;, Helvetica, Arial, sans-serif" font-size="10" fill="#586069"
           >7k</text>
  <text x="52" y="149" text-anchor="end"
           font-family="-apple-system, BlinkMacSystemFont, &quot;Segoe UI&quot;, Helvetica, Arial, sans-serif" font-size="10" fill="#586069"
           >4k</text>
  <text x="52" y="240" text-anchor="end"
           font-family="-apple-system, BlinkMacSystemFont, &quot;Segoe UI&quot;, Helvetica, Arial, sans-serif" font-size="10" fill="#586069"
           >692</text>
  <!-- right y-axis labels (Added) -->
  <text x="854" y="56" text-anchor="start"
           font-family="-apple-system, BlinkMacSystemFont, &quot;Segoe UI&quot;, Helvetica, Arial, sans-serif" font-size="10" fill="#22c55e"
           >3k</text>
  <text x="854" y="149" text-anchor="start"
           font-family="-apple-system, BlinkMacSystemFont, &quot;Segoe UI&quot;, Helvetica, Arial, sans-serif" font-size="10" fill="#22c55e"
           >2k</text>
  <text x="854" y="240" text-anchor="start"
           font-family="-apple-system, BlinkMacSystemFont, &quot;Segoe UI&quot;, Helvetica, Arial, sans-serif" font-size="10" fill="#22c55e"
           >0</text>
  <!-- axes -->
  <line x1="58" y1="50" x2="58" y2="240"
        stroke="#e1e4e8" stroke-width="1" />
  <line x1="58" y1="240" x2="848" y2="240"
        stroke="#e1e4e8" stroke-width="1" />
  <line x1="848" y1="50" x2="848" y2="240"
           stroke="#e1e4e8" stroke-width="1" />
  <!-- x-axis labels -->
  <text x="76" y="256" text-anchor="middle"
           font-family="-apple-system, BlinkMacSystemFont, &quot;Segoe UI&quot;, Helvetica, Arial, sans-serif" font-size="10" fill="#586069"
           >Nov 9</text>
  <text x="321" y="256" text-anchor="middle"
           font-family="-apple-system, BlinkMacSystemFont, &quot;Segoe UI&quot;, Helvetica, Arial, sans-serif" font-size="10" fill="#586069"
           >Dec 28</text>
  <text x="566" y="256" text-anchor="middle"
           font-family="-apple-system, BlinkMacSystemFont, &quot;Segoe UI&quot;, Helvetica, Arial, sans-serif" font-size="10" fill="#586069"
           >Feb 15</text>
  <text x="811" y="256" text-anchor="middle"
           font-family="-apple-system, BlinkMacSystemFont, &quot;Segoe UI&quot;, Helvetica, Arial, sans-serif" font-size="10" fill="#586069"
           >Apr 12</text>
</svg>