<svg xmlns="http://www.w3.org/2000/svg" width="900" height="268" viewBox="0 0 900 268">
  <rect width="900" height="268" fill="#ffffff" rx="6" ry="6" />
  <!-- title -->
  <text x="450" y="20" text-anchor="middle"
        font-family="-apple-system, BlinkMacSystemFont, &quot;Segoe UI&quot;, Helvetica, Arial, sans-serif" font-size="14" font-weight="600" fill="#24292e"
        >Events — Record Growth</text>
  <!-- legend -->
  <circle cx="365" cy="31" r="4" fill="#3b82f6" />
  <text x="373" y="34" font-family="-apple-system, BlinkMacSystemFont, &quot;Segoe UI&quot;, Helvetica, Arial, sans-serif" font-size="11" fill="#586069">Total Records</text>
  <circle cx="455" cy="31" r="4" fill="#22c55e" />
  <text x="463" y="34" font-family="-apple-system, BlinkMacSystemFont, &quot;Segoe UI&quot;, Helvetica, Arial, sans-serif" font-size="11" fill="#586069">Added</text>
  <!-- grid lines -->
  <line x1="58" y1="52" x2="848" y2="52"
           stroke="#e1e4e8" stroke-width="1" stroke-dasharray="4,3" />
  <line x1="58" y1="145" x2="848" y2="145"
           stroke="#e1e4e8" stroke-width="1" stroke-dasharray="4,3" />
  <line x1="58" y1="236" x2="848" y2="236"
           stroke="#e1e4e8" stroke-width="1" stroke-dasharray="4,3" />
  <!-- bars (Added, right axis) -->
  <rect x="60" y="231" width="29" height="9"
          rx="1" fill="#22c55eb3" />
  <rect x="91" y="234" width="29" height="6"
          rx="1" fill="#22c55eb3" />
  <rect x="122" y="233" width="29" height="7"
          rx="1" fill="#22c55eb3" />
  <rect x="153" y="234" width="29" height="6"
          rx="1" fill="#22c55eb3" />
  <rect x="184" y="233" width="29" height="7"
          rx="1" fill="#22c55eb3" />
  <rect x="215" y="232" width="29" height="8"
          rx="1" fill="#22c55eb3" />
  <rect x="246" y="233" width="29" height="7"
          rx="1" fill="#22c55eb3" />
  <rect x="277" y="225" width="29" height="15"
          rx="1" fill="#22c55eb3" />
  <rect x="308" y="234" width="29" height="6"
          rx="1" fill="#22c55eb3" />
  <rect x="339" y="234" width="29" height="6"
          rx="1" fill="#22c55eb3" />
  <rect x="370" y="234" width="29" height="6"
          rx="1" fill="#22c55eb3" />
  <rect x="401" y="234" width="29" height="6"
          rx="1" fill="#22c55eb3" />
  <rect x="432" y="234" width="29" height="6"
          rx="1" fill="#22c55eb3" />
  <rect x="463" y="236" width="29" height="4"
          rx="1" fill="#22c55eb3" />
  <rect x="494" y="235" width="29" height="5"
          rx="1" fill="#22c55eb3" />
  <rect x="525" y="235" width="29" height="5"
          rx="1" fill="#22c55eb3" />
  <rect x="556" y="238" width="29" height="2"
          rx="1" fill="#22c55eb3" />
  <rect x="587" y="237" width="29" height="3"
          rx="1" fill="#22c55eb3" />
  <rect x="618" y="229" width="29" height="11"
          rx="1" fill="#22c55eb3" />
  <rect x="649" y="229" width="29" height="11"
          rx="1" fill="#22c55eb3" />
  <rect x="680" y="228" width="29" height="12"
          rx="1" fill="#22c55eb3" />
  <rect x="711" y="229" width="29" height="11"
          rx="1" fill="#22c55eb3" />
  <rect x="742" y="219" width="29" height="21"
          rx="1" fill="#22c55eb3" />
  <rect x="773" y="230" width="29" height="10"
          rx="1" fill="#22c55eb3" />
  <rect x="804" y="73" width="29" height="167"
          rx="1" fill="#22c55eb3" />
  <!-- line (Total, left axis) -->
  <polyline points="74,240 105,237 136,233 167,230 198,226 229,222 260,218 291,209 322,206 353,203 384,200 415,196 446,193 477,191 508,188 539,185 570,184 601,183 632,177 663,171 694,164 725,158 756,147 787,141 818,50" fill="none" stroke="#3b82f6" stroke-width="2" stroke-linejoin="round" stroke-linecap="round" />
  <!-- left y-axis labels (Total) -->
  <text x="52" y="56" text-anchor="end"
           font-family="-apple-system, BlinkMacSystemFont, &quot;Segoe UI&quot;, Helvetica, Arial, sans-serif" font-size="10" fill="#586069"
           >7k</text>
  <text x="52" y="149" text-anchor="end"
           font-family="-apple-system, BlinkMacSystemFont, &quot;Segoe UI&quot;, Helvetica, Arial, sans-serif" font-size="10" fill="#586069"
           >4k</text>
  <text x="52" y="240" text-anchor="end"
           font-family="-apple-system, BlinkMacSystemFont, &quot;Segoe UI&quot;, Helvetica, Arial, sans-serif" font-size="10" fill="#586069"
           >338</text>
  <!-- right y-axis labels (Added) -->
  <text x="854" y="56" text-anchor="start"
           font-family="-apple-system, BlinkMacSystemFont, &quot;Segoe UI&quot;, Helvetica, Arial, sans-serif" font-size="10" fill="#22c55e"
           >3k</text>
  <text x="854" y="149" text-anchor="start"
           font-family="-apple-system, BlinkMacSystemFont, &quot;Segoe UI&quot;, Helvetica, Arial, sans-serif" font-size="10" fill="#22c55e"
           >2k</text>
  <text x="854" y="240" text-anchor="start"
           font-family="-apple-system, BlinkMacSystemFont, &quot;Segoe UI&quot;, Helvetica, Arial, sans-serif" font-size="10" fill="#22c55e"
           >0</text>
  <!-- axes -->
  <line x1="58" y1="50" x2="58" y2="240"
        stroke="#e1e4e8" stroke-width="1" />
  <line x1="58" y1="240" x2="848" y2="240"
        stroke="#e1e4e8" stroke-width="1" />
  <line x1="848" y1="50" x2="848" y2="240"
           stroke="#e1e4e8" stroke-width="1" />
  <!-- x-axis labels -->
  <text x="74" y="256" text-anchor="middle"
           font-family="-apple-system, BlinkMacSystemFont, &quot;Segoe UI&quot;, Helvetica, Arial, sans-serif" font-size="10" fill="#586069"
           >Oct 19</text>
  <text x="322" y="256" text-anchor="middle"
           font-family="-apple-system, BlinkMacSystemFont, &quot;Segoe UI&quot;, Helvetica, Arial, sans-serif" font-size="10" fill="#586069"
           >Dec 14</text>
  <text x="570" y="256" text-anchor="middle"
           font-family="-apple-system, BlinkMacSystemFont, &quot;Segoe UI&quot;, Helvetica, Arial, sans-serif" font-size="10" fill="#586069"
           >Feb 8</text>
  <text x="818" y="256" text-anchor="middle"
           font-family="-apple-system, BlinkMacSystemFont, &quot;Segoe UI&quot;, Helvetica, Arial, sans-serif" font-size="10" fill="#586069"
           >Apr 12</text>
</svg>