<svg xmlns="http://www.w3.org/2000/svg" width="900" height="268" viewBox="0 0 900 268">
  <rect width="900" height="268" fill="#ffffff" rx="6" ry="6" />
  <!-- title -->
  <text x="450" y="20" text-anchor="middle"
        font-family="-apple-system, BlinkMacSystemFont, &quot;Segoe UI&quot;, Helvetica, Arial, sans-serif" font-size="14" font-weight="600" fill="#24292e"
        >Events — Record Growth</text>
  <!-- legend -->
  <circle cx="365" cy="31" r="4" fill="#3b82f6" />
  <text x="373" y="34" font-family="-apple-system, BlinkMacSystemFont, &quot;Segoe UI&quot;, Helvetica, Arial, sans-serif" font-size="11" fill="#586069">Total Records</text>
  <circle cx="455" cy="31" r="4" fill="#22c55e" />
  <text x="463" y="34" font-family="-apple-system, BlinkMacSystemFont, &quot;Segoe UI&quot;, Helvetica, Arial, sans-serif" font-size="11" fill="#586069">Added</text>
  <!-- grid lines -->
  <line x1="58" y1="52" x2="848" y2="52"
           stroke="#e1e4e8" stroke-width="1" stroke-dasharray="4,3" />
  <line x1="58" y1="145" x2="848" y2="145"
           stroke="#e1e4e8" stroke-width="1" stroke-dasharray="4,3" />
  <line x1="58" y1="236" x2="848" y2="236"
           stroke="#e1e4e8" stroke-width="1" stroke-dasharray="4,3" />
  <!-- bars (Added, right axis) -->
  <rect x="59" y="238" width="32" height="2"
          rx="1" fill="#22c55eb3" />
  <rect x="93" y="235" width="32" height="5"
          rx="1" fill="#22c55eb3" />
  <rect x="127" y="233" width="32" height="7"
          rx="1" fill="#22c55eb3" />
  <rect x="161" y="236" width="32" height="4"
          rx="1" fill="#22c55eb3" />
  <rect x="195" y="235" width="32" height="5"
          rx="1" fill="#22c55eb3" />
  <rect x="229" y="235" width="32" height="5"
          rx="1" fill="#22c55eb3" />
  <rect x="263" y="235" width="32" height="5"
          rx="1" fill="#22c55eb3" />
  <rect x="297" y="233" width="32" height="7"
          rx="1" fill="#22c55eb3" />
  <rect x="331" y="234" width="32" height="6"
          rx="1" fill="#22c55eb3" />
  <rect x="365" y="228" width="32" height="12"
          rx="1" fill="#22c55eb3" />
  <rect x="399" y="236" width="32" height="4"
          rx="1" fill="#22c55eb3" />
  <rect x="433" y="236" width="32" height="4"
          rx="1" fill="#22c55eb3" />
  <rect x="467" y="235" width="32" height="5"
          rx="1" fill="#22c55eb3" />
  <rect x="501" y="235" width="32" height="5"
          rx="1" fill="#22c55eb3" />
  <rect x="535" y="235" width="32" height="5"
          rx="1" fill="#22c55eb3" />
  <rect x="569" y="236" width="32" height="4"
          rx="1" fill="#22c55eb3" />
  <rect x="603" y="236" width="32" height="4"
          rx="1" fill="#22c55eb3" />
  <rect x="637" y="236" width="32" height="4"
          rx="1" fill="#22c55eb3" />
  <rect x="671" y="239" width="32" height="1"
          rx="1" fill="#22c55eb3" />
  <rect x="705" y="237" width="32" height="3"
          rx="1" fill="#22c55eb3" />
  <rect x="739" y="232" width="32" height="8"
          rx="1" fill="#22c55eb3" />
  <rect x="773" y="231" width="32" height="9"
          rx="1" fill="#22c55eb3" />
  <rect x="807" y="73" width="32" height="167"
          rx="1" fill="#22c55eb3" />
  <!-- line (Total, left axis) -->
  <polyline points="75,240 109,237 143,232 177,229 211,225 245,222 279,218 313,214 347,210 381,202 415,199 449,196 483,192 517,189 551,186 585,183 619,181 653,178 687,177 721,176 755,170 789,164 823,50" fill="none" stroke="#3b82f6" stroke-width="2" stroke-linejoin="round" stroke-linecap="round" />
  <!-- left y-axis labels (Total) -->
  <text x="52" y="56" text-anchor="end"
           font-family="-apple-system, BlinkMacSystemFont, &quot;Segoe UI&quot;, Helvetica, Arial, sans-serif" font-size="10" fill="#586069"
           >7k</text>
  <text x="52" y="149" text-anchor="end"
           font-family="-apple-system, BlinkMacSystemFont, &quot;Segoe UI&quot;, Helvetica, Arial, sans-serif" font-size="10" fill="#586069"
           >3k</text>
  <text x="52" y="240" text-anchor="end"
           font-family="-apple-system, BlinkMacSystemFont, &quot;Segoe UI&quot;, Helvetica, Arial, sans-serif" font-size="10" fill="#586069"
           >46</text>
  <!-- right y-axis labels (Added) -->
  <text x="854" y="56" text-anchor="start"
           font-family="-apple-system, BlinkMacSystemFont, &quot;Segoe UI&quot;, Helvetica, Arial, sans-serif" font-size="10" fill="#22c55e"
           >4k</text>
  <text x="854" y="149" text-anchor="start"
           font-family="-apple-system, BlinkMacSystemFont, &quot;Segoe UI&quot;, Helvetica, Arial, sans-serif" font-size="10" fill="#22c55e"
           >2k</text>
  <text x="854" y="240" text-anchor="start"
           font-family="-apple-system, BlinkMacSystemFont, &quot;Segoe UI&quot;, Helvetica, Arial, sans-serif" font-size="10" fill="#22c55e"
           >0</text>
  <!-- axes -->
  <line x1="58" y1="50" x2="58" y2="240"
        stroke="#e1e4e8" stroke-width="1" />
  <line x1="58" y1="240" x2="848" y2="240"
        stroke="#e1e4e8" stroke-width="1" />
  <line x1="848" y1="50" x2="848" y2="240"
           stroke="#e1e4e8" stroke-width="1" />
  <!-- x-axis labels -->
  <text x="75" y="256" text-anchor="middle"
           font-family="-apple-system, BlinkMacSystemFont, &quot;Segoe UI&quot;, Helvetica, Arial, sans-serif" font-size="10" fill="#586069"
           >Oct 5</text>
  <text x="313" y="256" text-anchor="middle"
           font-family="-apple-system, BlinkMacSystemFont, &quot;Segoe UI&quot;, Helvetica, Arial, sans-serif" font-size="10" fill="#586069"
           >Nov 23</text>
  <text x="551" y="256" text-anchor="middle"
           font-family="-apple-system, BlinkMacSystemFont, &quot;Segoe UI&quot;, Helvetica, Arial, sans-serif" font-size="10" fill="#586069"
           >Jan 11</text>
  <text x="789" y="256" text-anchor="middle"
           font-family="-apple-system, BlinkMacSystemFont, &quot;Segoe UI&quot;, Helvetica, Arial, sans-serif" font-size="10" fill="#586069"
           >Mar 1</text>
  <text x="823" y="256" text-anchor="middle"
           font-family="-apple-system, BlinkMacSystemFont, &quot;Segoe UI&quot;, Helvetica, Arial, sans-serif" font-size="10" fill="#586069"
           >Mar 8</text>
</svg>