<svg xmlns="http://www.w3.org/2000/svg" width="900" height="268" viewBox="0 0 900 268">
  <rect width="900" height="268" fill="#ffffff" rx="6" ry="6" />
  <!-- title -->
  <text x="450" y="20" text-anchor="middle"
        font-family="-apple-system, BlinkMacSystemFont, &quot;Segoe UI&quot;, Helvetica, Arial, sans-serif" font-size="14" font-weight="600" fill="#24292e"
        >Events — Record Growth</text>
  <!-- legend -->
  <circle cx="365" cy="31" r="4" fill="#3b82f6" />
  <text x="373" y="34" font-family="-apple-system, BlinkMacSystemFont, &quot;Segoe UI&quot;, Helvetica, Arial, sans-serif" font-size="11" fill="#586069">Total Records</text>
  <circle cx="455" cy="31" r="4" fill="#22c55e" />
  <text x="463" y="34" font-family="-apple-system, BlinkMacSystemFont, &quot;Segoe UI&quot;, Helvetica, Arial, sans-serif" font-size="11" fill="#586069">Added</text>
  <!-- grid lines -->
  <line x1="58" y1="52" x2="848" y2="52"
           stroke="#e1e4e8" stroke-width="1" stroke-dasharray="4,3" />
  <line x1="58" y1="145" x2="848" y2="145"
           stroke="#e1e4e8" stroke-width="1" stroke-dasharray="4,3" />
  <line x1="58" y1="236" x2="848" y2="236"
           stroke="#e1e4e8" stroke-width="1" stroke-dasharray="4,3" />
  <!-- bars (Added, right axis) -->
  <rect x="60" y="230" width="33" height="10"
          rx="1" fill="#22c55eb3" />
  <rect x="95" y="229" width="33" height="11"
          rx="1" fill="#22c55eb3" />
  <rect x="130" y="230" width="33" height="10"
          rx="1" fill="#22c55eb3" />
  <rect x="165" y="236" width="33" height="4"
          rx="1" fill="#22c55eb3" />
  <rect x="200" y="233" width="33" height="7"
          rx="1" fill="#22c55eb3" />
  <rect x="235" y="217" width="33" height="23"
          rx="1" fill="#22c55eb3" />
  <rect x="270" y="215" width="33" height="25"
          rx="1" fill="#22c55eb3" />
  <rect x="305" y="214" width="33" height="26"
          rx="1" fill="#22c55eb3" />
  <rect x="340" y="216" width="33" height="24"
          rx="1" fill="#22c55eb3" />
  <rect x="375" y="193" width="33" height="47"
          rx="1" fill="#22c55eb3" />
  <rect x="410" y="217" width="33" height="23"
          rx="1" fill="#22c55eb3" />
  <rect x="445" y="130" width="33" height="110"
          rx="1" fill="#22c55eb3" />
  <rect x="480" y="225" width="33" height="15"
          rx="1" fill="#22c55eb3" />
  <rect x="515" y="226" width="33" height="14"
          rx="1" fill="#22c55eb3" />
  <rect x="550" y="225" width="33" height="15"
          rx="1" fill="#22c55eb3" />
  <rect x="585" y="229" width="33" height="11"
          rx="1" fill="#22c55eb3" />
  <rect x="620" y="229" width="33" height="11"
          rx="1" fill="#22c55eb3" />
  <rect x="655" y="230" width="33" height="10"
          rx="1" fill="#22c55eb3" />
  <rect x="690" y="228" width="33" height="12"
          rx="1" fill="#22c55eb3" />
  <rect x="725" y="223" width="33" height="17"
          rx="1" fill="#22c55eb3" />
  <rect x="760" y="227" width="33" height="13"
          rx="1" fill="#22c55eb3" />
  <rect x="795" y="73" width="33" height="167"
          rx="1" fill="#22c55eb3" />
  <!-- line (Total, left axis) -->
  <polyline points="76,240 111,237 146,233 181,232 216,230 251,222 286,214 321,206 356,198 391,184 426,176 461,141 496,137 531,132 566,127 601,124 636,120 671,117 706,113 741,107 776,103 811,50" fill="none" stroke="#3b82f6" stroke-width="2" stroke-linejoin="round" stroke-linecap="round" />
  <!-- left y-axis labels (Total) -->
  <text x="52" y="56" text-anchor="end"
           font-family="-apple-system, BlinkMacSystemFont, &quot;Segoe UI&quot;, Helvetica, Arial, sans-serif" font-size="10" fill="#586069"
           >7k</text>
  <text x="52" y="149" text-anchor="end"
           font-family="-apple-system, BlinkMacSystemFont, &quot;Segoe UI&quot;, Helvetica, Arial, sans-serif" font-size="10" fill="#586069"
           >5k</text>
  <text x="52" y="240" text-anchor="end"
           font-family="-apple-system, BlinkMacSystemFont, &quot;Segoe UI&quot;, Helvetica, Arial, sans-serif" font-size="10" fill="#586069"
           >2k</text>
  <!-- right y-axis labels (Added) -->
  <text x="854" y="56" text-anchor="start"
           font-family="-apple-system, BlinkMacSystemFont, &quot;Segoe UI&quot;, Helvetica, Arial, sans-serif" font-size="10" fill="#22c55e"
           >1k</text>
  <text x="854" y="149" text-anchor="start"
           font-family="-apple-system, BlinkMacSystemFont, &quot;Segoe UI&quot;, Helvetica, Arial, sans-serif" font-size="10" fill="#22c55e"
           >712</text>
  <text x="854" y="240" text-anchor="start"
           font-family="-apple-system, BlinkMacSystemFont, &quot;Segoe UI&quot;, Helvetica, Arial, sans-serif" font-size="10" fill="#22c55e"
           >0</text>
  <!-- axes -->
  <line x1="58" y1="50" x2="58" y2="240"
        stroke="#e1e4e8" stroke-width="1" />
  <line x1="58" y1="240" x2="848" y2="240"
        stroke="#e1e4e8" stroke-width="1" />
  <line x1="848" y1="50" x2="848" y2="240"
           stroke="#e1e4e8" stroke-width="1" />
  <!-- x-axis labels -->
  <text x="76" y="256" text-anchor="middle"
           font-family="-apple-system, BlinkMacSystemFont, &quot;Segoe UI&quot;, Helvetica, Arial, sans-serif" font-size="10" fill="#586069"
           >Jan 18</text>
  <text x="321" y="256" text-anchor="middle"
           font-family="-apple-system, BlinkMacSystemFont, &quot;Segoe UI&quot;, Helvetica, Arial, sans-serif" font-size="10" fill="#586069"
           >Mar 8</text>
  <text x="566" y="256" text-anchor="middle"
           font-family="-apple-system, BlinkMacSystemFont, &quot;Segoe UI&quot;, Helvetica, Arial, sans-serif" font-size="10" fill="#586069"
           >May 24</text>
  <text x="811" y="256" text-anchor="middle"
           font-family="-apple-system, BlinkMacSystemFont, &quot;Segoe UI&quot;, Helvetica, Arial, sans-serif" font-size="10" fill="#586069"
           >Jul 12</text>
</svg>